<svg width="54" height="56" viewBox="0 0 54 56" fill="none" xmlns="http://www.w3.org/2000/svg">
<rect x="0.25" width="53.75" height="56" rx="4.66667" fill="#101010"/>
<path fill-rule="evenodd" clip-rule="evenodd" d="M17.5592 48.9359C18.2188 48.9359 18.7009 49.0815 19.0054 49.3726C19.3098 49.6638 19.4622 50.1166 19.4626 50.731V54.0242H18.4731V50.8703C18.4731 50.1758 18.0993 49.8286 17.3519 49.8286C17.029 49.8258 16.7121 49.9188 16.438 50.0965C16.4854 50.3043 16.5077 50.5174 16.5043 50.731V54.0242H15.5148V50.8703C15.5148 50.1758 15.1411 49.8286 14.3936 49.8286C14.0526 49.829 13.7143 49.8928 13.3949 50.0172V54.0242H12.4059V49.4519C12.7333 49.2823 13.0799 49.1563 13.4376 49.0769C13.819 48.9842 14.2092 48.936 14.6009 48.9333C15.2181 48.9333 15.6767 49.0583 15.9767 49.3083C16.4708 49.0624 17.0116 48.9352 17.5592 48.9359ZM22.8528 54.1753C22.0985 54.1753 21.5316 53.9504 21.1521 53.5007C20.7725 53.0509 20.5826 52.3963 20.5822 51.5369C20.5822 49.7976 21.3365 48.9281 22.8451 48.9284C23.6053 48.9284 24.1768 49.1515 24.5598 49.5977C24.9428 50.0439 25.1344 50.6902 25.1348 51.5369C25.1348 52.3827 24.937 53.034 24.5413 53.4905C24.1456 53.947 23.5828 54.1753 22.8528 54.1753ZM22.8431 53.2922C23.7102 53.2922 24.1436 52.7071 24.1432 51.5369C24.1432 50.9549 24.0404 50.5202 23.8346 50.2326C23.6289 49.9451 23.2991 49.8011 22.8451 49.8008C22.3867 49.8008 22.0586 49.9479 21.8608 50.2423C21.6629 50.5366 21.564 50.9682 21.564 51.5369C21.564 52.1052 21.666 52.5399 21.87 52.8411C22.074 53.1422 22.3984 53.2919 22.8431 53.2901V53.2922ZM28.4381 48.9381C29.1417 48.9381 29.6755 49.1596 30.0397 49.6025C30.4038 50.0455 30.5864 50.6729 30.5874 51.4849C30.5874 52.4637 30.3692 53.1563 29.9327 53.5628C29.4962 53.9693 28.9415 54.1735 28.2684 54.1753C26.9179 54.1753 26.2426 53.7984 26.2426 53.0447V47.0514H27.2228V49.2457C27.42 49.1475 27.627 49.0726 27.84 49.0222C28.0356 48.9699 28.2363 48.941 28.4381 48.9359V48.9381ZM28.1928 53.2724C28.7071 53.2724 29.0671 53.117 29.2728 52.8062C29.4786 52.4955 29.5814 52.0689 29.5814 51.5267C29.5814 50.9716 29.4731 50.5484 29.2564 50.2573C29.0397 49.9662 28.7179 49.8208 28.291 49.8211C28.1051 49.8224 27.9199 49.8473 27.7397 49.8951C27.5593 49.9405 27.3861 50.0127 27.2254 50.1094V52.7885C27.2237 53.11 27.5462 53.2706 28.1928 53.2703V53.2724ZM31.7055 47.3113H32.7608V48.2538H31.7055V47.3113ZM31.7338 49.0769H32.7233L32.7325 54.0263H31.7338V49.0769ZM34.1252 54.0263V47.1607H35.1055V54.0242L34.1252 54.0263ZM38.4202 48.9242C39.1553 48.9242 39.6939 49.1742 40.0361 49.6743C40.3783 50.1744 40.5463 50.8737 40.5401 51.7721H37.2218C37.2537 52.2615 37.3909 52.6335 37.6333 52.8882C37.8757 53.1429 38.2196 53.2701 38.665 53.2697C39.1985 53.2703 39.7236 53.1304 40.1914 52.863V53.835C39.7015 54.0619 39.1402 54.1753 38.5076 54.1753C37.7979 54.1753 37.2404 53.9488 36.8351 53.4958C36.4298 53.0429 36.2274 52.3999 36.2277 51.5669C36.2277 50.7138 36.4192 50.061 36.8022 49.6084C37.1852 49.1558 37.7245 48.9277 38.4202 48.9242ZM38.3919 49.7815C38.059 49.7815 37.7984 49.8742 37.6101 50.0596C37.4219 50.245 37.2993 50.559 37.2424 51.0016H39.5321C39.4878 50.5783 39.3747 50.2693 39.1926 50.0746C39.0106 49.8799 38.7437 49.7822 38.3919 49.7815ZM28.9416 8.97603C27.8503 8.6949 27.0103 8.55415 26.4216 8.5538C22.03 8.5538 18.4695 12.251 18.4695 16.8104C18.4695 21.3697 22.0315 25.0675 26.4216 25.0675C30.8116 25.0675 34.3742 21.3703 34.3742 16.8104C34.3745 16.1443 34.2975 15.4805 34.1448 14.8337L40.4671 13.0596C40.9792 15.0881 41.0761 17.2061 40.7513 19.2762C40.4266 21.3462 39.6875 23.3219 38.5822 25.075L28.1131 45.2966H18.4144L25.306 32.0616C25.3436 31.9888 25.233 31.828 25.1404 31.8195C17.7762 31.1229 12.0078 24.6929 12.0078 16.865C12.0078 8.57094 18.4828 1.84791 26.4709 1.84791C27.9332 1.84623 29.3873 2.07512 30.7838 2.5268L28.9416 8.97603Z" fill="#006E53"/>
<path d="M26.3733 21.3516C28.7806 21.3516 30.732 19.3184 30.732 16.8104C30.732 14.3024 28.7806 12.2693 26.3733 12.2693C23.9661 12.2693 22.0146 14.3024 22.0146 16.8104C22.0146 19.3184 23.9661 21.3516 26.3733 21.3516Z" fill="#D6E806"/>
<path d="M33.9023 13.7145C33.1472 11.7451 31.6918 10.1553 29.8394 9.27627M36.6765 12.4757C35.61 9.74431 33.5935 7.5328 31.03 6.28313M39.3513 11.5471C37.9929 7.94623 35.3216 5.05197 31.9212 3.49683" stroke="#D6E806" stroke-width="0.719113" stroke-linecap="round"/>
</svg>
