<svg width="45" height="22" viewBox="0 0 45 22" fill="none" xmlns="http://www.w3.org/2000/svg">
<rect width="45" height="22" rx="10" fill="#2BBA8F"/>
<path d="M9.868 13.14H6.22L5.548 15H4.396L7.42 6.684H8.68L11.692 15H10.54L9.868 13.14ZM9.556 12.252L8.044 8.028L6.532 12.252H9.556ZM12.6019 11.7C12.6019 11.02 12.7379 10.428 13.0099 9.924C13.2819 9.412 13.6579 9.016 14.1379 8.736C14.6259 8.456 15.1819 8.316 15.8059 8.316C16.6139 8.316 17.2779 8.512 17.7979 8.904C18.3259 9.296 18.6739 9.84 18.8419 10.536H17.6659C17.5539 10.136 17.3339 9.82 17.0059 9.588C16.6859 9.356 16.2859 9.24 15.8059 9.24C15.1819 9.24 14.6779 9.456 14.2939 9.888C13.9099 10.312 13.7179 10.916 13.7179 11.7C13.7179 12.492 13.9099 13.104 14.2939 13.536C14.6779 13.968 15.1819 14.184 15.8059 14.184C16.2859 14.184 16.6859 14.072 17.0059 13.848C17.3259 13.624 17.5459 13.304 17.6659 12.888H18.8419C18.6659 13.56 18.3139 14.1 17.7859 14.508C17.2579 14.908 16.5979 15.108 15.8059 15.108C15.1819 15.108 14.6259 14.968 14.1379 14.688C13.6579 14.408 13.2819 14.012 13.0099 13.5C12.7379 12.988 12.6019 12.388 12.6019 11.7ZM21.631 9.324V13.2C21.631 13.52 21.699 13.748 21.835 13.884C21.971 14.012 22.207 14.076 22.543 14.076H23.347V15H22.363C21.755 15 21.299 14.86 20.995 14.58C20.691 14.3 20.539 13.84 20.539 13.2V9.324H19.687V8.424H20.539V6.768H21.631V8.424H23.347V9.324H21.631ZM25.2341 7.356C25.0261 7.356 24.8501 7.284 24.7061 7.14C24.5621 6.996 24.4901 6.82 24.4901 6.612C24.4901 6.404 24.5621 6.228 24.7061 6.084C24.8501 5.94 25.0261 5.868 25.2341 5.868C25.4341 5.868 25.6021 5.94 25.7381 6.084C25.8821 6.228 25.9541 6.404 25.9541 6.612C25.9541 6.82 25.8821 6.996 25.7381 7.14C25.6021 7.284 25.4341 7.356 25.2341 7.356ZM25.7621 8.424V15H24.6701V8.424H25.7621ZM30.0712 13.992L32.1112 8.424H33.2752L30.6952 15H29.4232L26.8432 8.424H28.0192L30.0712 13.992ZM40.3498 11.46C40.3498 11.668 40.3378 11.888 40.3138 12.12H35.0578C35.0978 12.768 35.3178 13.276 35.7178 13.644C36.1258 14.004 36.6178 14.184 37.1938 14.184C37.6658 14.184 38.0578 14.076 38.3698 13.86C38.6898 13.636 38.9138 13.34 39.0418 12.972H40.2178C40.0418 13.604 39.6898 14.12 39.1618 14.52C38.6338 14.912 37.9778 15.108 37.1938 15.108C36.5698 15.108 36.0098 14.968 35.5138 14.688C35.0258 14.408 34.6418 14.012 34.3618 13.5C34.0818 12.98 33.9418 12.38 33.9418 11.7C33.9418 11.02 34.0778 10.424 34.3498 9.912C34.6218 9.4 35.0018 9.008 35.4898 8.736C35.9858 8.456 36.5538 8.316 37.1938 8.316C37.8178 8.316 38.3698 8.452 38.8498 8.724C39.3298 8.996 39.6978 9.372 39.9538 9.852C40.2178 10.324 40.3498 10.86 40.3498 11.46ZM39.2218 11.232C39.2218 10.816 39.1298 10.46 38.9458 10.164C38.7618 9.86 38.5098 9.632 38.1898 9.48C37.8778 9.32 37.5298 9.24 37.1458 9.24C36.5938 9.24 36.1218 9.416 35.7298 9.768C35.3458 10.12 35.1258 10.608 35.0698 11.232H39.2218Z" fill="black"/>
</svg>
