<svg width="55" height="56" viewBox="0 0 55 56" fill="none" xmlns="http://www.w3.org/2000/svg">
<rect x="0.5" width="53.75" height="56" rx="4.66667" fill="#E20010"/>
<path d="M33.2049 3.88403C34.8416 3.90678 36.4031 4.21731 37.8613 4.95901C39.1469 5.61715 40.1952 6.53736 40.9107 7.80567C41.3757 8.64295 41.6807 9.5595 41.8101 10.5084C42.0762 12.3301 41.8072 14.0924 41.2064 15.8156C40.8533 16.8263 40.3648 17.7742 39.8357 18.7053C38.7578 20.6006 37.3728 22.2432 35.7618 23.6994C33.695 25.5695 31.4285 27.2063 29.0034 28.5803C28.0639 29.1109 27.0898 29.5564 26.042 29.8289C25.4001 30.0022 24.7374 30.0861 24.0725 30.0781C23.1973 30.0603 22.5125 29.6617 21.9799 28.9902C21.4882 28.3876 21.2348 27.6253 21.2679 26.8482C21.2737 26.632 21.3049 26.4173 21.3608 26.2084C21.6778 25.0824 22.1085 24.004 22.7523 23.0205C23.2443 22.2694 23.8307 21.6024 24.5976 21.1252C25.4506 20.5941 26.3777 20.3672 27.3805 20.5862C27.694 20.6597 27.9891 20.7969 28.2473 20.9892C28.9074 21.461 28.8728 22.2012 28.5559 22.6739C28.2843 23.0847 27.9808 23.4734 27.648 23.8364C27.0843 24.4436 26.4855 25.0177 25.9011 25.6051C25.3839 26.1248 24.8978 26.6702 24.5037 27.2917C24.2995 27.6141 24.1111 27.943 24.0547 28.3301C23.9835 28.8157 24.2357 29.1465 24.7257 29.192C24.9793 29.2127 25.2344 29.187 25.4788 29.1163C26.2319 28.9082 26.9311 28.5724 27.6179 28.2105C28.677 27.6502 29.6546 26.9654 30.6074 26.243C31.7625 25.3673 32.8855 24.454 33.9204 23.4383C35.0992 22.2828 36.1499 21.0268 36.954 19.5775C37.5414 18.5194 37.974 17.4018 38.1664 16.2033C38.3365 15.1476 38.2416 14.1191 37.7525 13.1499C37.517 12.6709 37.1487 12.2697 36.6914 11.9943C36.4803 11.8672 36.2474 11.7804 36.0046 11.7382C35.121 11.5814 34.266 11.71 33.4259 11.9904C32.5502 12.2831 31.7378 12.7103 30.9481 13.1771C29.2343 14.1937 27.5185 15.2099 25.8852 16.3546C25.0664 16.9281 24.2728 17.5383 23.4703 18.1347C22.7454 18.6736 22.0254 19.219 21.2333 19.6596C20.5904 20.0256 19.8947 20.2897 19.1708 20.4423C18.2739 20.6243 17.4471 20.4552 16.6876 19.9677C15.8994 19.4618 15.3476 18.7676 15.1053 17.8488C14.951 17.2688 15.0119 16.6938 15.1449 16.1212C15.3392 15.2806 15.7081 14.5191 16.1679 13.7972C17.3052 12.0141 18.7352 10.5015 20.3981 9.20848C22.8626 7.29241 25.5742 5.81692 28.5074 4.74936C30.0134 4.1985 31.6015 3.90595 33.2049 3.88403Z" fill="white"/>
<path d="M12.9295 44.6504C12.9211 44.0907 12.8573 43.5873 12.5339 43.1507C12.3764 42.9397 12.1584 42.7817 11.9089 42.6978C11.2661 42.4674 10.6114 42.4946 9.97302 42.6918C9.46125 42.8501 8.96777 43.0657 8.46687 43.258C8.36797 43.2946 8.27798 43.3416 8.15832 43.395C7.92246 42.81 7.69055 42.2424 7.44777 41.649C7.79933 41.4824 8.13063 41.3123 8.47231 41.1664C9.2595 40.8297 10.0759 40.5988 10.9343 40.5468C11.7927 40.4949 12.6397 40.5404 13.421 40.9568C14.3046 41.4245 14.9424 42.1 15.2095 43.083C15.248 43.2116 15.2711 43.3444 15.2782 43.4785C15.3123 44.7548 15.3583 46.031 15.3637 47.3072C15.3672 48.1795 15.3098 49.0522 15.2841 49.9249C15.2795 50.0446 15.2297 50.1581 15.1447 50.2424C14.534 50.9149 13.7869 51.3797 12.9403 51.6917C12.0326 52.0229 11.0659 52.1618 10.1016 52.0996C9.21154 52.0502 8.44313 51.6858 7.7934 51.081C7.14367 50.4763 6.68974 49.746 6.56316 48.851C6.3901 47.6252 6.74364 46.5616 7.62479 45.6864C8.19145 45.1236 8.88964 44.8329 9.67634 44.73C10.5466 44.6168 11.4198 44.647 12.2931 44.6495L12.9295 44.6504ZM12.8152 46.6432C12.7639 46.633 12.7121 46.6259 12.66 46.6219C12.3633 46.616 12.0631 46.6056 11.765 46.61C11.4075 46.6155 11.0485 46.6169 10.693 46.6506C10.3256 46.6857 9.96907 46.793 9.68425 47.0382C9.21154 47.4457 9.07111 47.9777 9.18632 48.5775C9.32972 49.3192 9.74408 49.8374 10.4828 50.058C10.8637 50.1719 11.2671 50.1889 11.6562 50.1074C12.0179 50.0412 12.3553 49.8793 12.6333 49.6387C12.6803 49.6022 12.719 49.556 12.7467 49.5033C12.7745 49.4506 12.7906 49.3925 12.794 49.3331C12.8053 49.0725 12.839 48.8124 12.8409 48.5518C12.8449 47.955 12.836 47.3582 12.8311 46.7613C12.8281 46.7217 12.8228 46.6822 12.8152 46.6432Z" fill="white"/>
<path d="M42.6708 46.5931C40.5495 46.5931 38.4678 46.5476 36.3569 46.603C36.3678 46.7514 36.3742 46.8918 36.3875 47.0287C36.4419 47.589 36.5626 48.1334 36.7994 48.6471C36.9836 49.0662 37.2695 49.4326 37.6311 49.7132C38.2047 50.1489 38.8594 50.2201 39.5462 50.1315C40.1139 50.0584 40.6424 49.8507 41.1695 49.6415C41.4113 49.5461 41.6512 49.4437 41.9113 49.3374C42.1585 49.8546 42.4008 50.363 42.653 50.8861C42.6065 50.9197 42.563 50.9573 42.5145 50.985C41.486 51.5952 40.3814 51.9883 39.1882 52.0921C38.1004 52.1866 37.062 52.0081 36.1225 51.4063C35.4827 50.9964 35.0347 50.4174 34.6599 49.7696C34.1982 48.9637 33.9187 48.0665 33.841 47.141C33.6841 45.4535 34.0424 43.8824 34.916 42.4277C35.5252 41.4165 36.4345 40.8672 37.5728 40.6778C38.6191 40.4938 39.6968 40.6732 40.6271 41.1861C41.1483 41.4684 41.5112 41.913 41.8104 42.4114C42.206 43.0685 42.4141 43.7929 42.514 44.5435C42.5951 45.1488 42.6208 45.7614 42.6693 46.3731C42.6752 46.4359 42.6708 46.5012 42.6708 46.5931ZM40.0995 44.6721C39.9764 44.1079 39.8923 43.5314 39.523 43.0532C39.3377 42.8156 39.0775 42.6476 38.7847 42.5765C38.0059 42.3704 37.2232 42.7293 36.8884 43.4666C36.7688 43.7292 36.6986 44.0145 36.6115 44.2909C36.5725 44.416 36.5472 44.546 36.5161 44.6721C36.7253 44.7275 39.8854 44.73 40.1005 44.6736L40.0995 44.6721Z" fill="white"/>
<path d="M28.7545 37.9754L31.2857 37.5837V40.6925C31.8474 40.7261 32.3824 40.6895 32.9204 40.7474V42.6624C32.3765 42.6713 31.8439 42.655 31.2886 42.6886V42.9576C31.284 44.801 31.2801 46.6446 31.2768 48.4883C31.2768 48.7785 31.3 49.0693 31.3262 49.3585C31.3678 49.8036 31.6145 50.0859 32.0457 50.1942C32.2835 50.2545 32.5278 50.2886 32.7691 50.3346L33.0114 50.3841V52.0094C32.9841 52.0229 32.9552 52.0325 32.9253 52.0381C32.2069 52.0702 31.4914 52.0514 30.7966 51.8403C30.1182 51.6356 29.5526 51.2647 29.1688 50.6536C28.9508 50.3074 28.84 49.9183 28.7921 49.5163C28.7631 49.2645 28.7489 49.0112 28.7495 48.7578C28.7495 45.2569 28.7515 41.7564 28.7555 38.2562L28.7545 37.9754Z" fill="white"/>
<path d="M44.0615 37.977L46.5091 37.5527V37.8905C46.5091 41.0699 46.5104 44.2493 46.5131 47.4288C46.5131 48.0108 46.518 48.5928 46.5225 49.1752C46.5264 49.7498 46.7361 50.0425 47.285 50.2136C47.4715 50.2652 47.6608 50.3058 47.8521 50.3353C47.9688 50.357 48.087 50.3674 48.2289 50.3847V52.0451C48.2157 52.0561 48.2001 52.0637 48.1834 52.0674C47.4882 52.0956 46.7959 52.0842 46.12 51.8864C45.7104 51.7685 45.329 51.5687 44.999 51.299C44.3844 50.7961 44.1342 50.1222 44.0699 49.3622C44.0511 49.1396 44.0536 48.9147 44.0541 48.6912C44.0541 45.2131 44.0566 41.7353 44.0615 38.2578V37.977Z" fill="white"/>
<path d="M23.8335 51.8985H21.3612C21.3582 51.7952 21.3533 51.7007 21.3528 51.6073C21.3501 50.1219 21.348 48.6365 21.3463 47.1511C21.3434 45.9644 21.336 44.7777 21.3364 43.5909C21.3372 43.3758 21.3538 43.1609 21.3859 42.9481C21.4225 42.7053 21.5496 42.5031 21.7261 42.3325C22.6972 41.3871 23.8607 40.8204 25.1874 40.5762C26.0188 40.4237 26.8709 40.4225 27.7027 40.5727C27.7468 40.5806 27.7908 40.5905 27.8338 40.6014C27.855 40.6068 27.8753 40.6172 27.9164 40.633C27.6355 41.347 27.2933 42.0294 26.9709 42.7039C26.5857 42.7039 26.2208 42.6925 25.8569 42.7063C25.2284 42.7272 24.6115 42.8809 24.0466 43.1573C23.8864 43.2359 23.8266 43.3338 23.8271 43.5183C23.834 46.2214 23.8357 48.9245 23.832 51.6276L23.8335 51.8985Z" fill="white"/>
<path d="M19.5376 40.7971C19.5638 44.5017 19.5351 48.1845 19.5588 51.8901H17.1394C17.1334 51.8006 17.1216 51.7071 17.1216 51.6136C17.1216 49.2847 17.1216 46.9554 17.1216 44.6258C17.1216 43.5582 17.1305 42.4907 17.1349 41.4231C17.1349 41.342 17.1349 41.2609 17.1349 41.1591L19.5376 40.7971Z" fill="white"/>
<path d="M18.2279 39.7067C17.0466 39.7037 16.3069 38.5278 16.7969 37.4178C17.0981 36.7369 17.6153 36.4783 18.3614 36.4827C19.3612 36.4911 20.1024 37.4855 19.8641 38.4571C19.6737 39.2335 19.0507 39.7086 18.2279 39.7067Z" fill="white"/>
</svg>
