<svg width="33" height="33" viewBox="0 0 33 33" fill="none" xmlns="http://www.w3.org/2000/svg">
<path d="M30.6429 14.5L24.2143 19.5V16H3.5V14.5H24.2143H30.6429Z" fill="url(#paint0_linear_156_181)"/>
<path d="M10.653 29.8334C10.0397 29.8334 9.52767 29.628 9.11701 29.2174C8.70545 28.8058 8.49967 28.2934 8.49967 27.68V20.5H9.83301V25.1667H23.1663V7.83335H9.83301V12.5H8.49967V5.32002C8.49967 4.70669 8.70545 4.19469 9.11701 3.78402C9.52767 3.37246 10.0397 3.16669 10.653 3.16669H22.3463C22.9597 3.16669 23.4717 3.37246 23.8823 3.78402C24.2939 4.19469 24.4997 4.70669 24.4997 5.32002V27.68C24.4997 28.2934 24.2943 28.8054 23.8837 29.216C23.4721 29.6276 22.9597 29.8334 22.3463 29.8334H10.653ZM13.833 20.9107L12.889 19.9667L15.6743 17.1667H3.83301V15.8334H15.673L12.8903 13.0334L13.833 12.0894L18.2437 16.5L13.833 20.9107Z" fill="#F0F0F0"/>
<defs>
<linearGradient id="paint0_linear_156_181" x1="17.0714" y1="14.5" x2="17.0714" y2="19.5" gradientUnits="userSpaceOnUse">
<stop stop-color="#2BBA8F"/>
<stop offset="1" stop-color="#24312D" stop-opacity="0"/>
</linearGradient>
</defs>
</svg>
