<svg width="21" height="20" viewBox="0 0 21 20" fill="none" xmlns="http://www.w3.org/2000/svg">
<path d="M6.846 18.3334C6.46266 18.3334 6.14266 18.205 5.886 17.9484C5.62877 17.6911 5.50016 17.3709 5.50016 16.9875V12.5H6.3335V15.4167H14.6668V4.58335H6.3335V7.50002H5.50016V3.01252C5.50016 2.62919 5.62877 2.30919 5.886 2.05252C6.14266 1.7953 6.46266 1.66669 6.846 1.66669H14.1543C14.5377 1.66669 14.8577 1.7953 15.1143 2.05252C15.3716 2.30919 15.5002 2.62919 15.5002 3.01252V16.9875C15.5002 17.3709 15.3718 17.6909 15.1152 17.9475C14.8579 18.2047 14.5377 18.3334 14.1543 18.3334H6.846ZM8.8335 12.7567L8.2435 12.1667L9.98433 10.4167H2.5835V9.58335H9.9835L8.24433 7.83335L8.8335 7.24335L11.5902 10L8.8335 12.7567Z" fill="#F0F0F0"/>
</svg>
