<svg width="33" height="33" viewBox="0 0 33 33" fill="none" xmlns="http://www.w3.org/2000/svg">
<g clip-path="url(#clip0_156_333)">
<path d="M9.5 14.5H16.5V16.5H12.91L20.5 24.09L24.79 19.79C24.883 19.6963 24.9936 19.6219 25.1154 19.5711C25.2373 19.5203 25.368 19.4942 25.5 19.4942C25.632 19.4942 25.7627 19.5203 25.8846 19.5711C26.0064 19.6219 26.117 19.6963 26.21 19.79L33.5 27.09L32.09 28.5L25.5 21.91L21.21 26.21C21.117 26.3037 21.0064 26.3781 20.8846 26.4289C20.7627 26.4797 20.632 26.5058 20.5 26.5058C20.368 26.5058 20.2373 26.4797 20.1154 26.4289C19.9936 26.3781 19.883 26.3037 19.79 26.21L11.5 17.91V21.5H9.5V14.5Z" fill="url(#paint0_linear_156_333)"/>
<path d="M4.5 2.5H2.5V28.5C2.5 29.0304 2.71071 29.5391 3.08579 29.9142C3.46086 30.2893 3.96957 30.5 4.5 30.5H30.5V28.5H4.5V2.5Z" fill="#F0F0F0"/>
<path d="M30.5 9.5H23.5V11.5H27.09L19.5 19.09L15.21 14.79C15.117 14.6963 15.0064 14.6219 14.8846 14.5711C14.7627 14.5203 14.632 14.4942 14.5 14.4942C14.368 14.4942 14.2373 14.5203 14.1154 14.5711C13.9936 14.6219 13.883 14.6963 13.79 14.79L6.5 22.09L7.91 23.5L14.5 16.91L18.79 21.21C18.883 21.3037 18.9936 21.3781 19.1154 21.4289C19.2373 21.4797 19.368 21.5058 19.5 21.5058C19.632 21.5058 19.7627 21.4797 19.8846 21.4289C20.0064 21.3781 20.117 21.3037 20.21 21.21L28.5 12.91V16.5H30.5V9.5Z" fill="#F0F0F0"/>
</g>
<defs>
<linearGradient id="paint0_linear_156_333" x1="17.5" y1="14.7575" x2="23.4346" y2="34.6119" gradientUnits="userSpaceOnUse">
<stop stop-color="#2BBA8F" stop-opacity="0.47"/>
<stop offset="1" stop-color="#27332F" stop-opacity="0"/>
</linearGradient>
<clipPath id="clip0_156_333">
<rect width="32" height="32" fill="white" transform="translate(0.5 0.5)"/>
</clipPath>
</defs>
</svg>
