<svg width="38" height="38" viewBox="0 0 38 38" fill="none" xmlns="http://www.w3.org/2000/svg">
<path d="M10 19H28M28 19L19.5 27.5M28 19L19.5 10.5" stroke="#2BBA8F" stroke-width="1.5" stroke-linecap="round" stroke-linejoin="round"/>
<path d="M38 19C38 29.4934 29.4934 38 19 38C8.50659 38 0 29.4934 0 19C0 8.50659 8.50659 0 19 0C29.4934 0 38 8.50659 38 19ZM1.9 19C1.9 28.4441 9.55593 36.1 19 36.1C28.4441 36.1 36.1 28.4441 36.1 19C36.1 9.55593 28.4441 1.9 19 1.9C9.55593 1.9 1.9 9.55593 1.9 19Z" fill="#2C2B2B"/>
<path d="M19 0C15.6715 -3.96923e-08 12.4014 0.874413 9.51704 2.53569C6.63273 4.19697 4.23545 6.58681 2.56522 9.46595C0.894996 12.3451 0.0104305 15.6125 9.16572e-05 18.941C-0.0102472 22.2695 0.854004 25.5423 2.50631 28.4318C4.15862 31.3212 6.54101 33.7259 9.41494 35.4051C12.2889 37.0842 15.5535 37.979 18.882 37.9996C22.2104 38.0203 25.4859 37.1662 28.3805 35.5229C31.2751 33.8796 33.6871 31.5047 35.3752 28.636L33.7377 27.6724C32.2184 30.2542 30.0476 32.3916 27.4424 33.8706C24.8373 35.3496 21.8894 36.1183 18.8938 36.0997C15.8982 36.0811 12.96 35.2758 10.3735 33.7646C7.78691 32.2533 5.64276 30.0891 4.15568 27.4886C2.6686 24.8881 1.89078 21.9425 1.90008 18.9469C1.90939 15.9512 2.7055 13.0106 4.2087 10.4194C5.71191 7.82813 7.86946 5.67727 10.4653 4.18212C13.0612 2.68697 16.0043 1.9 19 1.9V0Z" fill="#2BBA8F"/>
</svg>
