<svg width="38" height="38" viewBox="0 0 38 38" fill="none" xmlns="http://www.w3.org/2000/svg">
<path d="M10 19H28M28 19L19.5 27.5M28 19L19.5 10.5" stroke="#2BBA8F" stroke-width="1.5" stroke-linecap="round" stroke-linejoin="round"/>
<path d="M38 19C38 29.4934 29.4934 38 19 38C8.50659 38 0 29.4934 0 19C0 8.50659 8.50659 0 19 0C29.4934 0 38 8.50659 38 19ZM1.9 19C1.9 28.4441 9.55593 36.1 19 36.1C28.4441 36.1 36.1 28.4441 36.1 19C36.1 9.55593 28.4441 1.9 19 1.9C9.55593 1.9 1.9 9.55593 1.9 19Z" fill="#2C2B2B"/>
<path d="M19 0C15.4351 -4.25108e-08 11.9421 1.00292 8.92027 2.89413C5.8984 4.78534 3.46954 7.48856 1.91128 10.6948C0.353023 13.9011 -0.271776 17.4811 0.108291 21.0257C0.488358 24.5702 1.85796 27.9364 4.06057 30.7394L5.55451 29.5655C3.57216 27.0427 2.33952 24.0132 1.99746 20.8231C1.6554 17.633 2.21772 14.411 3.62015 11.5254C5.02259 8.6397 7.20856 6.20681 9.92824 4.50472C12.6479 2.80262 15.7916 1.9 19 1.9V0Z" fill="#2BBA8F"/>
</svg>
