<svg width="20" height="20" viewBox="0 0 20 20" fill="none" xmlns="http://www.w3.org/2000/svg">
<path fill-rule="evenodd" clip-rule="evenodd" d="M8.2868 2.70831H11.7135C13.2451 2.70831 14.4585 2.70831 15.4076 2.83581C16.3843 2.96748 17.1751 3.24415 17.7993 3.86748C18.4226 4.49165 18.6993 5.28248 18.831 6.25915C18.906 6.81998 18.9368 7.47248 18.9493 8.22831C18.9602 8.29166 18.9613 8.3563 18.9526 8.41998C18.9585 8.89165 18.9585 9.40165 18.9585 9.95331V10.0466C18.9585 11.5783 18.9585 12.7916 18.831 13.7408C18.6993 14.7175 18.4226 15.5083 17.7993 16.1325C17.1751 16.7558 16.3843 17.0325 15.4076 17.1641C14.4576 17.2916 13.2451 17.2916 11.7135 17.2916H8.2868C6.75513 17.2916 5.5418 17.2916 4.59263 17.1641C3.61596 17.0325 2.82513 16.7558 2.20096 16.1325C1.57763 15.5083 1.30096 14.7175 1.1693 13.7408C1.0418 12.7908 1.0418 11.5783 1.0418 10.0466V9.95331C1.0418 9.40165 1.0418 8.89165 1.04763 8.41998C1.0387 8.35634 1.03954 8.2917 1.05013 8.22831C1.06346 7.47248 1.0943 6.81998 1.1693 6.25915C1.30096 5.28248 1.57763 4.49165 2.20096 3.86748C2.82513 3.24415 3.61596 2.96748 4.59263 2.83581C5.54263 2.70831 6.75513 2.70831 8.2868 2.70831ZM2.29346 8.95831C2.2918 9.28165 2.2918 9.62831 2.2918 9.99998C2.2918 11.5891 2.29346 12.7175 2.40846 13.575C2.52096 14.4125 2.73263 14.8958 3.08513 15.2483C3.43763 15.6008 3.92096 15.8125 4.7593 15.925C5.61596 16.04 6.7443 16.0416 8.33346 16.0416H11.6668C13.256 16.0416 14.3851 16.04 15.2418 15.925C16.0793 15.8125 16.5626 15.6008 16.9151 15.2483C17.2676 14.8958 17.4793 14.4125 17.5918 13.5741C17.7068 12.7175 17.7085 11.5891 17.7085 9.99998C17.7085 9.62831 17.7085 9.28165 17.7068 8.95831H2.29346ZM17.6868 7.70831H2.31346C2.33013 7.21915 2.35846 6.79665 2.40846 6.42498C2.52096 5.58748 2.73263 5.10415 3.08513 4.75165C3.43763 4.39915 3.92096 4.18748 4.7593 4.07498C5.61596 3.95998 6.7443 3.95831 8.33346 3.95831H11.6668C13.256 3.95831 14.3851 3.95998 15.2418 4.07498C16.0793 4.18748 16.5626 4.39915 16.9151 4.75165C17.2676 5.10415 17.4793 5.58748 17.5918 6.42581C17.6418 6.79665 17.6701 7.21915 17.6868 7.70831ZM4.37513 13.3333C4.37513 13.1676 4.44098 13.0086 4.55819 12.8914C4.6754 12.7742 4.83437 12.7083 5.00013 12.7083H8.33346C8.49922 12.7083 8.65819 12.7742 8.7754 12.8914C8.89261 13.0086 8.95846 13.1676 8.95846 13.3333C8.95846 13.4991 8.89261 13.658 8.7754 13.7753C8.65819 13.8925 8.49922 13.9583 8.33346 13.9583H5.00013C4.83437 13.9583 4.6754 13.8925 4.55819 13.7753C4.44098 13.658 4.37513 13.4991 4.37513 13.3333ZM9.7918 13.3333C9.7918 13.1676 9.85764 13.0086 9.97485 12.8914C10.0921 12.7742 10.251 12.7083 10.4168 12.7083H11.6668C11.8326 12.7083 11.9915 12.7742 12.1087 12.8914C12.2259 13.0086 12.2918 13.1676 12.2918 13.3333C12.2918 13.4991 12.2259 13.658 12.1087 13.7753C11.9915 13.8925 11.8326 13.9583 11.6668 13.9583H10.4168C10.251 13.9583 10.0921 13.8925 9.97485 13.7753C9.85764 13.658 9.7918 13.4991 9.7918 13.3333Z" fill="#F0F0F0"/>
</svg>
