<svg width="32" height="32" viewBox="0 0 32 32" fill="none" xmlns="http://www.w3.org/2000/svg">
<rect width="32" height="32" rx="16" fill="#2C2B2B"/>
<path d="M16 9C12.1402 9 9 12.1402 9 16V18.9001C9 19.6169 9.6279 20.2 10.4 20.2H11.1C11.2857 20.2 11.4637 20.1263 11.595 19.995C11.7262 19.8637 11.8 19.6857 11.8 19.5V15.8999C11.8 15.7142 11.7262 15.5362 11.595 15.4049C11.4637 15.2736 11.2857 15.1999 11.1 15.1999H10.4644C10.8536 12.4909 13.1846 10.4 16 10.4C18.8154 10.4 21.1464 12.4909 21.5356 15.1999H20.9C20.7143 15.1999 20.5363 15.2736 20.405 15.4049C20.2737 15.5362 20.2 15.7142 20.2 15.8999V20.2C20.2 20.9721 19.5721 21.6 18.8 21.6H17.4V20.9H14.6V23H18.8C20.3442 23 21.6 21.7442 21.6 20.2C22.3721 20.2 23 19.6169 23 18.9001V16C23 12.1402 19.8598 9 16 9Z" fill="#F0F0F0"/>
</svg>
