<svg width="16" height="16" viewBox="0 0 16 16" fill="none" xmlns="http://www.w3.org/2000/svg">
<path d="M4.00033 14.6667C3.63366 14.6667 3.31966 14.536 3.05833 14.2747C2.79699 14.0134 2.66655 13.6996 2.66699 13.3334V6.66669C2.66699 6.30002 2.79766 5.98602 3.05899 5.72469C3.32033 5.46335 3.6341 5.33291 4.00033 5.33335H4.66699V4.00002C4.66699 3.0778 4.9921 2.29158 5.64233 1.64135C6.29255 0.991132 7.07855 0.666243 8.00033 0.666687C8.92255 0.666687 9.70877 0.991799 10.359 1.64202C11.0092 2.29224 11.3341 3.07824 11.3337 4.00002V5.33335H12.0003C12.367 5.33335 12.681 5.46402 12.9423 5.72535C13.2037 5.98669 13.3341 6.30047 13.3337 6.66669V13.3334C13.3337 13.7 13.203 14.014 12.9417 14.2754C12.6803 14.5367 12.3665 14.6671 12.0003 14.6667H4.00033ZM4.00033 13.3334H12.0003V6.66669H4.00033V13.3334ZM8.00033 11.3334C8.36699 11.3334 8.68099 11.2027 8.94233 10.9414C9.20366 10.68 9.3341 10.3662 9.33366 10C9.33366 9.63335 9.20299 9.31935 8.94166 9.05802C8.68033 8.79669 8.36655 8.66624 8.00033 8.66669C7.63366 8.66669 7.31966 8.79735 7.05833 9.05869C6.79699 9.32002 6.66655 9.6338 6.66699 10C6.66699 10.3667 6.79766 10.6807 7.05899 10.942C7.32033 11.2034 7.6341 11.3338 8.00033 11.3334ZM6.00033 5.33335H10.0003V4.00002C10.0003 3.44447 9.80588 2.97224 9.41699 2.58335C9.0281 2.19447 8.55588 2.00002 8.00033 2.00002C7.44477 2.00002 6.97255 2.19447 6.58366 2.58335C6.19477 2.97224 6.00033 3.44447 6.00033 4.00002V5.33335Z" fill="#F0F0F0"/>
</svg>
