<svg width="16" height="16" viewBox="0 0 16 16" fill="none" xmlns="http://www.w3.org/2000/svg">
<path d="M15.8542 0.145997C15.9234 0.215329 15.9707 0.303471 15.9903 0.399475C16.0098 0.495478 16.0008 0.595111 15.9642 0.685997L10.1452 15.233C10.0939 15.3611 10.0083 15.4726 9.89771 15.5552C9.78715 15.6377 9.65596 15.6882 9.51856 15.701C9.38116 15.7139 9.2429 15.6885 9.11897 15.6278C8.99505 15.5671 8.89027 15.4734 8.81618 15.357L5.63818 10.362L0.643176 7.184C0.526494 7.10998 0.432527 7.00517 0.371646 6.88112C0.310764 6.75708 0.285334 6.61863 0.298161 6.48105C0.310988 6.34347 0.361574 6.2121 0.444337 6.10145C0.5271 5.9908 0.638822 5.90517 0.767176 5.854L15.3142 0.0369972C15.4051 0.000409439 15.5047 -0.00867028 15.6007 0.0108859C15.6967 0.0304421 15.7848 0.0777723 15.8542 0.146997V0.145997ZM6.63618 10.07L9.39718 14.408L14.1302 2.576L6.63618 10.07ZM13.4232 1.869L1.59118 6.602L5.93018 9.362L13.4232 1.869Z" fill="#E77777"/>
</svg>
