<svg width="25" height="28" viewBox="0 0 25 28" fill="none" xmlns="http://www.w3.org/2000/svg">
<path d="M0.33325 10.8666C0.177694 10.7555 0.0830272 10.6168 0.0492494 10.4506C0.0154716 10.2844 0.0656941 10.112 0.199916 9.93328C1.57769 8.0444 3.30569 6.57773 5.38392 5.53328C7.46214 4.48884 9.67858 3.96662 12.0332 3.96662C14.3888 3.96662 16.611 4.4724 18.6999 5.48395C20.7888 6.49551 22.5333 7.9564 23.9333 9.86662C24.0666 10.0666 24.111 10.2444 24.0666 10.4C24.0221 10.5555 23.9333 10.6888 23.7999 10.8C23.6666 10.9111 23.511 10.9613 23.3333 10.9506C23.1555 10.94 22.9999 10.8453 22.8666 10.6666C21.6444 8.93328 20.0724 7.60573 18.1506 6.68395C16.2288 5.76217 14.1897 5.30084 12.0332 5.29995C9.87769 5.29995 7.85547 5.76128 5.96658 6.68395C4.07769 7.60662 2.51103 8.93417 1.26658 10.6666C1.13325 10.8666 0.977694 10.9777 0.799916 11C0.622138 11.0222 0.466583 10.9777 0.33325 10.8666ZM15.7999 27.3C13.4888 26.7222 11.5999 25.572 10.1333 23.8493C8.66658 22.1266 7.93325 20.0213 7.93325 17.5333C7.93325 16.4222 8.33325 15.4888 9.13325 14.7333C9.93325 13.9777 10.8999 13.6 12.0332 13.6C13.1666 13.6 14.1332 13.9777 14.9332 14.7333C15.7332 15.4888 16.1333 16.4222 16.1333 17.5333C16.1333 18.2666 16.411 18.8835 16.9666 19.384C17.5221 19.8844 18.1777 20.1342 18.9333 20.1333C19.6888 20.1333 20.3333 19.8835 20.8666 19.384C21.3999 18.8844 21.6666 18.2675 21.6666 17.5333C21.6666 14.9555 20.7221 12.7888 18.8333 11.0333C16.9444 9.27773 14.6888 8.39995 12.0666 8.39995C9.44436 8.39995 7.18881 9.27773 5.29992 11.0333C3.41103 12.7888 2.46658 14.9444 2.46658 17.5C2.46658 18.0333 2.5168 18.7 2.61725 19.5C2.71769 20.3 2.95636 21.2333 3.33325 22.3C3.39992 22.5 3.39458 22.6777 3.31725 22.8333C3.23992 22.9888 3.11192 23.1 2.93325 23.1666C2.75547 23.2333 2.58347 23.228 2.41725 23.1506C2.25103 23.0733 2.13414 22.9453 2.06658 22.7666C1.73325 21.9 1.49458 21.0391 1.35058 20.184C1.20658 19.3288 1.13414 18.4453 1.13325 17.5333C1.13325 14.5777 2.20569 12.1 4.35058 10.1C6.49547 8.09995 9.05636 7.09995 12.0332 7.09995C15.0332 7.09995 17.611 8.09995 19.7666 10.1C21.9221 12.1 22.9999 14.5777 22.9999 17.5333C22.9999 18.6444 22.6057 19.572 21.8173 20.316C21.0288 21.06 20.0675 21.4324 18.9333 21.4333C17.7999 21.4333 16.8279 21.0613 16.0172 20.3173C15.2066 19.5733 14.8008 18.6453 14.7999 17.5333C14.7999 16.8 14.5279 16.1831 13.9839 15.6826C13.4399 15.1822 12.7897 14.9324 12.0332 14.9333C11.2777 14.9333 10.6275 15.1835 10.0826 15.684C9.53769 16.1844 9.26569 16.8008 9.26658 17.5333C9.26658 19.6888 9.90569 21.4888 11.1839 22.9333C12.4621 24.3777 14.1119 25.3888 16.1333 25.9666C16.3333 26.0333 16.4666 26.1444 16.5332 26.3C16.5999 26.4555 16.611 26.6222 16.5666 26.8C16.5221 26.9555 16.4333 27.0888 16.2999 27.2C16.1666 27.3111 15.9999 27.3444 15.7999 27.3ZM4.66658 3.89995C4.48881 4.01106 4.31103 4.03906 4.13325 3.98395C3.95547 3.92884 3.82214 3.81195 3.73325 3.63328C3.64436 3.45551 3.62214 3.29462 3.66658 3.15062C3.71103 3.00662 3.82214 2.87862 3.99992 2.76662C5.24436 2.09995 6.54436 1.58884 7.89992 1.23328C9.25547 0.877729 10.6332 0.699951 12.0332 0.699951C13.4555 0.699951 14.8444 0.872396 16.1999 1.21728C17.5555 1.56217 18.8666 2.0564 20.1333 2.69995C20.3333 2.81106 20.4501 2.9444 20.4839 3.09995C20.5177 3.25551 20.5008 3.41106 20.4333 3.56662C20.3666 3.72217 20.2555 3.8444 20.0999 3.93328C19.9444 4.02217 19.7555 4.01106 19.5332 3.89995C18.3555 3.29995 17.1386 2.83906 15.8826 2.51728C14.6266 2.19551 13.3435 2.03417 12.0332 2.03328C10.7444 2.03328 9.47769 2.18351 8.23325 2.48395C6.98881 2.7844 5.79992 3.2564 4.66658 3.89995ZM8.59992 26.8333C7.28881 25.4555 6.28347 24.0502 5.58392 22.6173C4.88436 21.1844 4.53414 19.4897 4.53325 17.5333C4.53325 15.5111 5.26658 13.8053 6.73325 12.416C8.19992 11.0266 9.96658 10.3324 12.0332 10.3333C14.0999 10.3333 15.8777 11.028 17.3666 12.4173C18.8555 13.8066 19.5999 15.512 19.5999 17.5333C19.5999 17.7333 19.539 17.8946 19.4172 18.0173C19.2955 18.1399 19.1341 18.2008 18.9333 18.2C18.7555 18.2 18.5999 18.1391 18.4666 18.0173C18.3333 17.8955 18.2666 17.7342 18.2666 17.5333C18.2666 15.8666 17.6497 14.4724 16.4159 13.3506C15.1821 12.2288 13.7212 11.6675 12.0332 11.6666C10.3444 11.6666 8.89458 12.228 7.68392 13.3506C6.47325 14.4733 5.86747 15.8675 5.86658 17.5333C5.86658 19.3333 6.17769 20.8613 6.79992 22.1173C7.42214 23.3733 8.33325 24.6342 9.53325 25.9C9.66658 26.0333 9.73325 26.1888 9.73325 26.3666C9.73325 26.5444 9.66658 26.7 9.53325 26.8333C9.39992 26.9666 9.24436 27.0333 9.06658 27.0333C8.88881 27.0333 8.73325 26.9666 8.59992 26.8333ZM18.6666 24.5666C16.6888 24.5666 14.9719 23.9 13.5159 22.5666C12.0599 21.2333 11.3324 19.5555 11.3333 17.5333C11.3333 17.3555 11.3946 17.2 11.5172 17.0666C11.6399 16.9333 11.8008 16.8666 11.9999 16.8666C12.1999 16.8666 12.3612 16.9333 12.4839 17.0666C12.6066 17.2 12.6675 17.3555 12.6666 17.5333C12.6666 19.2 13.2666 20.5666 14.4666 21.6333C15.6666 22.7 17.0666 23.2333 18.6666 23.2333C18.7999 23.2333 18.9888 23.2222 19.2332 23.2C19.4777 23.1777 19.7332 23.1444 19.9999 23.1C20.1999 23.0555 20.3724 23.0835 20.5173 23.184C20.6621 23.2844 20.7564 23.4342 20.7999 23.6333C20.8444 23.8111 20.811 23.9666 20.6999 24.1C20.5888 24.2333 20.4444 24.3222 20.2666 24.3666C19.8666 24.4777 19.5168 24.5391 19.2173 24.5506C18.9177 24.5622 18.7341 24.5675 18.6666 24.5666Z" fill="#2BBA8F"/>
</svg>
