<svg width="327" height="340" viewBox="0 0 327 340" fill="none" xmlns="http://www.w3.org/2000/svg">
<rect width="327" height="340" rx="10" fill="#2C2B2B"/>
<path d="M182.395 276.572L180.006 275.684L177.615 274.796L178.325 271.287C177.076 270.47 175.957 269.455 175.022 268.267L171.368 269.086L170.338 266.848L169.308 264.61L172.415 262.606C172.131 261.146 172.106 259.676 172.321 258.248L169.13 256.367L170.064 254.09L170.996 251.815L174.681 252.489C175.538 251.299 176.604 250.234 177.85 249.343L176.991 245.865L179.341 244.884L181.69 243.903L183.795 246.862C184.654 246.709 185.516 246.635 186.372 246.635C187.044 246.635 187.713 246.682 188.372 246.771L190.347 243.733L192.737 244.621L195.127 245.511L194.419 249.019C195.666 249.837 196.786 250.85 197.72 252.038L201.374 251.219L202.404 253.457L203.434 255.695L200.327 257.699C200.611 259.159 200.637 260.63 200.422 262.059L203.612 263.94L202.68 266.215L201.746 268.491L198.061 267.817C197.204 269.006 196.139 270.072 194.892 270.962L195.751 274.44L193.402 275.421L191.052 276.403L188.947 273.445C188.089 273.596 187.227 273.67 186.371 273.67C185.698 273.67 185.031 273.625 184.37 273.534L182.395 276.572ZM186.367 250.983C185.076 250.983 183.764 251.232 182.506 251.758C177.638 253.791 175.422 259.198 177.557 263.834C179.14 267.273 182.671 269.322 186.376 269.322C187.666 269.322 188.979 269.073 190.237 268.548C195.105 266.514 197.321 261.109 195.187 256.472C193.603 253.033 190.072 250.983 186.367 250.983Z" fill="#2BBA8F"/>
<path d="M79.0143 150.448C79.0143 150.448 71.9495 139.324 55 142.209C55 142.209 66.4106 158.325 79.0143 150.448Z" fill="#2BBA8F"/>
<path d="M90.0471 153.385C90.0471 153.385 87.9425 131.086 59.4258 123.35C59.4258 123.35 64.2935 156.501 90.0471 153.385Z" fill="#2BBA8F"/>
<path d="M124.171 150.384C124.171 150.384 132.234 148.504 134.568 151.392C136.902 154.279 131.156 162.241 126.791 162.86C122.425 163.478 124.171 150.384 124.171 150.384Z" fill="#FE9F73"/>
<path d="M101.379 256.777C101.379 256.777 121.898 247.288 125.66 233.884C129.421 220.478 105.27 218.766 105.606 218.767C105.941 218.768 81.0768 225.041 79.379 228.869C77.6811 232.695 70.2148 248.639 73.2349 248.653C76.2549 248.668 101.379 256.777 101.379 256.777Z" fill="#F28478"/>
<path d="M119.533 136.404C119.527 136.375 119.52 136.347 119.513 136.318C119.282 135.354 118.328 134.707 117.296 134.811C117.265 134.814 117.235 134.818 117.204 134.822L117.174 134.824L72.0215 141.999L71.9917 142.005C71.9614 142.011 71.9312 142.018 71.9014 142.024C70.8893 142.244 70.2083 143.152 70.3183 144.134C70.321 144.164 70.3245 144.192 70.3289 144.222L70.3323 144.251L85.9947 233.662C86.1576 234.593 87.0813 235.221 88.057 235.066L133.729 227.809C134.705 227.653 135.364 226.775 135.202 225.845L119.539 136.433L119.533 136.404Z" fill="#201F1F"/>
<path d="M69.4561 143.822L72.7272 140.827L116.741 133.944L121.166 136.564C121.166 136.564 121.448 140.363 121.217 140.459C120.985 140.553 70.0164 149.233 69.8875 148.485C69.7585 147.736 69.4561 143.822 69.4561 143.822Z" fill="#F0F0F0"/>
<path d="M73.8447 145.822C73.7845 145.822 73.7255 145.814 73.6686 145.8C73.4146 145.738 73.2097 145.536 73.1638 145.274C73.1011 144.916 73.3553 144.578 73.7296 144.519C73.7681 144.513 73.8063 144.511 73.8439 144.511C74.1745 144.511 74.466 144.737 74.5222 145.058C74.5681 145.321 74.4436 145.573 74.2249 145.712C74.1467 145.761 74.0557 145.797 73.9563 145.813C73.9188 145.819 73.8816 145.822 73.8447 145.822Z" fill="#86C9D9"/>
<path d="M75.9452 145.488C75.885 145.488 75.8263 145.48 75.7703 145.466C75.5161 145.403 75.3124 145.203 75.2663 144.94C75.2038 144.583 75.457 144.245 75.8323 144.186C75.8706 144.179 75.9089 144.177 75.9466 144.177C76.2771 144.177 76.5685 144.403 76.6247 144.724C76.6708 144.987 76.5461 145.24 76.3274 145.378C76.2496 145.427 76.1583 145.463 76.0589 145.479C76.0208 145.485 75.9827 145.488 75.9452 145.488Z" fill="#86C9D9"/>
<path d="M78.0461 145.154C77.9857 145.154 77.9269 145.146 77.8708 145.132C77.6167 145.069 77.4128 144.869 77.3669 144.607C77.3044 144.249 77.5575 143.911 77.9327 143.852C77.9712 143.845 78.0094 143.843 78.047 143.843C78.3776 143.843 78.6691 144.069 78.7254 144.39C78.7713 144.653 78.6468 144.906 78.428 145.044C78.35 145.093 78.2589 145.129 78.1594 145.145C78.1214 145.151 78.0835 145.154 78.0461 145.154Z" fill="#86C9D9"/>
<path d="M115.895 133.034L72.6212 139.909C69.8369 140.352 67.9554 142.86 68.4201 145.513L83.9063 233.919C84.371 236.571 87.0056 238.363 89.7899 237.92L133.065 231.044C135.85 230.601 137.729 228.094 137.265 225.441L121.779 137.035C121.314 134.382 118.681 132.591 115.895 133.034ZM135.04 224.92C135.292 226.36 134.27 227.723 132.758 227.963L89.0304 234.91C87.5174 235.151 86.0857 234.179 85.8332 232.737L70.5048 145.232C70.2231 143.624 71.3635 142.103 73.0512 141.835L116.145 134.989C117.833 134.721 119.43 135.806 119.712 137.413L135.04 224.92Z" fill="#20111D"/>
<path d="M105.586 254.401L105.585 254.518V254.556L105.525 265.906L105.424 285.188C98.9585 283.65 93.4245 282.177 89.0996 280.959C81.7996 278.902 74.8809 275.762 68.6458 271.601C68.6132 271.581 68.5807 271.559 68.5481 271.537L69.3835 247.198C69.3835 247.198 64.1348 224.481 64.4985 219.05C64.8635 213.619 68.6197 201.174 70.3219 196.388C70.8226 194.981 71.1222 193.159 71.2955 191.287C71.3088 191.147 71.3209 191.007 71.3319 190.866L71.3332 190.86C71.4823 189.063 71.5198 187.247 71.5138 185.731C71.5138 185.683 71.5138 185.637 71.5126 185.588C71.5126 185.455 71.5113 185.326 71.5101 185.199C71.5101 185.166 71.5089 185.132 71.5089 185.098C71.4859 183.268 71.4046 182.012 71.4046 182.012C71.4374 181.702 71.4835 181.41 71.5392 181.137C71.5962 180.85 71.6666 180.584 71.7466 180.337C71.8071 180.15 71.8751 179.972 71.9478 179.808C72.4388 178.689 73.1918 178.063 74.0805 177.83C74.7388 177.656 75.4724 177.699 76.2301 177.918C78.9133 178.691 81.9044 181.672 82.9654 185.103C84.9453 191.504 83.1702 210.031 83.1702 210.031C83.1702 210.031 87.7593 214.446 90.6401 223.246C91.404 225.578 92.0478 228.219 92.4539 231.168C92.6079 232.289 92.6855 233.341 92.6929 234.329C92.705 235.469 92.6249 236.523 92.4746 237.494C92.2612 238.875 91.9023 240.091 91.4501 241.158C89.0409 246.855 83.9753 248.385 83.9753 248.385L84.3099 248.48L92.5704 250.779L105.152 254.279L105.584 254.399L105.586 254.401Z" fill="#FC8F5D"/>
<path d="M131.858 193.562L132.42 196.835C132.42 196.835 127.572 201.494 129.153 207.411C130.735 213.328 134.913 214.04 134.913 214.04C134.913 214.04 141.44 205.709 141.336 202.817C141.234 199.924 141.209 194.85 131.858 193.562Z" fill="#FE9F73"/>
<path d="M135.744 212.943C135.744 212.943 138.362 210.417 140.792 204.902C140.388 204.663 139.637 204.457 139.157 204.321C137.681 203.904 136.742 204.193 135.943 205.179L132.939 209.367C132.939 209.367 132.361 210.436 133.631 211.671C134.117 212.146 135.744 212.943 135.744 212.943Z" fill="#F78A5E"/>
<path d="M134.998 214.264L134.861 214.231C132.765 213.737 131.467 212.198 131.413 212.133C131.277 211.98 127.969 208.221 128.629 203.846C129.286 199.491 133.12 195.946 133.283 195.797L133.57 196.08C133.53 196.117 129.674 199.684 129.038 203.902C128.405 208.098 131.699 211.846 131.733 211.883C131.75 211.903 132.949 213.319 134.826 213.816L138.55 208.809C142.447 203.451 140.65 199.258 140.631 199.217L141.011 199.062C141.032 199.107 141.507 200.186 141.483 201.962C141.461 203.592 140.992 206.141 138.888 209.035L134.998 214.264Z" fill="black"/>
<path d="M135.643 215.86L136.083 218.418C136.083 218.418 132.294 222.058 133.53 226.681C134.766 231.305 138.031 231.862 138.031 231.862C138.031 231.862 143.13 225.352 143.05 223.092C142.97 220.832 142.951 216.867 135.643 215.86Z" fill="#FE9F73"/>
<path d="M138.682 231.005C138.682 231.005 140.726 229.031 142.625 224.722C142.309 224.535 141.722 224.373 141.347 224.267C140.193 223.941 139.46 224.168 138.837 224.938L136.489 228.21C136.489 228.21 136.038 229.045 137.029 230.011C137.409 230.382 138.682 231.005 138.682 231.005Z" fill="#F78A5E"/>
<path d="M138.099 232.036L137.991 232.012C136.354 231.625 135.34 230.422 135.298 230.372C135.192 230.253 132.606 227.314 133.122 223.896C133.635 220.494 136.631 217.722 136.759 217.606L136.982 217.828C136.952 217.856 133.94 220.644 133.441 223.94C132.946 227.218 135.522 230.146 135.548 230.176C135.56 230.192 136.496 231.299 137.964 231.686L140.874 227.775C143.919 223.587 142.515 220.311 142.5 220.279L142.798 220.157C142.86 220.297 144.291 223.616 141.138 227.951L138.099 232.036Z" fill="black"/>
<path d="M91.6447 240.632C91.6447 240.632 88.3742 248.686 92.5621 250.776C96.7499 252.866 82.4762 253.979 82.4782 253.585C82.4803 253.192 72.6161 241.525 75.1005 240.946C77.5849 240.368 85.3536 237.648 87.1019 239.428C88.8501 241.209 91.6447 240.632 91.6447 240.632Z" fill="#FE9F73"/>
<path d="M128.554 174.182L129.117 177.456C129.117 177.456 124.269 182.115 125.85 188.032C127.433 193.948 131.611 194.66 131.611 194.66C131.611 194.66 138.136 186.329 138.034 183.437C137.931 180.544 137.906 175.47 128.554 174.182Z" fill="#FE9F73"/>
<path d="M132.442 193.564C132.442 193.564 135.058 191.037 137.489 185.523C137.084 185.283 136.334 185.078 135.853 184.942C134.377 184.525 133.438 184.813 132.64 185.8L129.636 189.987C129.636 189.987 129.059 191.057 130.327 192.292C130.815 192.767 132.442 193.564 132.442 193.564Z" fill="#F78A5E"/>
<path d="M105.733 265.906L105.319 265.905L105.38 254.4L105.793 254.401L105.733 265.906Z" fill="black"/>
<path d="M104.501 254.998L104.334 254.636C111.36 251.685 117.887 246.006 120.979 241.979C123.713 238.417 124.886 235.785 124.897 235.758L125.279 235.911C125.267 235.937 124.078 238.61 121.313 242.211C118.19 246.279 111.596 252.016 104.501 254.998Z" fill="black"/>
<path d="M76.0306 180.941C75.6188 179.831 72.6411 179.682 71.7661 179.831C71.2012 179.927 71.7925 190.384 71.3329 190.86C71.3329 190.86 71.2497 190.992 72.6949 191.04C74.2875 191.092 75.3935 190.452 75.3935 190.452C75.3935 190.452 76.4425 182.051 76.0306 180.941Z" fill="#F78A5E"/>
<path d="M131.696 194.883L131.56 194.852C129.677 194.427 128.18 192.829 128.118 192.761C127.975 192.601 124.666 188.842 125.326 184.467C125.984 180.112 129.818 176.567 129.98 176.418L130.267 176.701C130.227 176.737 126.372 180.305 125.735 184.522C125.102 188.719 128.398 192.466 128.43 192.504C128.443 192.516 129.828 193.995 131.522 194.436L135.247 189.43C139.143 184.073 137.348 179.879 137.329 179.838L137.709 179.682C137.73 179.728 138.204 180.807 138.18 182.583C138.158 184.213 137.69 186.763 135.585 189.656L131.696 194.883Z" fill="black"/>
<path d="M128.911 177.488L122.376 141.635L122.784 141.571L129.319 177.424L128.911 177.488Z" fill="black"/>
<path d="M133.685 157.604L133.347 157.376C133.377 157.338 136.211 153.478 134.132 151.223C132.022 148.937 124.574 150.499 124.499 150.515L124.408 150.13C124.724 150.063 132.173 148.502 134.443 150.962C136.739 153.452 133.811 157.436 133.685 157.604Z" fill="black"/>
<path d="M77.6723 244.116C77.6117 244.158 77.5304 244.168 77.4573 244.138C74.9977 243.108 72.6969 239.67 72.6001 239.524C72.5357 239.428 72.5665 239.3 72.6679 239.238C72.7697 239.177 72.9044 239.205 72.9687 239.302C72.9918 239.337 75.2958 242.779 77.6329 243.758C77.7432 243.804 77.7932 243.926 77.7447 244.031C77.7284 244.067 77.703 244.096 77.6723 244.116Z" fill="#000100"/>
<path d="M80.6479 243.683C80.6004 243.715 80.5398 243.729 80.4782 243.718C77.8431 243.217 74.8175 240.333 74.6902 240.21C74.6054 240.128 74.6059 239.997 74.6916 239.917C74.777 239.836 74.9151 239.837 74.9999 239.918C75.0301 239.947 78.0595 242.835 80.5635 243.31C80.6816 243.332 80.7582 243.442 80.7346 243.555C80.7234 243.608 80.6912 243.653 80.6479 243.683Z" fill="#000100"/>
<path d="M84.0375 248.573L83.9123 248.198C83.938 248.19 86.505 247.39 88.8017 244.907C90.9208 242.616 93.2389 238.377 92.2486 231.194C91.2523 223.964 88.7971 218.634 86.913 215.435C84.871 211.967 83.0408 210.188 83.0225 210.171L82.9549 210.105L82.9636 210.014C82.9813 209.829 84.7128 191.452 82.7661 185.158C81.6008 181.39 77.8819 177.939 74.9638 177.919H74.957C73.5144 177.913 72.4724 178.769 71.9434 180.396C71.7886 180.873 71.677 181.418 71.6115 182.016C71.6307 182.33 71.9033 186.978 71.5014 191.304C71.3038 193.44 70.9728 195.172 70.5174 196.451C68.9595 200.832 65.0741 213.561 64.7047 219.064C64.3462 224.404 69.5331 246.928 69.5854 247.155L69.1816 247.24C68.967 246.311 63.9297 224.434 64.2921 219.039C64.664 213.499 68.5626 200.72 70.1257 196.325C70.5705 195.075 70.8948 193.374 71.0895 191.269C71.5007 186.842 71.2008 182.072 71.1978 182.024L71.1967 182.007L71.1985 181.992C71.2664 181.361 71.3841 180.785 71.5483 180.279C72.2912 177.994 73.8113 177.521 74.9589 177.526H74.9666C76.4359 177.536 78.1778 178.358 79.7456 179.783C81.3511 181.244 82.5647 183.113 83.1629 185.047C85.0823 191.252 83.5304 208.4 83.3839 209.961C83.7363 210.318 85.418 212.096 87.2646 215.227C89.1702 218.459 91.6526 223.843 92.6585 231.143C93.1049 234.38 92.9322 237.309 92.1455 239.85C91.5142 241.89 90.4884 243.684 89.0968 245.184C86.7239 247.741 84.1461 248.541 84.0375 248.573Z" fill="black"/>
<path d="M198.125 156.159C198.125 156.159 189.839 155.699 188.091 158.94C186.343 162.181 193.504 169.024 197.915 168.881C202.327 168.739 198.125 156.159 198.125 156.159Z" fill="#FE9F73"/>
<path d="M240.714 256.885C240.714 256.885 218.734 251.08 212.492 238.542C206.251 226.006 229.681 220.168 229.35 220.226C229.02 220.285 254.666 222.179 257.061 225.651C259.457 229.124 269.824 243.521 266.855 244.054C263.888 244.587 240.714 256.885 240.714 256.885Z" fill="#F28478"/>
<path d="M200.036 141.612C200.036 141.583 200.037 141.554 200.038 141.524C200.083 140.537 200.899 139.735 201.933 139.662C201.964 139.659 201.995 139.656 202.025 139.655L202.057 139.654L247.827 138.944L247.857 138.946C247.888 138.946 247.919 138.947 247.949 138.948C248.986 138.991 249.829 139.766 249.906 140.752C249.909 140.781 249.912 140.81 249.913 140.84L249.915 140.868L251.464 231.504C251.479 232.447 250.691 233.223 249.701 233.239L203.404 233.956C202.415 233.972 201.6 233.221 201.584 232.277L200.034 141.642L200.036 141.612Z" fill="#F0F0F0"/>
<path d="M250.697 140.296L246.912 137.913L202.317 138.713L198.461 142.051C198.461 142.051 198.904 145.836 199.15 145.891C199.396 145.944 251.173 145.715 251.158 144.956C251.143 144.198 250.697 140.296 250.697 140.296Z" fill="#2D2727"/>
<path d="M246.634 143.029C246.538 143.029 246.445 143.009 246.362 142.974C246.12 142.876 245.95 142.649 245.946 142.383C245.94 142.021 246.243 141.722 246.623 141.717C246.627 141.717 246.631 141.717 246.634 141.717C247.009 141.717 247.316 142.003 247.323 142.362C247.327 142.629 247.164 142.86 246.926 142.966C246.841 143.004 246.746 143.027 246.645 143.029C246.642 143.029 246.638 143.029 246.634 143.029Z" fill="#F0F0F0"/>
<path d="M244.506 143.061C244.409 143.061 244.317 143.043 244.234 143.008C243.992 142.909 243.822 142.683 243.816 142.416C243.811 142.054 244.114 141.756 244.495 141.75C244.499 141.75 244.501 141.75 244.506 141.75C244.881 141.75 245.188 142.036 245.195 142.395C245.199 142.661 245.036 142.893 244.798 142.999C244.714 143.037 244.617 143.059 244.516 143.061C244.512 143.061 244.51 143.061 244.506 143.061Z" fill="#F0F0F0"/>
<path d="M242.377 143.095C242.28 143.095 242.188 143.075 242.103 143.04C241.863 142.942 241.693 142.715 241.688 142.449C241.682 142.088 241.985 141.789 242.366 141.783C242.369 141.783 242.373 141.783 242.377 141.783C242.752 141.783 243.059 142.07 243.064 142.428C243.07 142.695 242.907 142.926 242.669 143.033C242.585 143.07 242.488 143.093 242.388 143.095C242.383 143.095 242.381 143.095 242.377 143.095Z" fill="#F0F0F0"/>
<path d="M197.946 142.619L199.476 232.235C199.523 234.924 201.848 237.068 204.671 237.024L248.539 236.344C251.36 236.3 253.612 234.086 253.566 231.397L252.034 141.781C251.99 139.092 249.663 136.948 246.841 136.992L202.974 137.672C200.151 137.716 197.9 139.93 197.946 142.619ZM200.051 142.636C200.023 141.005 201.389 139.664 203.099 139.637L246.783 138.96C248.494 138.934 249.903 140.232 249.932 141.864L251.447 230.566C251.472 232.027 250.248 233.23 248.714 233.253L204.389 233.941C202.855 233.964 201.591 232.8 201.567 231.339L200.051 142.636Z" fill="#20111D"/>
<path d="M272 271.734C261.533 280.181 249.084 285.948 235.623 289.698L235.645 272.491L235.652 266.573L236.157 255.422V255.421L236.15 255.387L236.129 255.271L236.255 255.21L236.531 255.077L248.247 249.466H248.25L255.932 245.786L256.243 245.637C256.243 245.637 250.952 245.002 247.506 239.789L247.497 239.775L247.49 239.764C246.854 238.801 246.283 237.684 245.818 236.386C245.487 235.456 245.208 234.435 245.005 233.313L245.004 233.312C244.825 232.339 244.701 231.292 244.64 230.162C244.547 228.426 244.554 226.781 244.636 225.229C244.696 224.125 244.793 223.067 244.923 222.059V222.058C245.076 220.842 245.275 219.699 245.504 218.629C246.136 215.671 246.995 213.272 247.778 211.491C248.844 209.06 249.764 207.776 249.764 207.776C249.764 207.776 248.651 203.983 247.521 199.242C247.428 198.855 247.335 198.462 247.244 198.065C246.014 192.738 244.87 186.557 245.239 183.223C245.631 179.664 248.007 176.218 250.499 174.996C251.203 174.651 251.917 174.484 252.598 174.539C253.517 174.617 254.376 175.104 255.07 176.12C255.173 176.27 255.273 176.432 255.369 176.605C255.493 176.833 255.611 177.081 255.72 177.348L255.723 177.352C255.831 177.614 255.931 177.893 256.023 178.194C256.023 178.194 256.193 179.535 256.541 181.445C256.558 181.536 256.575 181.629 256.592 181.724C256.609 181.81 256.625 181.898 256.641 181.985C256.921 183.453 257.295 185.186 257.771 186.883V186.885L257.772 186.89L257.774 186.891C257.809 187.027 257.85 187.163 257.888 187.298C258.414 189.109 259.055 190.85 259.812 192.145C262.395 196.561 268.449 208.156 269.838 213.437C271.227 218.714 270.369 241.959 270.369 241.959V241.96L272 271.734Z" fill="#FC8F5D"/>
<path d="M198.753 199.95L198.819 203.266C198.819 203.266 204.471 207.015 204.037 213.106C203.604 219.198 199.629 220.618 199.629 220.618C199.629 220.618 191.631 213.545 191.183 210.683C190.735 207.821 189.798 202.826 198.753 199.95Z" fill="#FE9F73"/>
<path d="M198.603 219.682C198.603 219.682 195.551 217.647 192.113 212.64C192.465 212.336 193.165 212.005 193.612 211.787C194.985 211.123 195.962 211.246 196.936 212.08L200.684 215.681C200.684 215.681 201.455 216.634 200.441 218.067C200.052 218.618 198.603 219.682 198.603 219.682Z" fill="#F78A5E"/>
<path d="M199.586 220.853L194.771 216.38C192.15 213.895 191.207 211.468 190.877 209.869C190.517 208.125 190.779 206.982 190.79 206.935L191.194 207.021C191.183 207.065 190.211 211.499 195.062 216.099L199.672 220.381C201.424 219.571 202.335 217.971 202.343 217.954C202.373 217.906 204.902 213.654 203.485 209.636C202.059 205.597 197.59 202.751 197.545 202.722L197.772 202.394C197.961 202.513 202.404 205.341 203.876 209.511C205.355 213.699 202.815 217.966 202.706 218.146C202.668 218.213 201.682 219.95 199.716 220.797L199.586 220.853Z" fill="black"/>
<path d="M199.258 222.533L199.309 225.124C199.309 225.124 203.726 228.053 203.387 232.813C203.048 237.573 199.943 238.682 199.943 238.682C199.943 238.682 193.692 233.156 193.342 230.919C192.993 228.682 192.26 224.78 199.258 222.533Z" fill="#FE9F73"/>
<path d="M199.14 237.952C199.14 237.952 196.755 236.361 194.069 232.449C194.344 232.211 194.892 231.952 195.241 231.783C196.313 231.264 197.077 231.359 197.837 232.011L200.766 234.825C200.766 234.825 201.368 235.569 200.577 236.69C200.273 237.12 199.14 237.952 199.14 237.952Z" fill="#F78A5E"/>
<path d="M199.908 238.866L196.146 235.371C192.221 231.648 192.999 228.138 193.035 227.991L193.35 228.059C193.342 228.094 192.582 231.557 196.372 235.152L199.975 238.498C201.347 237.863 202.056 236.615 202.062 236.602C202.086 236.563 204.062 233.242 202.954 230.101C201.839 226.945 198.348 224.721 198.312 224.699L198.49 224.442C198.637 224.535 202.11 226.745 203.26 230.003C204.416 233.277 202.431 236.611 202.345 236.751C202.315 236.804 201.546 238.16 200.009 238.823L199.908 238.866Z" fill="black"/>
<path d="M247.227 239.331C247.227 239.331 251.971 246.69 248.249 249.465C244.526 252.242 258.776 250.881 258.699 250.495C258.622 250.108 266.112 236.937 263.558 236.795C261.006 236.652 252.849 235.313 251.467 237.366C250.085 239.417 247.227 239.331 247.227 239.331Z" fill="#FE9F73"/>
<path d="M198.328 180.322L198.394 183.638C198.394 183.638 204.046 187.386 203.612 193.477C203.179 199.569 199.205 200.989 199.205 200.989C199.205 200.989 191.206 193.916 190.759 191.054C190.31 188.192 189.374 183.197 198.328 180.322Z" fill="#FE9F73"/>
<path d="M198.179 200.053C198.179 200.053 195.126 198.018 191.688 193.011C192.041 192.707 192.74 192.376 193.188 192.16C194.56 191.494 195.538 191.617 196.511 192.451L200.259 196.052C200.259 196.052 201.03 197.005 200.018 198.438C199.627 198.989 198.179 200.053 198.179 200.053Z" fill="#F78A5E"/>
<path d="M235.851 272.496L235.438 272.486L235.92 255.266L236.335 255.276L235.851 272.496Z" fill="black"/>
<path d="M237.306 255.671C229.762 253.959 222.189 249.451 218.347 245.987C214.943 242.919 213.267 240.496 213.251 240.471L213.598 240.256C213.614 240.28 215.267 242.668 218.631 245.701C222.435 249.13 229.932 253.593 237.402 255.287L237.306 255.671Z" fill="black"/>
<path d="M251.267 177.936C251.463 176.772 254.363 176.115 255.252 176.111C255.826 176.108 257.227 186.494 257.769 186.885C257.769 186.885 257.875 186.999 256.463 187.294C254.907 187.62 253.697 187.181 253.697 187.181C253.697 187.181 251.073 179.099 251.267 177.936Z" fill="#F78A5E"/>
<path d="M199.159 201.222L194.345 196.751C191.725 194.266 190.781 191.838 190.451 190.24C190.091 188.496 190.353 187.353 190.364 187.305L190.768 187.393C190.757 187.436 189.785 191.869 194.636 196.471L199.246 200.753C200.83 200.027 201.912 198.334 201.923 198.317C201.947 198.277 204.476 194.025 203.059 190.007C201.633 185.968 197.164 183.122 197.119 183.093L197.346 182.764C197.535 182.883 201.978 185.712 203.45 189.881C204.929 194.071 202.389 198.337 202.28 198.517C202.228 198.597 201.061 200.427 199.287 201.169L199.159 201.222Z" fill="black"/>
<path d="M198.331 183.642L197.863 147.277L198.134 147.269L198.601 183.634L198.331 183.642Z" fill="black"/>
<path d="M190.137 164.898C189.981 164.753 186.346 161.339 188.132 158.496C189.898 155.686 197.52 155.94 197.843 155.951L197.827 156.346C197.751 156.343 190.127 156.087 188.487 158.698C186.869 161.274 190.388 164.583 190.425 164.615L190.137 164.898Z" fill="black"/>
<path d="M261.633 240.355C261.701 240.384 261.782 240.382 261.848 240.339C264.072 238.902 265.683 235.126 265.751 234.966C265.796 234.86 265.742 234.739 265.63 234.695C265.517 234.653 265.391 234.704 265.346 234.811C265.33 234.849 263.716 238.63 261.603 239.995C261.504 240.06 261.478 240.189 261.546 240.283C261.568 240.316 261.599 240.339 261.633 240.355Z" fill="#000100"/>
<path d="M258.621 240.44C258.674 240.463 258.737 240.467 258.795 240.445C261.292 239.499 263.721 236.142 263.823 236C263.891 235.905 263.865 235.776 263.766 235.711C263.666 235.647 263.531 235.671 263.463 235.766C263.438 235.799 261.007 239.16 258.633 240.059C258.522 240.101 258.468 240.223 258.511 240.329C258.533 240.379 258.574 240.418 258.621 240.44Z" fill="#000100"/>
<path d="M256.216 245.833C256.103 245.82 253.416 245.477 250.597 243.369C248.945 242.133 247.595 240.545 246.588 238.649C245.332 236.284 244.608 233.432 244.432 230.172C244.038 222.819 245.458 217.096 246.72 213.591C247.942 210.191 249.259 208.155 249.537 207.742C249.098 206.233 244.319 189.634 245.032 183.201C245.253 181.196 246.092 179.148 247.394 177.436C248.666 175.765 250.224 174.656 251.667 174.393C252.795 174.189 254.384 174.391 255.55 176.513C255.809 176.983 256.034 177.53 256.22 178.138L256.227 178.169C256.233 178.217 256.842 182.96 258.087 187.245C258.676 189.281 259.318 190.897 259.992 192.051C262.364 196.105 268.622 208.002 270.038 213.387C271.417 218.634 270.61 241.016 270.576 241.966L270.161 241.953C270.171 241.72 271.001 218.675 269.635 213.483C268.229 208.134 261.994 196.284 259.632 192.242C258.941 191.062 258.286 189.415 257.688 187.349C256.472 183.163 255.859 178.546 255.818 178.233C255.64 177.656 255.427 177.139 255.185 176.696C254.354 175.185 253.165 174.523 251.745 174.78C248.878 175.302 245.874 179.334 245.442 183.242C244.722 189.766 249.908 207.544 249.961 207.723L249.987 207.811L249.933 207.887C249.918 207.907 248.455 209.973 247.104 213.734C245.858 217.205 244.454 222.87 244.845 230.152C245.234 237.399 248.326 241.171 250.853 243.06C253.582 245.1 256.242 245.439 256.268 245.442L256.216 245.833Z" fill="black"/>
<g filter="url(#filter0_b_42_23)">
<path d="M152.426 195.867L92.981 207.451C91.879 207.666 90.8026 206.989 90.577 205.939L83.2322 171.754C83.0067 170.704 83.7173 169.679 84.8196 169.464L144.264 157.88C145.366 157.665 146.443 158.342 146.668 159.392L154.013 193.577C154.239 194.627 153.528 195.652 152.426 195.867Z" fill="url(#paint0_linear_42_23)"/>
</g>
<path d="M118.607 196.399C111.9 196.399 105.894 191.919 104.497 185.418C102.9 177.988 107.93 170.734 115.731 169.213C116.706 169.023 117.679 168.932 118.637 168.932C125.343 168.932 131.349 173.412 132.747 179.913C134.342 187.343 129.313 194.597 121.512 196.118C120.537 196.308 119.564 196.399 118.607 196.399Z" fill="#F28478"/>
<path d="M93.91 192.948C93.8673 192.749 93.8127 192.583 93.7462 192.45C93.6797 192.316 93.6042 192.213 93.5192 192.136C93.4343 192.061 93.3403 192.012 93.2375 191.99C93.1347 191.967 93.0254 191.967 92.91 191.989C92.7945 192.012 92.6942 192.052 92.6088 192.112C92.5238 192.171 92.4576 192.252 92.4105 192.353C92.3635 192.453 92.3369 192.578 92.3308 192.725C92.3246 192.873 92.3429 193.046 92.3855 193.244L92.5227 193.883C92.5653 194.082 92.6199 194.248 92.6863 194.381C92.7528 194.514 92.8285 194.618 92.9134 194.693C92.9984 194.769 93.0923 194.818 93.1951 194.84C93.2981 194.864 93.4071 194.864 93.5226 194.84C93.6381 194.818 93.7386 194.777 93.8237 194.717C93.9089 194.659 93.9751 194.579 94.0221 194.478C94.0691 194.376 94.0956 194.251 94.1019 194.105C94.108 193.958 94.0898 193.784 94.0471 193.586L93.91 192.948ZM94.5587 194.185C94.5424 194.382 94.494 194.551 94.4136 194.689C94.333 194.829 94.2242 194.94 94.0871 195.024C93.9499 195.108 93.7871 195.168 93.5983 195.206C93.4097 195.242 93.2341 195.248 93.0716 195.222C92.9092 195.196 92.7623 195.134 92.631 195.037C92.4996 194.939 92.3859 194.803 92.2896 194.628C92.1933 194.453 92.1172 194.235 92.061 193.973L91.9238 193.335C91.8677 193.072 91.8476 192.843 91.8639 192.646C91.8802 192.45 91.9286 192.281 92.0092 192.143C92.0898 192.004 92.1993 191.892 92.3381 191.808C92.4769 191.723 92.6406 191.663 92.8293 191.626C93.018 191.589 93.1927 191.584 93.3535 191.61C93.5143 191.635 93.6603 191.698 93.7917 191.796C93.923 191.893 94.0368 192.029 94.133 192.204C94.2293 192.38 94.3055 192.597 94.3618 192.859L94.4989 193.498C94.5552 193.76 94.575 193.989 94.5587 194.185Z" fill="#F0F0F0"/>
<path d="M96.9147 192.362C96.8721 192.164 96.8176 191.998 96.7511 191.864C96.6846 191.731 96.6089 191.626 96.5241 191.551C96.439 191.476 96.3451 191.427 96.2424 191.404C96.1395 191.382 96.0303 191.382 95.9148 191.404C95.7993 191.427 95.699 191.467 95.6137 191.527C95.5285 191.586 95.4623 191.666 95.4154 191.767C95.3683 191.868 95.3418 191.993 95.3355 192.14C95.3294 192.288 95.3478 192.46 95.3904 192.659L95.5276 193.297C95.5702 193.496 95.6248 193.662 95.6912 193.795C95.7577 193.928 95.8332 194.033 95.9183 194.108C96.0033 194.183 96.0972 194.232 96.2 194.255C96.3028 194.277 96.412 194.277 96.5275 194.255C96.6429 194.233 96.7434 194.192 96.8286 194.132C96.9138 194.073 96.9798 193.993 97.027 193.892C97.0739 193.791 97.1005 193.666 97.1067 193.519C97.1128 193.373 97.0946 193.199 97.0519 193L96.9147 192.362ZM97.5636 193.6C97.5473 193.797 97.4988 193.965 97.4183 194.104C97.3379 194.242 97.2291 194.354 97.0918 194.439C96.9548 194.523 96.792 194.583 96.6032 194.62C96.4146 194.657 96.239 194.662 96.0765 194.636C95.914 194.61 95.7672 194.549 95.6359 194.451C95.5045 194.354 95.3907 194.218 95.2945 194.042C95.1982 193.867 95.1221 193.65 95.0659 193.387L94.9287 192.749C94.8724 192.487 94.8525 192.258 94.8688 192.061C94.8851 191.864 94.9335 191.696 95.0141 191.558C95.0945 191.418 95.2042 191.307 95.343 191.222C95.4818 191.138 95.6454 191.077 95.8341 191.04C96.0228 191.004 96.1975 190.999 96.3583 191.024C96.5192 191.05 96.6652 191.112 96.7966 191.209C96.9279 191.308 97.0417 191.444 97.1379 191.619C97.2342 191.793 97.3104 192.012 97.3665 192.274L97.5037 192.912C97.5599 193.174 97.5799 193.404 97.5636 193.6Z" fill="#F0F0F0"/>
<path d="M100.125 191.085C100.165 191.271 100.15 191.442 100.08 191.599C100.01 191.756 99.8744 191.93 99.6739 192.125L99.262 192.524C99.1415 192.64 99.0448 192.746 98.9718 192.84C98.8988 192.935 98.845 193.027 98.8106 193.115C98.7759 193.204 98.7569 193.292 98.7534 193.38C98.7497 193.468 98.7591 193.564 98.7813 193.667L98.8027 193.767L100.476 193.441C100.502 193.436 100.527 193.438 100.55 193.449C100.573 193.459 100.587 193.477 100.593 193.502L100.637 193.71C100.643 193.735 100.637 193.758 100.621 193.778C100.604 193.797 100.583 193.81 100.556 193.815L98.5888 194.198C98.5625 194.203 98.5378 194.198 98.5145 194.185C98.4912 194.172 98.4769 194.153 98.4715 194.127L98.3894 193.745C98.3366 193.499 98.3471 193.262 98.4209 193.036C98.4948 192.808 98.6492 192.58 98.8842 192.355L99.3182 191.936C99.4068 191.849 99.479 191.775 99.5346 191.712C99.5902 191.648 99.6318 191.589 99.6595 191.532C99.6871 191.476 99.7027 191.419 99.7061 191.363C99.7097 191.306 99.704 191.244 99.689 191.174C99.6526 191.005 99.5689 190.892 99.4381 190.838C99.3074 190.782 99.1078 190.781 98.8397 190.833C98.7107 190.859 98.5682 190.893 98.4123 190.939C98.2566 190.984 98.1111 191.029 97.9762 191.076L97.9562 191.08C97.9033 191.09 97.8707 191.067 97.8585 191.01L97.8225 190.842C97.817 190.816 97.8219 190.795 97.8374 190.78C97.8529 190.763 97.8732 190.748 97.8983 190.737C98.0172 190.681 98.1535 190.629 98.3073 190.583C98.4611 190.536 98.6125 190.499 98.7615 190.469C99.1653 190.39 99.4778 190.4 99.6989 190.499C99.9201 190.597 100.062 190.793 100.125 191.085Z" fill="#F0F0F0"/>
<path d="M102.919 193.325C102.906 193.347 102.887 193.361 102.86 193.366L102.587 193.419C102.561 193.424 102.537 193.419 102.517 193.404C102.496 193.388 102.483 193.367 102.478 193.342L101.839 190.367L101.255 190.757C101.234 190.771 101.213 190.78 101.193 190.784C101.164 190.79 101.145 190.775 101.138 190.741L101.086 190.499C101.082 190.483 101.084 190.47 101.091 190.461C101.097 190.452 101.108 190.441 101.122 190.428L101.799 189.942C101.834 189.915 101.867 189.898 101.897 189.893L102.1 189.853C102.127 189.848 102.151 189.853 102.173 189.866C102.195 189.88 102.209 189.9 102.214 189.924L102.929 193.254C102.935 193.279 102.931 193.303 102.919 193.325Z" fill="#F0F0F0"/>
<path d="M108.621 190.081C108.578 189.881 108.524 189.716 108.457 189.582C108.391 189.449 108.315 189.345 108.23 189.269C108.145 189.194 108.051 189.145 107.948 189.123C107.846 189.099 107.736 189.099 107.621 189.123C107.505 189.145 107.405 189.186 107.32 189.244C107.235 189.304 107.169 189.384 107.121 189.485C107.074 189.587 107.048 189.71 107.042 189.858C107.035 190.006 107.054 190.179 107.096 190.377L107.234 191.015C107.276 191.215 107.331 191.38 107.397 191.514C107.464 191.647 107.539 191.75 107.624 191.827C107.709 191.902 107.803 191.951 107.906 191.973C108.009 191.996 108.118 191.996 108.234 191.973C108.349 191.951 108.449 191.911 108.535 191.851C108.62 191.792 108.686 191.712 108.733 191.611C108.78 191.51 108.807 191.385 108.813 191.238C108.819 191.09 108.801 190.917 108.758 190.719L108.621 190.081ZM109.27 191.318C109.253 191.516 109.205 191.683 109.124 191.823C109.044 191.961 108.935 192.073 108.798 192.157C108.661 192.241 108.498 192.302 108.309 192.338C108.121 192.376 107.945 192.381 107.783 192.355C107.62 192.329 107.473 192.267 107.342 192.17C107.211 192.072 107.097 191.936 107.001 191.761C106.904 191.586 106.828 191.367 106.772 191.106L106.635 190.468C106.578 190.206 106.559 189.976 106.575 189.779C106.591 189.582 106.64 189.414 106.72 189.275C106.801 189.137 106.91 189.026 107.049 188.94C107.188 188.856 107.351 188.795 107.54 188.759C107.729 188.721 107.904 188.716 108.064 188.742C108.225 188.769 108.371 188.83 108.503 188.929C108.634 189.026 108.748 189.162 108.844 189.338C108.94 189.512 109.016 189.731 109.073 189.993L109.21 190.631C109.266 190.892 109.286 191.121 109.27 191.318Z" fill="#F0F0F0"/>
<path d="M112.184 191.005C112.151 191.143 112.088 191.265 111.996 191.369C111.905 191.472 111.788 191.558 111.646 191.626C111.503 191.695 111.341 191.748 111.159 191.783C111 191.814 110.849 191.833 110.704 191.842C110.559 191.85 110.424 191.853 110.3 191.85C110.272 191.849 110.247 191.844 110.226 191.832C110.205 191.822 110.191 191.803 110.186 191.778L110.151 191.615C110.139 191.561 110.161 191.529 110.218 191.517L110.233 191.515C110.386 191.504 110.536 191.492 110.685 191.476C110.833 191.46 110.965 191.441 111.081 191.419C111.353 191.366 111.538 191.275 111.639 191.149C111.739 191.02 111.765 190.844 111.716 190.618L111.695 190.518C111.681 190.456 111.658 190.393 111.625 190.328C111.593 190.264 111.548 190.209 111.491 190.161C111.434 190.113 111.365 190.078 111.282 190.056C111.2 190.035 111.103 190.035 110.99 190.057L110.087 190.233C110.024 190.245 109.986 190.223 109.974 190.166L109.938 190C109.926 189.941 109.951 189.905 110.013 189.893L110.917 189.717C111.036 189.694 111.13 189.657 111.199 189.608C111.268 189.559 111.317 189.502 111.346 189.439C111.376 189.376 111.392 189.31 111.394 189.24C111.397 189.172 111.391 189.106 111.378 189.042L111.363 188.976C111.322 188.782 111.232 188.652 111.096 188.585C110.959 188.518 110.75 188.513 110.468 188.567C110.323 188.596 110.189 188.629 110.068 188.667C109.947 188.706 109.808 188.75 109.649 188.8L109.635 188.804C109.578 188.815 109.544 188.794 109.533 188.74L109.497 188.573C109.492 188.549 109.497 188.529 109.512 188.509C109.527 188.49 109.546 188.474 109.572 188.463C109.685 188.413 109.81 188.367 109.947 188.319C110.084 188.274 110.231 188.235 110.39 188.204C110.576 188.167 110.748 188.149 110.906 188.149C111.065 188.149 111.206 188.175 111.329 188.227C111.452 188.279 111.556 188.356 111.641 188.463C111.725 188.567 111.787 188.708 111.825 188.885L111.839 188.951C111.873 189.111 111.865 189.264 111.813 189.409C111.762 189.554 111.666 189.678 111.526 189.78C111.624 189.804 111.709 189.839 111.781 189.884C111.852 189.928 111.914 189.981 111.964 190.039C112.015 190.099 112.056 190.161 112.087 190.227C112.119 190.294 112.142 190.361 112.157 190.43L112.178 190.53C112.216 190.707 112.218 190.865 112.184 191.005Z" fill="#F0F0F0"/>
<path d="M115.188 190.419C115.154 190.558 115.092 190.68 115 190.784C114.909 190.887 114.792 190.973 114.65 191.041C114.507 191.11 114.345 191.162 114.163 191.198C114.004 191.229 113.852 191.248 113.708 191.256C113.563 191.265 113.428 191.268 113.304 191.265C113.276 191.264 113.251 191.259 113.23 191.247C113.209 191.237 113.195 191.219 113.19 191.193L113.155 191.03C113.143 190.976 113.165 190.944 113.222 190.932L113.237 190.93C113.39 190.92 113.54 190.907 113.689 190.891C113.837 190.876 113.969 190.856 114.085 190.834C114.356 190.781 114.542 190.69 114.642 190.564C114.743 190.435 114.768 190.258 114.72 190.033L114.699 189.933C114.685 189.871 114.662 189.808 114.629 189.743C114.597 189.679 114.552 189.624 114.495 189.576C114.438 189.528 114.369 189.493 114.286 189.471C114.204 189.449 114.107 189.45 113.994 189.472L113.091 189.648C113.028 189.66 112.99 189.638 112.978 189.581L112.942 189.415C112.929 189.356 112.954 189.32 113.017 189.308L113.921 189.131C114.04 189.109 114.134 189.072 114.203 189.022C114.272 188.973 114.321 188.917 114.35 188.854C114.38 188.79 114.396 188.724 114.398 188.656C114.401 188.587 114.395 188.521 114.382 188.457L114.367 188.391C114.326 188.197 114.236 188.067 114.1 187.999C113.963 187.933 113.754 187.927 113.472 187.982C113.327 188.011 113.193 188.043 113.072 188.082C112.951 188.121 112.812 188.165 112.653 188.215L112.639 188.218C112.582 188.23 112.548 188.208 112.537 188.155L112.501 187.986C112.496 187.964 112.501 187.944 112.516 187.924C112.53 187.905 112.55 187.889 112.576 187.878C112.689 187.828 112.814 187.78 112.951 187.734C113.087 187.687 113.235 187.648 113.394 187.617C113.579 187.582 113.752 187.564 113.91 187.564C114.069 187.564 114.21 187.59 114.333 187.642C114.456 187.694 114.56 187.771 114.645 187.876C114.729 187.982 114.791 188.122 114.829 188.3L114.843 188.366C114.877 188.526 114.869 188.679 114.817 188.824C114.765 188.969 114.67 189.092 114.53 189.195C114.628 189.219 114.713 189.252 114.785 189.298C114.856 189.343 114.917 189.395 114.968 189.454C115.019 189.514 115.06 189.576 115.091 189.642C115.123 189.708 115.146 189.777 115.161 189.845L115.182 189.945C115.22 190.121 115.222 190.279 115.188 190.419Z" fill="#F0F0F0"/>
<path d="M117.632 190.457C117.619 190.479 117.6 190.494 117.573 190.499L117.3 190.552C117.274 190.557 117.25 190.552 117.23 190.536C117.209 190.521 117.196 190.5 117.191 190.475L116.551 187.501L115.968 187.89C115.947 187.903 115.926 187.912 115.906 187.916C115.876 187.923 115.858 187.908 115.85 187.874L115.799 187.633C115.795 187.616 115.797 187.604 115.803 187.594C115.81 187.585 115.82 187.573 115.835 187.562L116.512 187.075C116.547 187.048 116.58 187.032 116.61 187.026L116.813 186.986C116.84 186.98 116.864 186.986 116.886 186.998C116.908 187.013 116.922 187.032 116.927 187.058L117.642 190.386C117.648 190.412 117.644 190.435 117.632 190.457Z" fill="#F0F0F0"/>
<path d="M122.716 186.461C122.712 186.443 122.703 186.434 122.69 186.437L122.685 186.438C122.672 186.441 122.661 186.452 122.652 186.474L121.842 188.244C121.835 188.258 121.832 188.271 121.835 188.284C121.839 188.302 121.854 188.31 121.881 188.305L123.063 188.074L122.716 186.461ZM124.03 188.265L123.598 188.349L123.779 189.191C123.784 189.216 123.781 189.239 123.77 189.261C123.759 189.283 123.74 189.298 123.713 189.303L123.422 189.358C123.395 189.364 123.373 189.358 123.353 189.343C123.334 189.327 123.322 189.307 123.317 189.281L123.136 188.439L121.705 188.718C121.629 188.733 121.574 188.729 121.538 188.709C121.503 188.688 121.478 188.643 121.463 188.573L121.424 188.394C121.41 188.327 121.417 188.265 121.446 188.206L122.49 185.959C122.499 185.937 122.511 185.916 122.528 185.897C122.544 185.878 122.574 185.863 122.617 185.856L122.913 185.797C123 185.781 123.051 185.806 123.066 185.876L123.519 187.985L123.951 187.901C123.978 187.896 124.002 187.9 124.024 187.911C124.045 187.924 124.059 187.944 124.064 187.968L124.105 188.16C124.118 188.218 124.092 188.253 124.03 188.265Z" fill="#F0F0F0"/>
<path d="M126.259 186.507C126.216 186.315 126.166 186.159 126.106 186.038C126.045 185.918 125.974 185.826 125.894 185.762C125.813 185.7 125.722 185.661 125.621 185.649C125.52 185.636 125.41 185.641 125.291 185.664C125.175 185.686 125.073 185.721 124.985 185.768C124.896 185.814 124.825 185.878 124.772 185.957C124.718 186.036 124.685 186.133 124.671 186.247C124.658 186.36 124.668 186.498 124.703 186.658L124.709 186.687C124.736 186.812 124.78 186.913 124.841 186.99C124.902 187.066 124.975 187.122 125.058 187.157C125.141 187.19 125.23 187.21 125.326 187.212C125.421 187.215 125.519 187.206 125.618 187.186C125.678 187.175 125.742 187.16 125.81 187.142C125.878 187.124 125.946 187.103 126.013 187.083C126.078 187.062 126.14 187.04 126.2 187.017C126.259 186.993 126.309 186.974 126.35 186.956L126.259 186.507ZM126.941 187.913C126.925 188.1 126.873 188.262 126.789 188.397C126.704 188.533 126.586 188.641 126.435 188.725C126.284 188.808 126.102 188.87 125.89 188.912C125.692 188.951 125.524 188.975 125.386 188.986C125.249 188.996 125.126 189 125.019 188.997C124.984 188.997 124.954 188.993 124.928 188.984C124.902 188.977 124.886 188.958 124.88 188.93L124.84 188.742C124.834 188.714 124.838 188.692 124.851 188.674C124.865 188.657 124.885 188.645 124.911 188.64H124.927L124.942 188.639C125.073 188.64 125.21 188.632 125.354 188.618C125.497 188.602 125.648 188.58 125.807 188.549C125.999 188.512 126.146 188.456 126.248 188.382C126.348 188.309 126.419 188.221 126.46 188.118C126.499 188.015 126.514 187.898 126.503 187.766C126.492 187.634 126.469 187.492 126.437 187.338L126.426 187.286C126.324 187.329 126.215 187.371 126.1 187.415C125.983 187.459 125.848 187.497 125.696 187.527C125.534 187.558 125.376 187.572 125.222 187.569C125.068 187.567 124.926 187.538 124.797 187.484C124.669 187.431 124.557 187.347 124.464 187.232C124.37 187.116 124.303 186.965 124.262 186.776L124.256 186.748C124.176 186.372 124.213 186.06 124.368 185.809C124.522 185.559 124.804 185.395 125.211 185.315C125.585 185.242 125.902 185.293 126.165 185.467C126.426 185.641 126.607 185.959 126.706 186.423L126.884 187.251C126.938 187.502 126.957 187.724 126.941 187.913Z" fill="#F0F0F0"/>
<path d="M129.549 185.352C129.588 185.537 129.573 185.709 129.503 185.866C129.433 186.023 129.298 186.197 129.098 186.39L128.686 186.791C128.565 186.907 128.468 187.011 128.395 187.106C128.322 187.2 128.269 187.292 128.233 187.382C128.199 187.47 128.18 187.559 128.176 187.646C128.174 187.734 128.182 187.83 128.205 187.934L128.227 188.033L129.9 187.707C129.926 187.701 129.95 187.704 129.973 187.714C129.996 187.725 130.011 187.743 130.015 187.769L130.06 187.976C130.066 188.002 130.06 188.024 130.044 188.043C130.027 188.064 130.006 188.076 129.98 188.081L128.012 188.464C127.986 188.469 127.962 188.465 127.938 188.452C127.914 188.438 127.9 188.419 127.895 188.394L127.812 188.011C127.76 187.766 127.77 187.529 127.845 187.301C127.918 187.074 128.073 186.847 128.308 186.621L128.742 186.201C128.83 186.116 128.902 186.041 128.958 185.977C129.014 185.914 129.056 185.854 129.083 185.799C129.11 185.742 129.126 185.686 129.129 185.629C129.133 185.573 129.128 185.51 129.113 185.441C129.076 185.27 128.992 185.158 128.861 185.103C128.731 185.049 128.531 185.048 128.263 185.1C128.134 185.124 127.991 185.16 127.835 185.204C127.68 185.25 127.535 185.296 127.399 185.342L127.38 185.346C127.327 185.356 127.294 185.333 127.282 185.276L127.245 185.109C127.24 185.083 127.245 185.062 127.26 185.045C127.276 185.03 127.297 185.015 127.321 185.004C127.441 184.947 127.577 184.895 127.73 184.848C127.884 184.802 128.036 184.764 128.184 184.736C128.588 184.657 128.901 184.666 129.122 184.764C129.344 184.863 129.485 185.058 129.549 185.352Z" fill="#F0F0F0"/>
<path d="M132.342 187.591C132.329 187.613 132.309 187.626 132.283 187.632L132.01 187.685C131.983 187.69 131.96 187.685 131.939 187.669C131.919 187.654 131.905 187.633 131.9 187.608L131.261 184.634L130.678 185.023C130.656 185.037 130.636 185.046 130.616 185.05C130.586 185.056 130.568 185.041 130.56 185.006L130.508 184.766C130.505 184.75 130.507 184.737 130.514 184.728C130.519 184.718 130.53 184.707 130.545 184.694L131.222 184.208C131.257 184.18 131.29 184.165 131.32 184.158L131.523 184.12C131.549 184.114 131.574 184.118 131.595 184.133C131.617 184.146 131.631 184.165 131.636 184.191L132.353 187.52C132.358 187.545 132.354 187.568 132.342 187.591Z" fill="#F0F0F0"/>
<path d="M138.252 183.655C138.293 183.841 138.276 184.012 138.207 184.169C138.136 184.325 138.002 184.5 137.801 184.694L137.389 185.094C137.268 185.211 137.171 185.316 137.099 185.41C137.026 185.505 136.971 185.597 136.937 185.686C136.902 185.774 136.883 185.862 136.88 185.95C136.876 186.038 136.886 186.134 136.909 186.237L136.929 186.337L138.602 186.011C138.63 186.006 138.654 186.008 138.677 186.019C138.7 186.029 138.714 186.047 138.719 186.072L138.764 186.28C138.77 186.306 138.764 186.328 138.748 186.347C138.732 186.367 138.71 186.38 138.683 186.385L136.716 186.768C136.689 186.773 136.664 186.769 136.641 186.755C136.618 186.742 136.603 186.723 136.598 186.697L136.516 186.315C136.463 186.069 136.474 185.833 136.547 185.606C136.622 185.378 136.776 185.151 137.011 184.925L137.444 184.505C137.534 184.42 137.606 184.345 137.662 184.281C137.718 184.218 137.758 184.158 137.787 184.101C137.814 184.046 137.829 183.989 137.833 183.933C137.836 183.876 137.83 183.814 137.815 183.744C137.779 183.575 137.696 183.462 137.565 183.408C137.434 183.352 137.235 183.351 136.966 183.404C136.837 183.428 136.696 183.463 136.539 183.509C136.383 183.554 136.237 183.599 136.103 183.646L136.083 183.65C136.03 183.66 135.997 183.637 135.985 183.58L135.949 183.412C135.944 183.387 135.949 183.365 135.964 183.349C135.979 183.333 136 183.318 136.025 183.307C136.144 183.251 136.281 183.199 136.435 183.153C136.588 183.106 136.739 183.069 136.889 183.039C137.292 182.961 137.605 182.97 137.826 183.069C138.047 183.167 138.189 183.362 138.252 183.655Z" fill="#F0F0F0"/>
<path d="M141.048 183.761C141.005 183.562 140.95 183.396 140.884 183.263C140.819 183.131 140.742 183.026 140.657 182.951C140.573 182.874 140.479 182.826 140.375 182.803C140.274 182.781 140.163 182.78 140.048 182.803C139.932 182.825 139.832 182.867 139.748 182.926C139.662 182.984 139.595 183.065 139.549 183.167C139.502 183.268 139.476 183.392 139.469 183.54C139.462 183.686 139.481 183.859 139.523 184.058L139.661 184.697C139.704 184.895 139.758 185.061 139.825 185.194C139.892 185.327 139.966 185.432 140.052 185.507C140.136 185.582 140.23 185.632 140.333 185.654C140.437 185.677 140.545 185.677 140.661 185.655C140.776 185.632 140.877 185.591 140.961 185.532C141.047 185.472 141.113 185.392 141.16 185.291C141.207 185.19 141.234 185.066 141.24 184.918C141.247 184.771 141.228 184.599 141.186 184.399L141.048 183.761ZM141.697 185C141.68 185.197 141.633 185.364 141.551 185.503C141.471 185.642 141.362 185.753 141.225 185.837C141.088 185.922 140.926 185.982 140.737 186.019C140.548 186.056 140.373 186.061 140.21 186.035C140.048 186.01 139.901 185.947 139.769 185.85C139.637 185.753 139.525 185.616 139.428 185.441C139.332 185.267 139.255 185.048 139.2 184.786L139.062 184.148C139.005 183.887 138.986 183.658 139.003 183.459C139.019 183.263 139.067 183.096 139.147 182.956C139.228 182.817 139.337 182.706 139.476 182.621C139.616 182.537 139.779 182.476 139.968 182.439C140.157 182.403 140.331 182.397 140.492 182.424C140.653 182.45 140.798 182.512 140.93 182.609C141.062 182.706 141.175 182.843 141.271 183.018C141.368 183.193 141.444 183.412 141.499 183.673L141.637 184.311C141.694 184.573 141.713 184.802 141.697 185Z" fill="#F0F0F0"/>
<path d="M144.26 182.485C144.3 182.671 144.285 182.842 144.215 182.999C144.145 183.155 144.009 183.33 143.808 183.523L143.397 183.924C143.277 184.039 143.18 184.144 143.107 184.239C143.034 184.335 142.981 184.425 142.945 184.514C142.911 184.604 142.892 184.692 142.888 184.78C142.884 184.867 142.894 184.964 142.917 185.067L142.938 185.167L144.612 184.841C144.637 184.836 144.662 184.838 144.685 184.848C144.708 184.859 144.722 184.876 144.727 184.902L144.772 185.11C144.777 185.135 144.772 185.157 144.756 185.177C144.739 185.197 144.718 185.208 144.692 185.214L142.724 185.597C142.698 185.602 142.673 185.598 142.65 185.585C142.626 185.571 142.612 185.551 142.607 185.527L142.524 185.144C142.472 184.899 142.482 184.662 142.557 184.434C142.63 184.206 142.785 183.98 143.019 183.753L143.454 183.335C143.542 183.249 143.614 183.173 143.67 183.11C143.725 183.048 143.766 182.987 143.795 182.931C143.822 182.876 143.838 182.819 143.841 182.762C143.845 182.706 143.84 182.643 143.825 182.574C143.788 182.403 143.704 182.292 143.573 182.236C143.443 182.182 143.243 182.181 142.975 182.232C142.846 182.258 142.703 182.293 142.547 182.339C142.392 182.384 142.247 182.429 142.111 182.474L142.092 182.478C142.039 182.489 142.006 182.465 141.994 182.408L141.957 182.241C141.952 182.216 141.957 182.195 141.972 182.178C141.988 182.162 142.009 182.148 142.033 182.137C142.153 182.08 142.289 182.029 142.442 181.983C142.596 181.936 142.748 181.897 142.896 181.869C143.3 181.79 143.613 181.8 143.834 181.897C144.056 181.995 144.197 182.191 144.26 182.485Z" fill="#F0F0F0"/>
<path d="M147.055 184.724C147.041 184.746 147.022 184.759 146.996 184.764L146.723 184.819C146.696 184.824 146.673 184.817 146.652 184.802C146.632 184.786 146.618 184.765 146.613 184.741L145.974 181.766L145.39 182.156C145.369 182.17 145.349 182.179 145.328 182.183C145.299 182.188 145.281 182.174 145.273 182.139L145.221 181.898C145.218 181.883 145.22 181.87 145.226 181.861C145.232 181.85 145.243 181.84 145.258 181.827L145.935 181.34C145.97 181.314 146.003 181.298 146.032 181.292L146.236 181.252C146.262 181.247 146.287 181.251 146.308 181.265C146.33 181.28 146.344 181.299 146.349 181.324L147.064 184.653C147.07 184.677 147.067 184.702 147.055 184.724Z" fill="#F0F0F0"/>
<path d="M103.832 198.678L93.6957 200.654L93.1016 197.889L103.238 195.914L103.832 198.678Z" fill="#F0F0F0"/>
<path d="M143.407 161.596L133.272 163.572L132.914 161.912L143.051 159.937L143.407 161.596Z" fill="#F0F0F0"/>
<path d="M144.044 164.56L125.953 168.085L125.597 166.426L143.686 162.901L144.044 164.56Z" fill="#F0F0F0"/>
<path d="M138.959 196.023L94.561 204.676L93.9668 201.911L138.366 193.258L138.959 196.023Z" fill="#F0F0F0"/>
<path d="M145.966 193.218C146.129 193.982 145.613 194.728 144.811 194.883C144.009 195.04 143.226 194.548 143.061 193.784C142.898 193.02 143.415 192.275 144.217 192.118C145.019 191.961 145.801 192.455 145.966 193.218Z" fill="#F0F0F0"/>
<path d="M150.03 192.426C150.193 193.19 149.677 193.935 148.875 194.091C148.073 194.247 147.29 193.756 147.126 192.992C146.963 192.228 147.479 191.482 148.281 191.326C149.083 191.169 149.866 191.662 150.03 192.426Z" fill="#F0F0F0"/>
<path d="M96.2408 171.112L97.2742 175.922C97.3268 176.165 97.1616 176.406 96.9039 176.455L88.2635 178.139C88.0058 178.19 87.7539 178.032 87.7015 177.787L86.668 172.977C86.6152 172.731 86.7816 172.492 87.0393 172.441L95.6796 170.757C95.9374 170.707 96.188 170.866 96.2408 171.112Z" fill="#FECC86"/>
<path d="M91.6479 174.246L87.1296 175.126L87.0811 174.899L91.3616 174.066L91.0511 172.62L91.2887 172.573L91.6479 174.246Z" fill="#EFA348"/>
<path d="M93.0844 177.199L92.8468 177.246L92.3662 175.009L96.8885 174.128L96.9371 174.354L92.6525 175.189L93.0844 177.199Z" fill="#EFA348"/>
<path d="M93.6295 173.654L93.3919 173.701L92.877 171.303L93.1145 171.257L93.6295 173.654Z" fill="#EFA348"/>
<path d="M96.458 172.122L93.3084 172.735L93.2598 172.509L96.4094 171.895L96.458 172.122Z" fill="#EFA348"/>
<path d="M90.2156 176.711L89.9781 176.758L89.8115 175.983L87.4138 176.45L87.3652 176.223L90.0005 175.71L90.2156 176.711Z" fill="#EFA348"/>
<path d="M84.6411 169.675C83.7578 169.847 83.1861 170.672 83.3669 171.513L90.7999 206.11C90.9807 206.951 91.8464 207.496 92.7297 207.324L152.606 195.655C153.489 195.482 154.06 194.659 153.879 193.818L146.446 159.221C146.265 158.38 145.401 157.835 144.517 158.007L84.6411 169.675ZM152.678 195.995L92.8027 207.663C91.7228 207.873 90.6646 207.208 90.4436 206.18L83.0105 171.583C82.7896 170.555 83.4883 169.547 84.5681 169.336L144.444 157.668C145.523 157.458 146.582 158.123 146.803 159.151L154.235 193.748C154.457 194.776 153.758 195.784 152.678 195.995Z" fill="#1D1D1B"/>
<path d="M243.221 186.051C243.221 195.4 235.263 202.977 225.448 202.977C215.633 202.977 207.677 195.4 207.677 186.051C207.677 176.704 215.633 169.126 225.448 169.126C235.263 169.126 243.221 176.704 243.221 186.051Z" fill="#2D2727"/>
<path d="M222.145 194.673L215.442 185.796C215.125 185.377 215.225 184.79 215.666 184.489C216.108 184.187 216.722 184.283 217.04 184.702L222.217 191.559L235.159 175.922C235.495 175.515 236.115 175.446 236.541 175.767C236.968 176.086 237.04 176.677 236.705 177.083L222.145 194.673Z" fill="#2BBA8F"/>
<path d="M231.508 199.95L238.837 206.846L235.626 195.893L231.508 199.95Z" fill="#2BBA8F"/>
<path d="M241.283 217.425H210.891V215.987H241.283V217.425Z" fill="#F0F0F0"/>
<path d="M241.283 223.378H210.891V221.94H241.283V223.378Z" fill="#F0F0F0"/>
<path d="M183.509 69.4492C182.027 69.3767 180.54 69.3482 179.074 69.3637L179.066 68.5754C180.546 68.5599 182.052 68.5896 183.551 68.6621L183.509 69.4492ZM170.235 70.0071L170.116 69.2278C171.574 69.0246 173.076 68.8679 174.579 68.7592L174.643 69.5449C173.157 69.6524 171.675 69.8077 170.235 70.0071ZM192.33 70.3812C190.874 70.1443 189.394 69.9449 187.933 69.7909L188.024 69.0078C189.502 69.1631 190.997 69.365 192.469 69.6032L192.33 70.3812ZM161.594 71.8439L161.35 71.0905C162.756 70.6789 164.218 70.31 165.697 69.998L165.876 70.7669C164.419 71.075 162.979 71.4374 161.594 71.8439ZM200.978 72.2931C199.57 71.8957 198.126 71.5332 196.683 71.2148L196.87 70.4472C198.328 70.7695 199.789 71.1358 201.214 71.5371L200.978 72.2931ZM153.415 75.0282L153.031 74.3292C154.336 73.6794 155.71 73.0723 157.114 72.5274L157.426 73.2574C156.045 73.7933 154.696 74.3888 153.415 75.0282ZM209.313 75.1849C207.978 74.627 206.593 74.0988 205.195 73.6147L205.477 72.873C206.892 73.3636 208.295 73.8982 209.646 74.4639L209.313 75.1849ZM217.157 79.111C215.928 78.3809 214.634 77.6741 213.31 77.0139L213.695 76.3149C215.038 76.9855 216.349 77.7013 217.594 78.443L217.157 79.111ZM146.081 79.6844L145.548 79.0799C146.682 78.1738 147.896 77.3091 149.156 76.5117L149.614 77.168C148.38 77.9498 147.192 78.7951 146.081 79.6844ZM224.224 84.1684C223.16 83.248 222.012 82.3471 220.812 81.4914L221.306 80.8598C222.528 81.7309 223.697 82.6474 224.78 83.5846L224.224 84.1684ZM140.057 85.7929L139.391 85.3269C140.276 84.1787 141.247 83.0694 142.274 82.0274L142.876 82.5672C141.872 83.5859 140.925 84.6706 140.057 85.7929ZM230.053 90.4568C229.241 89.332 228.326 88.2213 227.333 87.1547L227.951 86.6317C228.968 87.723 229.904 88.8595 230.735 90.0103L230.053 90.4568ZM135.73 93.0885L134.967 92.783C135.552 91.4575 136.219 90.1617 136.948 88.932L137.668 89.319C136.954 90.5229 136.303 91.7914 135.73 93.0885ZM132.226 97.1699C130.77 97.0301 129.29 96.9912 127.83 97.056L127.792 96.2676C129.291 96.2016 130.812 96.2418 132.31 96.3867L132.226 97.1699ZM233.944 97.9362C233.508 96.6288 232.952 95.3253 232.291 94.0632L233.032 93.7111C233.711 95.0107 234.284 96.3505 234.732 97.6967L233.944 97.9362ZM119.219 98.6404L118.949 97.8961C120.378 97.4262 121.845 97.0508 123.307 96.7803L123.465 97.5543C122.04 97.8171 120.612 98.1834 119.219 98.6404ZM140.748 99.1853C139.372 98.6611 137.963 98.2262 136.56 97.8922L136.76 97.1272C138.199 97.4702 139.644 97.9155 141.055 98.4527L140.748 99.1853ZM133.192 101.128L132.379 100.978C132.669 99.5581 133.029 98.1588 133.45 96.8178L134.243 97.0443C133.831 98.3595 133.476 99.7342 133.192 101.128ZM111.361 102.396L110.899 101.742C112.154 100.937 113.464 100.205 114.792 99.5685L115.164 100.273C113.867 100.894 112.588 101.609 111.361 102.396ZM148.48 103.209C147.454 102.528 146.359 101.869 145.222 101.25C145.058 101.161 144.893 101.073 144.73 100.986L145.13 100.296C145.297 100.385 145.466 100.475 145.633 100.565C146.791 101.197 147.907 101.867 148.953 102.561L148.48 103.209ZM236.033 106.186L235.205 106.172C235.208 106.015 235.209 105.858 235.209 105.702C235.209 104.463 235.115 103.219 234.929 102.005L235.749 101.891C235.941 103.144 236.037 104.425 236.037 105.702C236.037 105.862 236.036 106.024 236.033 106.186ZM104.693 107.881L104.083 107.348C105.102 106.291 106.19 105.284 107.317 104.354L107.858 104.951C106.755 105.86 105.69 106.845 104.693 107.881ZM155.049 108.78C154.119 107.749 153.077 106.746 151.953 105.799L152.502 105.208C153.653 106.181 154.722 107.208 155.677 108.266L155.049 108.78ZM132.261 109.497L131.433 109.478C131.473 108.03 131.569 106.595 131.72 105.211L132.544 105.293C132.394 106.656 132.299 108.07 132.261 109.497ZM234.526 114.648L233.737 114.409C234.19 113.05 234.543 111.681 234.787 110.337L235.602 110.472C235.352 111.849 234.99 113.255 234.526 114.648ZM99.4947 114.667L98.7762 114.276C99.5204 113.036 100.345 111.823 101.227 110.671L101.895 111.136C101.031 112.264 100.224 113.453 99.4947 114.667ZM159.609 115.882C159.091 114.617 158.431 113.361 157.648 112.151L158.353 111.738C159.162 112.988 159.844 114.286 160.38 115.596L159.609 115.882ZM131.815 118.016C131.656 116.575 131.542 115.141 131.478 113.753L132.305 113.718C132.369 115.09 132.481 116.509 132.639 117.933L131.815 118.016ZM95.9925 122.374L95.2011 122.144C95.6378 120.783 96.1617 119.428 96.7585 118.115L97.518 118.429C96.9335 119.714 96.4202 121.042 95.9925 122.374ZM161.829 124.088L161.002 124.035C161.03 123.661 161.042 123.278 161.042 122.896C161.042 121.907 160.953 120.896 160.777 119.891L161.594 119.762C161.777 120.809 161.869 121.864 161.869 122.896C161.869 123.295 161.856 123.696 161.829 124.088ZM133.854 126.371C133.312 125.065 132.863 123.682 132.521 122.258L133.328 122.082C133.661 123.467 134.097 124.813 134.625 126.082L133.854 126.371ZM94.3961 130.63L93.5703 130.577C93.669 129.158 93.8574 127.724 94.1303 126.316L94.9442 126.459C94.6771 127.838 94.4926 129.241 94.3961 130.63ZM158.847 132.212L158.178 131.747C159.014 130.659 159.681 129.428 160.161 128.09L160.944 128.345C160.437 129.759 159.731 131.059 158.847 132.212ZM138.698 133.633C137.671 132.666 136.722 131.522 135.879 130.233L136.582 129.816C137.391 131.054 138.299 132.149 139.28 133.073L138.698 133.633ZM151.379 137.031L151.181 136.266C152.59 135.935 153.909 135.374 155.098 134.602L155.564 135.253C154.293 136.079 152.885 136.677 151.379 137.031ZM146.818 137.369C145.285 137.249 143.799 136.853 142.401 136.19L142.769 135.484C144.074 136.102 145.459 136.472 146.886 136.583L146.818 137.369Z" fill="#6095AB"/>
<path d="M231.876 120.673L231.142 120.31C231.484 119.682 231.81 119.044 232.112 118.415L232.865 118.741C232.558 119.383 232.225 120.033 231.876 120.673Z" fill="#6095AB"/>
<path d="M224.7 124.708L220.104 132.254C220.104 132.254 226.757 127.181 226.916 127.059C227.075 126.937 232.991 118.741 232.991 118.741L235.62 118.024L231.446 116.958L224.7 124.708Z" fill="#2BBA8F"/>
<path d="M231.446 116.958L228.48 114.267L220.104 132.254L231.446 116.958Z" fill="#2BBA8F"/>
<path d="M236.917 122.292L232.991 118.741L220.104 132.254L236.917 122.292Z" fill="#F0F0F0"/>
<rect x="142" y="24" width="16" height="10" rx="3" fill="#2BBA8F"/>
<circle cx="167" cy="29" r="5" fill="#D9D9D9"/>
<circle cx="181" cy="29" r="5" fill="#D9D9D9"/>
<defs>
<filter id="filter0_b_42_23" x="78.8286" y="153.478" width="79.5878" height="58.3742" filterUnits="userSpaceOnUse" color-interpolation-filters="sRGB">
<feFlood flood-opacity="0" result="BackgroundImageFix"/>
<feGaussianBlur in="BackgroundImageFix" stdDeviation="2.1809"/>
<feComposite in2="SourceAlpha" operator="in" result="effect1_backgroundBlur_42_23"/>
<feBlend mode="normal" in="SourceGraphic" in2="effect1_backgroundBlur_42_23" result="shape"/>
</filter>
<linearGradient id="paint0_linear_42_23" x1="118.623" y1="207.491" x2="118.623" y2="157.84" gradientUnits="userSpaceOnUse">
<stop stop-color="#2D2727"/>
<stop offset="0.536458" stop-color="#2BBA8F"/>
<stop offset="1" stop-color="#2D2727" stop-opacity="0.17"/>
</linearGradient>
</defs>
</svg>
