<svg width="198" height="93" viewBox="0 0 198 93" fill="none" xmlns="http://www.w3.org/2000/svg">
<path d="M4.8 27.3521H26.016V32.7281H10.416V42.5681H24V47.9441H10.416V62.2961H4.8V27.3521ZM33.2531 27.3521H38.8691V56.9201H56.1011V62.2961H33.2531V27.3521ZM63.4875 27.3521H69.1035V62.2961H63.4875V27.3521ZM109.442 63.5441L82.6099 37.5281L84.2419 38.2001L84.3859 62.2961H78.7219V26.1521H78.9619L105.41 52.1681L104.114 51.7841L104.018 27.3521H109.586V63.5441H109.442ZM147.014 59.0801C146.566 59.5281 145.894 59.9601 144.998 60.3761C144.134 60.7921 143.158 61.1761 142.07 61.5281C140.982 61.8801 139.862 62.1521 138.71 62.3441C137.558 62.5681 136.47 62.6801 135.446 62.6801C132.63 62.6801 130.086 62.2481 127.814 61.3841C125.574 60.5201 123.638 59.3361 122.006 57.8321C120.406 56.2961 119.174 54.4881 118.31 52.4081C117.478 50.3281 117.062 48.0721 117.062 45.6401C117.062 42.6001 117.542 39.9281 118.502 37.6241C119.462 35.2881 120.774 33.3361 122.438 31.7681C124.102 30.1681 126.006 28.9681 128.15 28.1681C130.326 27.3681 132.614 26.9681 135.014 26.9681C137.126 26.9681 139.078 27.2081 140.87 27.6881C142.694 28.1681 144.246 28.7761 145.526 29.5121L143.702 34.6961C143.094 34.3441 142.31 34.0081 141.35 33.6881C140.39 33.3361 139.414 33.0641 138.422 32.8721C137.462 32.6801 136.566 32.5841 135.734 32.5841C133.718 32.5841 131.91 32.8721 130.31 33.4481C128.742 33.9921 127.398 34.8081 126.278 35.8961C125.158 36.9841 124.294 38.3121 123.686 39.8801C123.11 41.4161 122.822 43.1761 122.822 45.1601C122.822 46.9521 123.126 48.5841 123.734 50.0561C124.374 51.5281 125.254 52.7921 126.374 53.8481C127.526 54.9041 128.87 55.7201 130.406 56.2961C131.974 56.8401 133.702 57.1121 135.59 57.1121C136.678 57.1121 137.734 57.0161 138.758 56.8241C139.782 56.6321 140.646 56.3281 141.35 55.9121V50.1041H134.822V44.7281H147.014V59.0801Z" fill="#F0F0F0"/>
<path d="M138.247 66.2217L115.348 87.829L146.731 66.7544C146.731 66.7544 168.591 54.1294 179.798 42.7798C186.688 35.8024 195.555 23.2289 195.555 23.2289L182.18 4.85451C182.18 4.85451 182.34 12.5404 181.396 17.3299C177.841 35.3771 150.602 52.97 150.602 52.97" stroke="#2BBA8F" stroke-width="3"/>
</svg>
