<svg width="55" height="56" viewBox="0 0 55 56" fill="none" xmlns="http://www.w3.org/2000/svg">
<rect x="0.75" width="53.75" height="56" rx="4.66667" fill="white"/>
<path d="M27.7588 49.9932C39.6861 49.9932 49.355 39.9195 49.355 27.4929C49.355 15.0664 39.6861 4.99268 27.7588 4.99268C15.8315 4.99268 6.1626 15.0664 6.1626 27.4929C6.1626 39.9195 15.8315 49.9932 27.7588 49.9932Z" fill="#50B651"/>
<path opacity="0.663" fill-rule="evenodd" clip-rule="evenodd" d="M49.289 27.4296C49.289 39.8952 39.5899 50.0004 27.6278 50.0004C15.6657 50.0004 5.96387 39.8952 5.96387 27.4296C5.96387 21.9153 6.11222 21.0954 8.19557 17.9561C8.19557 17.9561 8.08807 21.502 10.5837 23.6121C12.1354 24.923 13.7549 23.9766 16.7192 22.5542C19.926 21.0142 22.5328 20.0208 24.5667 20.2829C27.6305 20.6782 37.0738 26.5868 42.0022 25.4102C45.9394 24.4722 45.5239 14.801 45.5239 14.801C49.8239 19.1757 49.289 22.1325 49.289 27.4296Z" fill="url(#paint0_linear_533_3525)"/>
<path opacity="0.586" fill-rule="evenodd" clip-rule="evenodd" d="M36.9238 44.0083C44.7588 36.3299 46.0611 27.5334 40.8309 17.6188C40.8574 17.639 41.181 16.4757 41.8016 14.1289C44.5852 17.6409 46.0653 21.9756 46.2419 27.1332C46.2405 33.8137 43.1345 39.4387 36.9238 44.0083Z" fill="url(#paint1_linear_533_3525)"/>
<path opacity="0.744" fill-rule="evenodd" clip-rule="evenodd" d="M33.2071 14.1755C29.4252 11.9948 25.0865 7.60835 25.6632 6.68715C26.24 5.76595 33.7257 5.92443 37.5081 8.10507C41.2905 10.2857 44.5096 16.8271 43.9334 17.7483C43.3572 18.6695 36.9889 16.3561 33.2071 14.1755Z" fill="url(#paint2_radial_533_3525)"/>
<path fill-rule="evenodd" clip-rule="evenodd" d="M36.5016 33.0339C33.3643 33.0339 30.8208 30.3084 30.8208 26.9467C30.8208 23.5851 33.3643 20.8601 36.5016 20.8601C39.639 20.8601 42.183 23.5851 42.183 26.9467C42.183 30.3084 39.6396 33.0339 36.5016 33.0339ZM36.542 31.1031C38.5001 31.1031 40.0895 29.2422 40.0895 26.9467C40.0895 24.6513 38.5001 22.7921 36.542 22.7921C34.5838 22.7921 32.9945 24.653 32.9945 26.9479C32.9945 29.2427 34.5838 31.1031 36.542 31.1031Z" fill="white"/>
<path fill-rule="evenodd" clip-rule="evenodd" d="M24.7803 15.959H28.8739V32.9662H26.6266V17.8243H24.7803V15.959Z" fill="white"/>
<path fill-rule="evenodd" clip-rule="evenodd" d="M21.7296 21.0331H23.8544V35.2358C23.8544 36.53 22.5477 37.8779 21.2744 38.4581C20.6724 38.7321 19.5615 38.8949 17.9419 38.9464V37.5335C19.526 37.3495 20.5953 36.9823 21.1497 36.432C21.4695 35.9689 21.6695 35.4277 21.7302 34.8606V30.6881C21.1622 31.9436 20.447 32.7759 19.5845 33.1851C18.6879 33.6891 16.8631 33.6062 16.1181 33.1851C15.3731 32.764 14.2804 31.6552 13.7795 30.0037C13.6408 29.5479 13.2957 28.3075 13.3317 26.9932C13.364 25.7416 13.7617 24.4172 14.0923 23.8729C14.6599 22.9433 15.5548 21.779 16.9104 21.2924C17.5726 21.0546 18.7999 20.9691 20.5923 21.0359V22.4409C19.2603 22.3472 18.4294 22.3941 18.0993 22.5815C17.6043 22.8615 16.4868 23.207 16.1181 25.7444C15.7494 28.2817 16.1289 30.3582 17.2979 31.0084C17.6984 31.2324 18.4068 31.4973 19.0615 31.2637C20.3192 30.8157 21.5028 29.2181 21.5931 28.1356C21.6841 27.0372 21.7296 24.6697 21.7296 21.0331Z" fill="white"/>
<path fill-rule="evenodd" clip-rule="evenodd" d="M48.6097 31.947C46.6032 42.013 38.042 49.5764 27.7859 49.5764C16.0399 49.5764 6.51758 39.6554 6.51758 27.4177C6.51758 19.8152 10.1925 13.1069 15.7921 9.11694C11.2422 13.0481 8.34508 18.9869 8.34508 25.628C8.34508 37.4737 17.5621 47.076 28.9313 47.076C38.1903 47.076 46.0206 40.7082 48.6097 31.947Z" fill="url(#paint3_radial_533_3525)"/>
<path fill-rule="evenodd" clip-rule="evenodd" d="M27.7864 1.17603C13.8759 1.17603 2.59863 12.9248 2.59863 27.4176C2.59863 41.9104 13.8759 53.6598 27.7864 53.6598C41.6969 53.6598 52.9742 41.9104 52.9742 27.4176C52.9742 12.9248 41.6969 1.17603 27.7864 1.17603ZM27.7864 49.5768C16.0404 49.5768 6.51808 39.6559 6.51808 27.4182C6.51808 19.8156 10.193 13.1074 15.7926 9.11738C19.3242 6.59742 23.506 5.25213 27.7864 5.25899C39.5324 5.25899 49.0548 15.1794 49.0548 27.4176C49.0555 28.9392 48.9066 30.4569 48.6102 31.9469C46.6038 42.0129 38.0425 49.5763 27.7864 49.5763V49.5768Z" fill="white"/>
<defs>
<linearGradient id="paint0_linear_533_3525" x1="26.7909" y1="17.8833" x2="29.8019" y2="43.9819" gradientUnits="userSpaceOnUse">
<stop stop-color="#123214"/>
<stop offset="0.46" stop-color="#3E7C37"/>
<stop offset="0.91" stop-color="#5FBB46"/>
</linearGradient>
<linearGradient id="paint1_linear_533_3525" x1="42.8323" y1="16.1848" x2="42.8323" y2="37.3111" gradientUnits="userSpaceOnUse">
<stop stop-color="white" stop-opacity="0"/>
<stop offset="0.64" stop-color="white" stop-opacity="0.43"/>
<stop offset="1" stop-color="white" stop-opacity="0.42"/>
</linearGradient>
<radialGradient id="paint2_radial_533_3525" cx="0" cy="0" r="1" gradientUnits="userSpaceOnUse" gradientTransform="translate(35.2586 12.3657) rotate(27.7167) scale(10.7638 4.59102)">
<stop offset="0.13" stop-color="white"/>
<stop offset="0.29" stop-color="white" stop-opacity="0.69"/>
<stop offset="0.45" stop-color="white" stop-opacity="0.4"/>
<stop offset="0.59" stop-color="white" stop-opacity="0.18"/>
<stop offset="0.69" stop-color="white" stop-opacity="0.05"/>
<stop offset="0.74" stop-color="white" stop-opacity="0"/>
</radialGradient>
<radialGradient id="paint3_radial_533_3525" cx="0" cy="0" r="1" gradientUnits="userSpaceOnUse" gradientTransform="translate(31.4329 22.3123) rotate(40.9997) scale(24.3308 26.6943)">
<stop offset="0.86" stop-opacity="0"/>
<stop offset="0.98" stop-opacity="0.47"/>
<stop offset="1"/>
</radialGradient>
</defs>
</svg>
