<svg width="14" height="16" viewBox="0 0 14 16" fill="none" xmlns="http://www.w3.org/2000/svg">
<path d="M0.333496 5.5H2.00016V0.5H3.66683L6.51683 5.5H10.3335V0.5H12.0002V5.5H13.6668V7.16667H12.0002V8.83333H13.6668V10.5H12.0002V15.5H10.3335L7.47516 10.5H3.66683V15.5H2.00016V10.5H0.333496V8.83333H2.00016V7.16667H0.333496V5.5ZM3.66683 5.5H4.6085L3.66683 3.85833V5.5ZM3.66683 7.16667V8.83333H6.51683L5.56683 7.16667H3.66683ZM10.3335 12.1667V10.5H9.37516L10.3335 12.1667ZM7.46683 7.16667L8.42516 8.83333H10.3335V7.16667H7.46683Z" fill="#2BBA8F"/>
</svg>
