<svg width="20" height="17" viewBox="0 0 20 17" fill="none" xmlns="http://www.w3.org/2000/svg">
<path d="M0.833008 8.00008C0.833008 8.00008 4.32301 3.00008 9.99967 3.00008C10.7888 3.00008 11.5322 3.10091 12.2313 3.26841L6.96634 8.53342C6.7698 8.10454 6.6675 7.63851 6.66634 7.16675C6.66634 6.38591 6.94551 5.67758 7.39551 5.10925C5.40217 5.78591 3.88384 7.09675 3.01717 8.00008C3.75546 8.77034 4.59014 9.44201 5.50051 9.99841L4.28967 11.2092C2.08051 9.77508 0.833008 8.00008 0.833008 8.00008ZM19.1663 8.00008C19.1663 8.00008 15.6763 13.0001 9.99967 13.0001C9.21134 13.0001 8.46968 12.8967 7.76968 12.7309L4.16634 16.3334L2.91634 15.0834L17.083 0.916748L18.333 2.16675L15.7105 4.78925C17.9172 6.22425 19.1663 8.00008 19.1663 8.00008ZM16.9872 8.00508C16.2476 7.2327 15.4109 6.55958 14.498 6.00258L13.333 7.16675C13.333 8.0508 12.9818 8.89865 12.3567 9.52377C11.7316 10.1489 10.8837 10.5001 9.99967 10.5001L9.21051 11.2892C9.46884 11.3151 9.73051 11.3334 9.99967 11.3334C13.3147 11.3334 15.7855 9.26841 16.9872 8.00508Z" fill="#2BBA8F"/>
</svg>
