<svg width="16" height="16" viewBox="0 0 16 16" fill="none" xmlns="http://www.w3.org/2000/svg">
<path d="M15.8539 15.854C15.7845 15.9232 15.6964 15.9705 15.6004 15.9901C15.5044 16.0097 15.4047 16.0006 15.3139 15.964L0.76685 10.145C0.638741 10.0937 0.527261 10.0081 0.444682 9.89752C0.362103 9.78697 0.311625 9.65577 0.298806 9.51838C0.285987 9.38098 0.311321 9.24271 0.372023 9.11879C0.432724 8.99486 0.526438 8.89009 0.64285 8.81599L5.63785 5.63799L8.81585 0.642993C8.88987 0.526311 8.99468 0.432344 9.11872 0.371463C9.24277 0.310581 9.38122 0.285151 9.5188 0.297978C9.65638 0.310805 9.78774 0.361391 9.89839 0.444154C10.009 0.526917 10.0947 0.638639 10.1459 0.766993L15.9629 15.314C15.9994 15.4049 16.0085 15.5045 15.989 15.6005C15.9694 15.6965 15.9221 15.7847 15.8529 15.854H15.8539ZM5.92985 6.63599L1.59185 9.39699L13.4239 14.13L5.92985 6.63599ZM14.1309 13.423L9.39785 1.59099L6.63785 5.92999L14.1309 13.423Z" fill="#2BBA8F"/>
</svg>
