<svg width="284" height="179" viewBox="0 0 284 179" fill="none" xmlns="http://www.w3.org/2000/svg">
<rect x="35.75" y="25.875" width="248" height="107.25" rx="11.1719" fill="#626262"/>
<rect x="26.8125" y="21.4062" width="248" height="116.188" rx="11.1719" fill="#535353"/>
<rect x="17.875" y="16.9375" width="248" height="125.125" rx="11.1719" fill="#434141"/>
<rect x="8.9375" y="12.4688" width="248" height="134.062" rx="11.1719" fill="#312F2F"/>
<rect width="248" height="143" rx="11.1719" fill="#201F1F"/>
<path d="M21.6109 25.3982V37.875H19.1084V25.3982H21.6109ZM29.571 27.8292C30.7507 27.8292 31.7041 28.2046 32.431 28.9554C33.1579 29.6942 33.5214 30.731 33.5214 32.0656V37.875H31.0189V32.4052C31.0189 31.6187 30.8222 31.017 30.429 30.5999C30.0357 30.1709 29.4995 29.9564 28.8202 29.9564C28.1291 29.9564 27.5809 30.1709 27.1757 30.5999C26.7825 31.017 26.5859 31.6187 26.5859 32.4052V37.875H24.0834V27.9722H26.5859V29.2056C26.9195 28.7766 27.3426 28.443 27.855 28.2046C28.3793 27.9544 28.9513 27.8292 29.571 27.8292ZM40.0302 35.5691L42.5327 27.9722H45.1961L41.5317 37.875H38.493L34.8465 27.9722H37.5277L40.0302 35.5691ZM55.8073 32.7091C55.8073 33.0666 55.7835 33.3884 55.7358 33.6744H48.4964C48.556 34.3894 48.8062 34.9495 49.2472 35.3546C49.6881 35.7598 50.2303 35.9624 50.8738 35.9624C51.8033 35.9624 52.4647 35.5632 52.8579 34.7647H55.557C55.271 35.7181 54.7229 36.5046 53.9125 37.1242C53.1022 37.732 52.1072 38.0359 50.9274 38.0359C49.9741 38.0359 49.1161 37.8273 48.3534 37.4102C47.6027 36.9812 47.0128 36.3795 46.5838 35.6049C46.1667 34.8303 45.9582 33.9365 45.9582 32.9236C45.9582 31.8988 46.1667 30.9991 46.5838 30.2245C47.0009 29.4499 47.5848 28.8541 48.3355 28.437C49.0863 28.0199 49.9502 27.8114 50.9274 27.8114C51.8688 27.8114 52.709 28.014 53.4478 28.4191C54.1985 28.8243 54.7765 29.4022 55.1817 30.153C55.5987 30.8918 55.8073 31.7439 55.8073 32.7091ZM53.2154 31.9941C53.2035 31.3506 52.9711 30.8382 52.5183 30.4569C52.0655 30.0636 51.5113 29.867 50.8559 29.867C50.2362 29.867 49.7119 30.0577 49.2829 30.439C48.8658 30.8084 48.6096 31.3268 48.5143 31.9941H53.2154ZM61.4234 38.0359C60.6131 38.0359 59.8861 37.8929 59.2426 37.6069C58.5991 37.309 58.0867 36.9097 57.7054 36.4092C57.336 35.9087 57.1334 35.3546 57.0976 34.7469H59.618C59.6657 35.1282 59.8504 35.444 60.1721 35.6942C60.5058 35.9445 60.9169 36.0696 61.4055 36.0696C61.8822 36.0696 62.2516 35.9743 62.5138 35.7836C62.7878 35.593 62.9249 35.3487 62.9249 35.0507C62.9249 34.729 62.7581 34.4907 62.4244 34.3357C62.1026 34.1689 61.5843 33.9902 60.8693 33.7995C60.1304 33.6207 59.5227 33.436 59.046 33.2454C58.5813 33.0547 58.1761 32.7627 57.8305 32.3695C57.4968 31.9762 57.33 31.446 57.33 30.7786C57.33 30.2305 57.4849 29.73 57.7948 29.2771C58.1165 28.8243 58.5693 28.4668 59.1533 28.2046C59.7491 27.9425 60.4462 27.8114 61.2446 27.8114C62.4244 27.8114 63.3658 28.1093 64.0689 28.7051C64.772 29.289 65.1593 30.0815 65.2308 31.0825H62.8355C62.7998 30.6892 62.6329 30.3794 62.335 30.153C62.049 29.9147 61.6617 29.7955 61.1731 29.7955C60.7203 29.7955 60.3688 29.8789 60.1185 30.0457C59.8802 30.2126 59.761 30.445 59.761 30.7429C59.761 31.0765 59.9278 31.3327 60.2615 31.5115C60.5952 31.6783 61.1136 31.8511 61.8166 32.0299C62.5316 32.2086 63.1215 32.3933 63.5863 32.584C64.051 32.7747 64.4502 33.0726 64.7839 33.4777C65.1295 33.871 65.3082 34.3953 65.3201 35.0507C65.3201 35.6227 65.1593 36.1352 64.8375 36.588C64.5277 37.0408 64.0748 37.3983 63.479 37.6605C62.8951 37.9108 62.2099 38.0359 61.4234 38.0359ZM70.288 30.0279V34.8184C70.288 35.152 70.3654 35.3963 70.5204 35.5512C70.6872 35.6942 70.9613 35.7657 71.3426 35.7657H72.5045V37.875H70.9315C68.8222 37.875 67.7676 36.8502 67.7676 34.8005V30.0279H66.5879V27.9722H67.7676V25.5234H70.288V27.9722H72.5045V30.0279H70.288ZM86.6024 27.8292C87.8179 27.8292 88.7951 28.2046 89.5339 28.9554C90.2847 29.6942 90.66 30.731 90.66 32.0656V37.875H88.1575V32.4052C88.1575 31.6307 87.9609 31.0408 87.5677 30.6356C87.1744 30.2185 86.6382 30.01 85.9589 30.01C85.2797 30.01 84.7375 30.2185 84.3323 30.6356C83.939 31.0408 83.7424 31.6307 83.7424 32.4052V37.875H81.2399V32.4052C81.2399 31.6307 81.0433 31.0408 80.65 30.6356C80.2568 30.2185 79.7205 30.01 79.0413 30.01C78.3501 30.01 77.802 30.2185 77.3968 30.6356C77.0035 31.0408 76.8069 31.6307 76.8069 32.4052V37.875H74.3044V27.9722H76.8069V29.1699C77.1287 28.7528 77.5398 28.4251 78.0403 28.1867C78.5527 27.9484 79.1128 27.8292 79.7205 27.8292C80.4951 27.8292 81.1863 27.9961 81.794 28.3297C82.4018 28.6515 82.8725 29.1162 83.2062 29.724C83.5279 29.152 83.9927 28.6932 84.6004 28.3476C85.2201 28.002 85.8874 27.8292 86.6024 27.8292ZM102.24 32.7091C102.24 33.0666 102.217 33.3884 102.169 33.6744H94.9295C94.9891 34.3894 95.2394 34.9495 95.6803 35.3546C96.1212 35.7598 96.6634 35.9624 97.3069 35.9624C98.2364 35.9624 98.8978 35.5632 99.291 34.7647H101.99C101.704 35.7181 101.156 36.5046 100.346 37.1242C99.5353 37.732 98.5403 38.0359 97.3605 38.0359C96.4072 38.0359 95.5492 37.8273 94.7865 37.4102C94.0358 36.9812 93.4459 36.3795 93.0169 35.6049C92.5998 34.8303 92.3913 33.9365 92.3913 32.9236C92.3913 31.8988 92.5998 30.9991 93.0169 30.2245C93.434 29.4499 94.0179 28.8541 94.7686 28.437C95.5194 28.0199 96.3834 27.8114 97.3605 27.8114C98.3019 27.8114 99.1421 28.014 99.8809 28.4191C100.632 28.8243 101.21 29.4022 101.615 30.153C102.032 30.8918 102.24 31.7439 102.24 32.7091ZM99.6485 31.9941C99.6366 31.3506 99.4042 30.8382 98.9514 30.4569C98.4986 30.0636 97.9444 29.867 97.289 29.867C96.6694 29.867 96.145 30.0577 95.716 30.439C95.2989 30.8084 95.0427 31.3268 94.9474 31.9941H99.6485ZM109.555 27.8292C110.734 27.8292 111.688 28.2046 112.415 28.9554C113.142 29.6942 113.505 30.731 113.505 32.0656V37.875H111.002V32.4052C111.002 31.6187 110.806 31.017 110.413 30.5999C110.019 30.1709 109.483 29.9564 108.804 29.9564C108.113 29.9564 107.565 30.1709 107.159 30.5999C106.766 31.017 106.569 31.6187 106.569 32.4052V37.875H104.067V27.9722H106.569V29.2056C106.903 28.7766 107.326 28.443 107.839 28.2046C108.363 27.9544 108.935 27.8292 109.555 27.8292ZM118.798 30.0279V34.8184C118.798 35.152 118.876 35.3963 119.031 35.5512C119.198 35.6942 119.472 35.7657 119.853 35.7657H121.015V37.875H119.442C117.333 37.875 116.278 36.8502 116.278 34.8005V30.0279H115.098V27.9722H116.278V25.5234H118.798V27.9722H121.015V30.0279H118.798Z" fill="#F0F0F0"/>
<path d="M19.891 54.7922V63.1562H18.799V54.7922H19.891ZM24.9561 56.4602C25.7561 56.4602 26.4041 56.7042 26.9001 57.1922C27.3961 57.6722 27.6441 58.3682 27.6441 59.2802V63.1562H26.5641V59.4362C26.5641 58.7802 26.4001 58.2802 26.0721 57.9362C25.7441 57.5842 25.2961 57.4082 24.7281 57.4082C24.1521 57.4082 23.6921 57.5882 23.3481 57.9482C23.0121 58.3082 22.8441 58.8322 22.8441 59.5202V63.1562H21.7521V56.5802H22.8441V57.5162C23.0601 57.1802 23.3521 56.9202 23.7201 56.7362C24.0961 56.5522 24.5081 56.4602 24.9561 56.4602ZM31.8759 62.1482L33.9159 56.5802H35.0799L32.4999 63.1562H31.2279L28.6479 56.5802H29.8239L31.8759 62.1482ZM42.1545 59.6162C42.1545 59.8242 42.1425 60.0442 42.1185 60.2762H36.8625C36.9025 60.9242 37.1225 61.4322 37.5225 61.8002C37.9305 62.1602 38.4225 62.3402 38.9985 62.3402C39.4705 62.3402 39.8625 62.2322 40.1745 62.0162C40.4945 61.7922 40.7185 61.4962 40.8465 61.1282H42.0225C41.8465 61.7602 41.4945 62.2762 40.9665 62.6762C40.4385 63.0682 39.7825 63.2643 38.9985 63.2643C38.3745 63.2643 37.8145 63.1243 37.3185 62.8442C36.8305 62.5642 36.4465 62.1682 36.1665 61.6562C35.8865 61.1362 35.7465 60.5362 35.7465 59.8562C35.7465 59.1762 35.8825 58.5802 36.1545 58.0682C36.4265 57.5562 36.8065 57.1642 37.2945 56.8922C37.7905 56.6122 38.3585 56.4722 38.9985 56.4722C39.6225 56.4722 40.1745 56.6082 40.6545 56.8802C41.1345 57.1522 41.5025 57.5282 41.7585 58.0082C42.0225 58.4802 42.1545 59.0162 42.1545 59.6162ZM41.0265 59.3882C41.0265 58.9722 40.9345 58.6162 40.7505 58.3202C40.5665 58.0162 40.3145 57.7882 39.9945 57.6362C39.6825 57.4762 39.3345 57.3962 38.9505 57.3962C38.3985 57.3962 37.9265 57.5722 37.5345 57.9242C37.1505 58.2762 36.9305 58.7642 36.8745 59.3882H41.0265ZM45.9239 63.2643C45.4199 63.2643 44.9679 63.1803 44.5679 63.0122C44.1679 62.8362 43.8519 62.5962 43.6199 62.2922C43.3879 61.9802 43.2599 61.6242 43.2359 61.2242H44.3639C44.3959 61.5522 44.5479 61.8202 44.8199 62.0282C45.0999 62.2362 45.4639 62.3402 45.9119 62.3402C46.3279 62.3402 46.6559 62.2482 46.8959 62.0642C47.1359 61.8802 47.2559 61.6482 47.2559 61.3682C47.2559 61.0802 47.1279 60.8682 46.8719 60.7322C46.6159 60.5882 46.2199 60.4482 45.6839 60.3122C45.1959 60.1842 44.7959 60.0562 44.4839 59.9282C44.1799 59.7922 43.9159 59.5962 43.6919 59.3402C43.4759 59.0762 43.3679 58.7322 43.3679 58.3082C43.3679 57.9722 43.4679 57.6642 43.6679 57.3842C43.8679 57.1042 44.1519 56.8842 44.5199 56.7242C44.8879 56.5562 45.3079 56.4722 45.7799 56.4722C46.5079 56.4722 47.0959 56.6562 47.5439 57.0242C47.9919 57.3922 48.2319 57.8962 48.2639 58.5362H47.1719C47.1479 58.1922 47.0079 57.9162 46.7519 57.7082C46.5039 57.5002 46.1679 57.3962 45.7439 57.3962C45.3519 57.3962 45.0399 57.4802 44.8079 57.6482C44.5759 57.8162 44.4599 58.0362 44.4599 58.3082C44.4599 58.5242 44.5279 58.7042 44.6639 58.8482C44.8079 58.9842 44.9839 59.0962 45.1919 59.1842C45.4079 59.2642 45.7039 59.3562 46.0799 59.4602C46.5519 59.5882 46.9359 59.7162 47.2319 59.8442C47.5279 59.9642 47.7799 60.1482 47.9879 60.3962C48.2039 60.6442 48.3159 60.9682 48.3239 61.3682C48.3239 61.7282 48.2239 62.0522 48.0239 62.3402C47.8239 62.6282 47.5399 62.8562 47.1719 63.0242C46.8119 63.1843 46.3959 63.2643 45.9239 63.2643ZM51.1974 57.4802V61.3562C51.1974 61.6762 51.2654 61.9042 51.4014 62.0402C51.5374 62.1682 51.7734 62.2322 52.1094 62.2322H52.9134V63.1562H51.9294C51.3214 63.1562 50.8654 63.0162 50.5614 62.7362C50.2574 62.4562 50.1054 61.9962 50.1054 61.3562V57.4802H49.2534V56.5802H50.1054V54.9242H51.1974V56.5802H52.9134V57.4802H51.1974ZM62.1445 56.4602C62.6565 56.4602 63.1125 56.5682 63.5125 56.7842C63.9125 56.9922 64.2285 57.3082 64.4605 57.7322C64.6925 58.1562 64.8085 58.6722 64.8085 59.2802V63.1562H63.7285V59.4362C63.7285 58.7802 63.5645 58.2802 63.2365 57.9362C62.9165 57.5842 62.4805 57.4082 61.9285 57.4082C61.3605 57.4082 60.9085 57.5922 60.5725 57.9602C60.2365 58.3202 60.0685 58.8442 60.0685 59.5322V63.1562H58.9885V59.4362C58.9885 58.7802 58.8245 58.2802 58.4965 57.9362C58.1765 57.5842 57.7405 57.4082 57.1885 57.4082C56.6205 57.4082 56.1685 57.5922 55.8325 57.9602C55.4965 58.3202 55.3285 58.8442 55.3285 59.5322V63.1562H54.2365V56.5802H55.3285V57.5282C55.5445 57.1842 55.8325 56.9202 56.1925 56.7362C56.5605 56.5522 56.9645 56.4602 57.4045 56.4602C57.9565 56.4602 58.4445 56.5842 58.8685 56.8322C59.2925 57.0802 59.6085 57.4442 59.8165 57.9242C60.0005 57.4602 60.3045 57.1002 60.7285 56.8442C61.1525 56.5882 61.6245 56.4602 62.1445 56.4602ZM72.5998 59.6162C72.5998 59.8242 72.5878 60.0442 72.5638 60.2762H67.3078C67.3478 60.9242 67.5678 61.4322 67.9678 61.8002C68.3758 62.1602 68.8678 62.3402 69.4438 62.3402C69.9158 62.3402 70.3078 62.2322 70.6198 62.0162C70.9398 61.7922 71.1638 61.4962 71.2918 61.1282H72.4678C72.2918 61.7602 71.9398 62.2762 71.4118 62.6762C70.8838 63.0682 70.2278 63.2643 69.4438 63.2643C68.8198 63.2643 68.2598 63.1243 67.7638 62.8442C67.2758 62.5642 66.8918 62.1682 66.6118 61.6562C66.3318 61.1362 66.1918 60.5362 66.1918 59.8562C66.1918 59.1762 66.3278 58.5802 66.5998 58.0682C66.8718 57.5562 67.2518 57.1642 67.7398 56.8922C68.2358 56.6122 68.8038 56.4722 69.4438 56.4722C70.0678 56.4722 70.6198 56.6082 71.0998 56.8802C71.5798 57.1522 71.9478 57.5282 72.2038 58.0082C72.4678 58.4802 72.5998 59.0162 72.5998 59.6162ZM71.4718 59.3882C71.4718 58.9722 71.3798 58.6162 71.1958 58.3202C71.0118 58.0162 70.7598 57.7882 70.4398 57.6362C70.1278 57.4762 69.7798 57.3962 69.3958 57.3962C68.8438 57.3962 68.3718 57.5722 67.9798 57.9242C67.5958 58.2762 67.3758 58.7642 67.3198 59.3882H71.4718ZM77.2452 56.4602C78.0452 56.4602 78.6932 56.7042 79.1892 57.1922C79.6852 57.6722 79.9332 58.3682 79.9332 59.2802V63.1562H78.8532V59.4362C78.8532 58.7802 78.6892 58.2802 78.3612 57.9362C78.0332 57.5842 77.5852 57.4082 77.0172 57.4082C76.4412 57.4082 75.9812 57.5882 75.6372 57.9482C75.3012 58.3082 75.1332 58.8322 75.1332 59.5202V63.1562H74.0412V56.5802H75.1332V57.5162C75.3492 57.1802 75.6412 56.9202 76.0092 56.7362C76.3852 56.5522 76.7972 56.4602 77.2452 56.4602ZM83.049 57.4802V61.3562C83.049 61.6762 83.117 61.9042 83.253 62.0402C83.389 62.1682 83.625 62.2322 83.961 62.2322H84.765V63.1562H83.781C83.173 63.1562 82.717 63.0162 82.413 62.7362C82.109 62.4562 81.957 61.9962 81.957 61.3562V57.4802H81.105V56.5802H81.957V54.9242H83.049V56.5802H84.765V57.4802H83.049ZM90.3793 57.6482C90.5713 57.2722 90.8433 56.9802 91.1953 56.7722C91.5553 56.5642 91.9913 56.4602 92.5033 56.4602V57.5882H92.2153C90.9913 57.5882 90.3793 58.2522 90.3793 59.5802V63.1562H89.2873V56.5802H90.3793V57.6482ZM99.7638 59.6162C99.7638 59.8242 99.7518 60.0442 99.7278 60.2762H94.4718C94.5118 60.9242 94.7318 61.4322 95.1318 61.8002C95.5398 62.1602 96.0318 62.3402 96.6078 62.3402C97.0798 62.3402 97.4718 62.2322 97.7838 62.0162C98.1038 61.7922 98.3278 61.4962 98.4558 61.1282H99.6318C99.4558 61.7602 99.1038 62.2762 98.5758 62.6762C98.0478 63.0682 97.3918 63.2643 96.6078 63.2643C95.9838 63.2643 95.4238 63.1243 94.9278 62.8442C94.4398 62.5642 94.0558 62.1682 93.7758 61.6562C93.4958 61.1362 93.3558 60.5362 93.3558 59.8562C93.3558 59.1762 93.4918 58.5802 93.7638 58.0682C94.0358 57.5562 94.4158 57.1642 94.9038 56.8922C95.3998 56.6122 95.9678 56.4722 96.6078 56.4722C97.2318 56.4722 97.7838 56.6082 98.2638 56.8802C98.7438 57.1522 99.1118 57.5282 99.3678 58.0082C99.6318 58.4802 99.7638 59.0162 99.7638 59.6162ZM98.6358 59.3882C98.6358 58.9722 98.5438 58.6162 98.3598 58.3202C98.1758 58.0162 97.9238 57.7882 97.6038 57.6362C97.2918 57.4762 96.9438 57.3962 96.5598 57.3962C96.0078 57.3962 95.5358 57.5722 95.1438 57.9242C94.7598 58.2762 94.5398 58.7642 94.4838 59.3882H98.6358ZM103.881 57.4802H102.501V63.1562H101.409V57.4802H100.557V56.5802H101.409V56.1122C101.409 55.3762 101.597 54.8402 101.973 54.5042C102.357 54.1602 102.969 53.9882 103.809 53.9882V54.9002C103.329 54.9002 102.989 54.9962 102.789 55.1882C102.597 55.3722 102.501 55.6802 102.501 56.1122V56.5802H103.881V57.4802ZM111.154 59.6162C111.154 59.8242 111.142 60.0442 111.118 60.2762H105.862C105.902 60.9242 106.122 61.4322 106.522 61.8002C106.93 62.1602 107.422 62.3402 107.998 62.3402C108.47 62.3402 108.862 62.2322 109.174 62.0162C109.494 61.7922 109.718 61.4962 109.846 61.1282H111.022C110.846 61.7602 110.494 62.2762 109.966 62.6762C109.438 63.0682 108.782 63.2643 107.998 63.2643C107.374 63.2643 106.814 63.1243 106.318 62.8442C105.83 62.5642 105.446 62.1682 105.166 61.6562C104.886 61.1362 104.746 60.5362 104.746 59.8562C104.746 59.1762 104.882 58.5802 105.154 58.0682C105.426 57.5562 105.806 57.1642 106.294 56.8922C106.79 56.6122 107.358 56.4722 107.998 56.4722C108.622 56.4722 109.174 56.6082 109.654 56.8802C110.134 57.1522 110.502 57.5282 110.758 58.0082C111.022 58.4802 111.154 59.0162 111.154 59.6162ZM110.026 59.3882C110.026 58.9722 109.934 58.6162 109.75 58.3202C109.566 58.0162 109.314 57.7882 108.994 57.6362C108.682 57.4762 108.334 57.3962 107.95 57.3962C107.398 57.3962 106.926 57.5722 106.534 57.9242C106.15 58.2762 105.93 58.7642 105.874 59.3882H110.026ZM113.688 57.6482C113.88 57.2722 114.152 56.9802 114.504 56.7722C114.864 56.5642 115.3 56.4602 115.812 56.4602V57.5882H115.524C114.3 57.5882 113.688 58.2522 113.688 59.5802V63.1562H112.596V56.5802H113.688V57.6482ZM119.4 63.2643C118.896 63.2643 118.444 63.1803 118.044 63.0122C117.644 62.8362 117.328 62.5962 117.096 62.2922C116.864 61.9802 116.736 61.6242 116.712 61.2242H117.84C117.872 61.5522 118.024 61.8202 118.296 62.0282C118.576 62.2362 118.94 62.3402 119.388 62.3402C119.804 62.3402 120.132 62.2482 120.372 62.0642C120.612 61.8802 120.732 61.6482 120.732 61.3682C120.732 61.0802 120.604 60.8682 120.348 60.7322C120.092 60.5882 119.696 60.4482 119.16 60.3122C118.672 60.1842 118.272 60.0562 117.96 59.9282C117.656 59.7922 117.392 59.5962 117.168 59.3402C116.952 59.0762 116.844 58.7322 116.844 58.3082C116.844 57.9722 116.944 57.6642 117.144 57.3842C117.344 57.1042 117.628 56.8842 117.996 56.7242C118.364 56.5562 118.784 56.4722 119.256 56.4722C119.984 56.4722 120.572 56.6562 121.02 57.0242C121.468 57.3922 121.708 57.8962 121.74 58.5362H120.648C120.624 58.1922 120.484 57.9162 120.228 57.7082C119.98 57.5002 119.644 57.3962 119.22 57.3962C118.828 57.3962 118.516 57.4802 118.284 57.6482C118.052 57.8162 117.936 58.0362 117.936 58.3082C117.936 58.5242 118.004 58.7042 118.14 58.8482C118.284 58.9842 118.46 59.0962 118.668 59.1842C118.884 59.2642 119.18 59.3562 119.556 59.4602C120.028 59.5882 120.412 59.7162 120.708 59.8442C121.004 59.9642 121.256 60.1482 121.464 60.3962C121.68 60.6442 121.792 60.9682 121.8 61.3682C121.8 61.7282 121.7 62.0522 121.5 62.3402C121.3 62.6282 121.016 62.8562 120.648 63.0242C120.288 63.1843 119.872 63.2643 119.4 63.2643ZM127.873 57.4802V61.3562C127.873 61.6762 127.941 61.9042 128.077 62.0402C128.213 62.1682 128.449 62.2322 128.785 62.2322H129.589V63.1562H128.605C127.997 63.1562 127.541 63.0162 127.237 62.7362C126.933 62.4562 126.781 61.9962 126.781 61.3562V57.4802H125.929V56.5802H126.781V54.9242H127.873V56.5802H129.589V57.4802H127.873ZM133.78 63.2643C133.164 63.2643 132.604 63.1243 132.1 62.8442C131.604 62.5642 131.212 62.1682 130.924 61.6562C130.644 61.1362 130.504 60.5362 130.504 59.8562C130.504 59.1842 130.648 58.5922 130.936 58.0802C131.232 57.5602 131.632 57.1642 132.136 56.8922C132.64 56.6122 133.204 56.4722 133.828 56.4722C134.452 56.4722 135.016 56.6122 135.52 56.8922C136.024 57.1642 136.42 57.5562 136.708 58.0682C137.004 58.5802 137.152 59.1762 137.152 59.8562C137.152 60.5362 137 61.1362 136.696 61.6562C136.4 62.1682 135.996 62.5642 135.484 62.8442C134.972 63.1243 134.404 63.2643 133.78 63.2643ZM133.78 62.3042C134.172 62.3042 134.54 62.2122 134.884 62.0282C135.228 61.8442 135.504 61.5682 135.712 61.2002C135.928 60.8322 136.036 60.3842 136.036 59.8562C136.036 59.3282 135.932 58.8802 135.724 58.5122C135.516 58.1442 135.244 57.8722 134.908 57.6962C134.572 57.5122 134.208 57.4202 133.816 57.4202C133.416 57.4202 133.048 57.5122 132.712 57.6962C132.384 57.8722 132.12 58.1442 131.92 58.5122C131.72 58.8802 131.62 59.3282 131.62 59.8562C131.62 60.3922 131.716 60.8442 131.908 61.2122C132.108 61.5802 132.372 61.8562 132.7 62.0402C133.028 62.2162 133.388 62.3042 133.78 62.3042ZM143.119 57.4802V61.3562C143.119 61.6762 143.187 61.9042 143.323 62.0402C143.459 62.1682 143.695 62.2322 144.031 62.2322H144.835V63.1562H143.851C143.243 63.1562 142.787 63.0162 142.483 62.7362C142.179 62.4562 142.027 61.9962 142.027 61.3562V57.4802H141.175V56.5802H142.027V54.9242H143.119V56.5802H144.835V57.4802H143.119ZM149.422 56.4602C149.918 56.4602 150.366 56.5682 150.766 56.7842C151.166 56.9922 151.478 57.3082 151.702 57.7322C151.934 58.1562 152.05 58.6722 152.05 59.2802V63.1562H150.97V59.4362C150.97 58.7802 150.806 58.2802 150.478 57.9362C150.15 57.5842 149.702 57.4082 149.134 57.4082C148.558 57.4082 148.098 57.5882 147.754 57.9482C147.418 58.3082 147.25 58.8322 147.25 59.5202V63.1562H146.158V54.2762H147.25V57.5162C147.466 57.1802 147.762 56.9202 148.138 56.7362C148.522 56.5522 148.95 56.4602 149.422 56.4602ZM159.834 59.6162C159.834 59.8242 159.822 60.0442 159.798 60.2762H154.542C154.582 60.9242 154.802 61.4322 155.202 61.8002C155.61 62.1602 156.102 62.3402 156.678 62.3402C157.15 62.3402 157.542 62.2322 157.854 62.0162C158.174 61.7922 158.398 61.4962 158.526 61.1282H159.702C159.526 61.7602 159.174 62.2762 158.646 62.6762C158.118 63.0682 157.462 63.2643 156.678 63.2643C156.054 63.2643 155.494 63.1243 154.998 62.8442C154.51 62.5642 154.126 62.1682 153.846 61.6562C153.566 61.1362 153.426 60.5362 153.426 59.8562C153.426 59.1762 153.562 58.5802 153.834 58.0682C154.106 57.5562 154.486 57.1642 154.974 56.8922C155.47 56.6122 156.038 56.4722 156.678 56.4722C157.302 56.4722 157.854 56.6082 158.334 56.8802C158.814 57.1522 159.182 57.5282 159.438 58.0082C159.702 58.4802 159.834 59.0162 159.834 59.6162ZM158.706 59.3882C158.706 58.9722 158.614 58.6162 158.43 58.3202C158.246 58.0162 157.994 57.7882 157.674 57.6362C157.362 57.4762 157.014 57.3962 156.63 57.3962C156.078 57.3962 155.606 57.5722 155.214 57.9242C154.83 58.2762 154.61 58.7642 154.554 59.3882H158.706ZM164.067 59.8442C164.067 59.1722 164.203 58.5842 164.475 58.0802C164.747 57.5682 165.119 57.1722 165.591 56.8922C166.071 56.6122 166.603 56.4722 167.187 56.4722C167.763 56.4722 168.263 56.5962 168.687 56.8442C169.111 57.0922 169.427 57.4042 169.635 57.7802V56.5802H170.739V63.1562H169.635V61.9322C169.419 62.3162 169.095 62.6362 168.663 62.8922C168.239 63.1402 167.743 63.2643 167.175 63.2643C166.591 63.2643 166.063 63.1203 165.591 62.8322C165.119 62.5442 164.747 62.1402 164.475 61.6202C164.203 61.1002 164.067 60.5082 164.067 59.8442ZM169.635 59.8562C169.635 59.3602 169.535 58.9282 169.335 58.5602C169.135 58.1922 168.863 57.9122 168.519 57.7202C168.183 57.5202 167.811 57.4202 167.403 57.4202C166.995 57.4202 166.623 57.5162 166.287 57.7082C165.951 57.9002 165.683 58.1802 165.483 58.5482C165.283 58.9162 165.183 59.3482 165.183 59.8442C165.183 60.3482 165.283 60.7882 165.483 61.1642C165.683 61.5322 165.951 61.8162 166.287 62.0162C166.623 62.2082 166.995 62.3042 167.403 62.3042C167.811 62.3042 168.183 62.2082 168.519 62.0162C168.863 61.8162 169.135 61.5322 169.335 61.1642C169.535 60.7882 169.635 60.3522 169.635 59.8562ZM173.676 54.2762V63.1562H172.584V54.2762H173.676ZM176.629 54.2762V63.1562H175.537V54.2762H176.629ZM181.358 63.2643C180.742 63.2643 180.182 63.1243 179.678 62.8442C179.182 62.5642 178.79 62.1682 178.502 61.6562C178.222 61.1362 178.082 60.5362 178.082 59.8562C178.082 59.1842 178.226 58.5922 178.514 58.0802C178.81 57.5602 179.21 57.1642 179.714 56.8922C180.218 56.6122 180.782 56.4722 181.406 56.4722C182.03 56.4722 182.594 56.6122 183.098 56.8922C183.602 57.1642 183.998 57.5562 184.286 58.0682C184.582 58.5802 184.73 59.1762 184.73 59.8562C184.73 60.5362 184.578 61.1362 184.274 61.6562C183.978 62.1682 183.574 62.5642 183.062 62.8442C182.55 63.1243 181.982 63.2643 181.358 63.2643ZM181.358 62.3042C181.75 62.3042 182.118 62.2122 182.462 62.0282C182.806 61.8442 183.082 61.5682 183.29 61.2002C183.506 60.8322 183.614 60.3842 183.614 59.8562C183.614 59.3282 183.51 58.8802 183.302 58.5122C183.094 58.1442 182.822 57.8722 182.486 57.6962C182.15 57.5122 181.786 57.4202 181.394 57.4202C180.994 57.4202 180.626 57.5122 180.29 57.6962C179.962 57.8722 179.698 58.1442 179.498 58.5122C179.298 58.8802 179.198 59.3282 179.198 59.8562C179.198 60.3922 179.294 60.8442 179.486 61.2122C179.686 61.5802 179.95 61.8562 180.278 62.0402C180.606 62.2162 180.966 62.3042 181.358 62.3042ZM185.758 59.8562C185.758 59.1762 185.894 58.5842 186.166 58.0802C186.438 57.5682 186.814 57.1722 187.294 56.8922C187.782 56.6122 188.338 56.4722 188.962 56.4722C189.77 56.4722 190.434 56.6682 190.954 57.0602C191.482 57.4522 191.83 57.9962 191.998 58.6922H190.822C190.71 58.2922 190.49 57.9762 190.162 57.7442C189.842 57.5122 189.442 57.3962 188.962 57.3962C188.338 57.3962 187.834 57.6122 187.45 58.0442C187.066 58.4682 186.874 59.0722 186.874 59.8562C186.874 60.6482 187.066 61.2602 187.45 61.6922C187.834 62.1242 188.338 62.3402 188.962 62.3402C189.442 62.3402 189.842 62.2282 190.162 62.0042C190.482 61.7802 190.702 61.4602 190.822 61.0442H191.998C191.822 61.7162 191.47 62.2562 190.942 62.6642C190.414 63.0642 189.754 63.2643 188.962 63.2643C188.338 63.2643 187.782 63.1243 187.294 62.8442C186.814 62.5642 186.438 62.1682 186.166 61.6562C185.894 61.1442 185.758 60.5442 185.758 59.8562ZM193.047 59.8442C193.047 59.1722 193.183 58.5842 193.455 58.0802C193.727 57.5682 194.099 57.1722 194.571 56.8922C195.051 56.6122 195.583 56.4722 196.167 56.4722C196.743 56.4722 197.243 56.5962 197.667 56.8442C198.091 57.0922 198.407 57.4042 198.615 57.7802V56.5802H199.719V63.1562H198.615V61.9322C198.399 62.3162 198.075 62.6362 197.643 62.8922C197.219 63.1402 196.723 63.2643 196.155 63.2643C195.571 63.2643 195.043 63.1203 194.571 62.8322C194.099 62.5442 193.727 62.1402 193.455 61.6202C193.183 61.1002 193.047 60.5082 193.047 59.8442ZM198.615 59.8562C198.615 59.3602 198.515 58.9282 198.315 58.5602C198.115 58.1922 197.843 57.9122 197.499 57.7202C197.163 57.5202 196.791 57.4202 196.383 57.4202C195.975 57.4202 195.603 57.5162 195.267 57.7082C194.931 57.9002 194.663 58.1802 194.463 58.5482C194.263 58.9162 194.163 59.3482 194.163 59.8442C194.163 60.3482 194.263 60.7882 194.463 61.1642C194.663 61.5322 194.931 61.8162 195.267 62.0162C195.603 62.2082 195.975 62.3042 196.383 62.3042C196.791 62.3042 197.163 62.2082 197.499 62.0162C197.843 61.8162 198.115 61.5322 198.315 61.1642C198.515 60.7882 198.615 60.3522 198.615 59.8562ZM202.897 57.4802V61.3562C202.897 61.6762 202.965 61.9042 203.101 62.0402C203.237 62.1682 203.473 62.2322 203.809 62.2322H204.613V63.1562H203.629C203.021 63.1562 202.565 63.0162 202.261 62.7362C201.957 62.4562 201.805 61.9962 201.805 61.3562V57.4802H200.953V56.5802H201.805V54.9242H202.897V56.5802H204.613V57.4802H202.897ZM206.5 55.5122C206.292 55.5122 206.116 55.4402 205.972 55.2962C205.828 55.1522 205.756 54.9762 205.756 54.7682C205.756 54.5602 205.828 54.3842 205.972 54.2402C206.116 54.0962 206.292 54.0242 206.5 54.0242C206.7 54.0242 206.868 54.0962 207.004 54.2402C207.148 54.3842 207.22 54.5602 207.22 54.7682C207.22 54.9762 207.148 55.1522 207.004 55.2962C206.868 55.4402 206.7 55.5122 206.5 55.5122ZM207.028 56.5802V63.1562H205.936V56.5802H207.028ZM211.757 63.2643C211.141 63.2643 210.581 63.1243 210.077 62.8442C209.581 62.5642 209.189 62.1682 208.901 61.6562C208.621 61.1362 208.481 60.5362 208.481 59.8562C208.481 59.1842 208.625 58.5922 208.913 58.0802C209.209 57.5602 209.609 57.1642 210.113 56.8922C210.617 56.6122 211.181 56.4722 211.805 56.4722C212.429 56.4722 212.993 56.6122 213.497 56.8922C214.001 57.1642 214.397 57.5562 214.685 58.0682C214.981 58.5802 215.129 59.1762 215.129 59.8562C215.129 60.5362 214.977 61.1362 214.673 61.6562C214.377 62.1682 213.973 62.5642 213.461 62.8442C212.949 63.1243 212.381 63.2643 211.757 63.2643ZM211.757 62.3042C212.149 62.3042 212.517 62.2122 212.861 62.0282C213.205 61.8442 213.481 61.5682 213.689 61.2002C213.905 60.8322 214.013 60.3842 214.013 59.8562C214.013 59.3282 213.909 58.8802 213.701 58.5122C213.493 58.1442 213.221 57.8722 212.885 57.6962C212.549 57.5122 212.185 57.4202 211.793 57.4202C211.393 57.4202 211.025 57.5122 210.689 57.6962C210.361 57.8722 210.097 58.1442 209.897 58.5122C209.697 58.8802 209.597 59.3282 209.597 59.8562C209.597 60.3922 209.693 60.8442 209.885 61.2122C210.085 61.5802 210.349 61.8562 210.677 62.0402C211.005 62.2162 211.365 62.3042 211.757 62.3042ZM219.769 56.4602C220.569 56.4602 221.217 56.7042 221.713 57.1922C222.209 57.6722 222.457 58.3682 222.457 59.2802V63.1562H221.377V59.4362C221.377 58.7802 221.213 58.2802 220.885 57.9362C220.557 57.5842 220.109 57.4082 219.541 57.4082C218.965 57.4082 218.505 57.5882 218.161 57.9482C217.825 58.3082 217.657 58.8322 217.657 59.5202V63.1562H216.565V56.5802H217.657V57.5162C217.873 57.1802 218.165 56.9202 218.533 56.7362C218.909 56.5522 219.321 56.4602 219.769 56.4602ZM21.667 83.2643C21.051 83.2643 20.491 83.1243 19.987 82.8442C19.491 82.5642 19.099 82.1682 18.811 81.6562C18.531 81.1362 18.391 80.5362 18.391 79.8562C18.391 79.1842 18.535 78.5922 18.823 78.0802C19.119 77.5602 19.519 77.1642 20.023 76.8922C20.527 76.6122 21.091 76.4722 21.715 76.4722C22.339 76.4722 22.903 76.6122 23.407 76.8922C23.911 77.1642 24.307 77.5562 24.595 78.0682C24.891 78.5802 25.039 79.1762 25.039 79.8562C25.039 80.5362 24.887 81.1362 24.583 81.6562C24.287 82.1682 23.883 82.5642 23.371 82.8442C22.859 83.1243 22.291 83.2643 21.667 83.2643ZM21.667 82.3042C22.059 82.3042 22.427 82.2122 22.771 82.0282C23.115 81.8442 23.391 81.5682 23.599 81.2002C23.815 80.8322 23.923 80.3842 23.923 79.8562C23.923 79.3282 23.819 78.8802 23.611 78.5122C23.403 78.1442 23.131 77.8722 22.795 77.6962C22.459 77.5122 22.095 77.4202 21.703 77.4202C21.303 77.4202 20.935 77.5122 20.599 77.6962C20.271 77.8722 20.007 78.1442 19.807 78.5122C19.607 78.8802 19.507 79.3282 19.507 79.8562C19.507 80.3922 19.603 80.8442 19.795 81.2122C19.995 81.5802 20.259 81.8562 20.587 82.0402C20.915 82.2162 21.275 82.3042 21.667 82.3042ZM29.1508 77.4802H27.7708V83.1562H26.6788V77.4802H25.8268V76.5802H26.6788V76.1122C26.6788 75.3762 26.8668 74.8402 27.2428 74.5042C27.6268 74.1602 28.2388 73.9882 29.0788 73.9882V74.9002C28.5988 74.9002 28.2588 74.9962 28.0588 75.1882C27.8668 75.3722 27.7708 75.6802 27.7708 76.1122V76.5802H29.1508V77.4802ZM34.7152 77.6482C34.9072 77.2722 35.1792 76.9802 35.5312 76.7722C35.8912 76.5642 36.3272 76.4602 36.8392 76.4602V77.5882H36.5512C35.3272 77.5882 34.7152 78.2522 34.7152 79.5802V83.1562H33.6232V76.5802H34.7152V77.6482ZM44.0998 79.6162C44.0998 79.8242 44.0878 80.0442 44.0638 80.2762H38.8078C38.8478 80.9242 39.0678 81.4322 39.4678 81.8002C39.8758 82.1602 40.3678 82.3402 40.9438 82.3402C41.4158 82.3402 41.8078 82.2322 42.1198 82.0162C42.4398 81.7922 42.6638 81.4962 42.7918 81.1282H43.9678C43.7918 81.7602 43.4398 82.2762 42.9118 82.6762C42.3838 83.0682 41.7278 83.2643 40.9438 83.2643C40.3198 83.2643 39.7598 83.1243 39.2638 82.8442C38.7758 82.5642 38.3918 82.1682 38.1118 81.6562C37.8318 81.1362 37.6918 80.5362 37.6918 79.8562C37.6918 79.1762 37.8278 78.5802 38.0998 78.0682C38.3718 77.5562 38.7518 77.1642 39.2398 76.8922C39.7358 76.6122 40.3038 76.4722 40.9438 76.4722C41.5678 76.4722 42.1198 76.6082 42.5998 76.8802C43.0798 77.1522 43.4478 77.5282 43.7038 78.0082C43.9678 78.4802 44.0998 79.0162 44.0998 79.6162ZM42.9718 79.3882C42.9718 78.9722 42.8798 78.6162 42.6958 78.3202C42.5118 78.0162 42.2598 77.7882 41.9398 77.6362C41.6278 77.4762 41.2798 77.3962 40.8958 77.3962C40.3438 77.3962 39.8718 77.5722 39.4798 77.9242C39.0958 78.2762 38.8758 78.7642 38.8198 79.3882H42.9718ZM47.8692 83.2643C47.3652 83.2643 46.9132 83.1803 46.5132 83.0122C46.1132 82.8362 45.7972 82.5962 45.5652 82.2922C45.3332 81.9802 45.2052 81.6242 45.1812 81.2242H46.3092C46.3412 81.5522 46.4932 81.8202 46.7652 82.0282C47.0452 82.2362 47.4092 82.3402 47.8572 82.3402C48.2732 82.3402 48.6012 82.2482 48.8412 82.0642C49.0812 81.8802 49.2012 81.6482 49.2012 81.3682C49.2012 81.0802 49.0732 80.8682 48.8172 80.7322C48.5612 80.5882 48.1652 80.4482 47.6292 80.3122C47.1412 80.1842 46.7412 80.0562 46.4292 79.9282C46.1252 79.7922 45.8612 79.5962 45.6372 79.3402C45.4212 79.0762 45.3132 78.7322 45.3132 78.3082C45.3132 77.9722 45.4132 77.6642 45.6132 77.3842C45.8132 77.1042 46.0972 76.8842 46.4652 76.7242C46.8332 76.5562 47.2532 76.4722 47.7252 76.4722C48.4532 76.4722 49.0412 76.6562 49.4892 77.0242C49.9372 77.3922 50.1772 77.8962 50.2092 78.5362H49.1172C49.0932 78.1922 48.9532 77.9162 48.6972 77.7082C48.4492 77.5002 48.1132 77.3962 47.6892 77.3962C47.2972 77.3962 46.9852 77.4802 46.7532 77.6482C46.5212 77.8162 46.4052 78.0362 46.4052 78.3082C46.4052 78.5242 46.4732 78.7042 46.6092 78.8482C46.7532 78.9842 46.9292 79.0962 47.1372 79.1842C47.3532 79.2642 47.6492 79.3562 48.0252 79.4602C48.4972 79.5882 48.8812 79.7162 49.1772 79.8442C49.4732 79.9642 49.7252 80.1482 49.9332 80.3962C50.1492 80.6442 50.2612 80.9682 50.2692 81.3682C50.2692 81.7282 50.1692 82.0522 49.9692 82.3402C49.7692 82.6282 49.4852 82.8562 49.1172 83.0242C48.7572 83.1843 48.3412 83.2643 47.8692 83.2643ZM54.6787 83.2643C54.0627 83.2643 53.5027 83.1243 52.9987 82.8442C52.5027 82.5642 52.1107 82.1682 51.8227 81.6562C51.5427 81.1362 51.4027 80.5362 51.4027 79.8562C51.4027 79.1842 51.5467 78.5922 51.8347 78.0802C52.1307 77.5602 52.5307 77.1642 53.0347 76.8922C53.5387 76.6122 54.1027 76.4722 54.7267 76.4722C55.3507 76.4722 55.9147 76.6122 56.4187 76.8922C56.9227 77.1642 57.3187 77.5562 57.6067 78.0682C57.9027 78.5802 58.0507 79.1762 58.0507 79.8562C58.0507 80.5362 57.8987 81.1362 57.5947 81.6562C57.2987 82.1682 56.8947 82.5642 56.3827 82.8442C55.8707 83.1243 55.3027 83.2643 54.6787 83.2643ZM54.6787 82.3042C55.0707 82.3042 55.4387 82.2122 55.7827 82.0282C56.1267 81.8442 56.4027 81.5682 56.6107 81.2002C56.8267 80.8322 56.9347 80.3842 56.9347 79.8562C56.9347 79.3282 56.8307 78.8802 56.6227 78.5122C56.4147 78.1442 56.1427 77.8722 55.8067 77.6962C55.4707 77.5122 55.1067 77.4202 54.7147 77.4202C54.3147 77.4202 53.9467 77.5122 53.6107 77.6962C53.2827 77.8722 53.0187 78.1442 52.8187 78.5122C52.6187 78.8802 52.5187 79.3282 52.5187 79.8562C52.5187 80.3922 52.6147 80.8442 52.8067 81.2122C53.0067 81.5802 53.2707 81.8562 53.5987 82.0402C53.9267 82.2162 54.2867 82.3042 54.6787 82.3042ZM65.3185 76.5802V83.1562H64.2265V82.1842C64.0185 82.5202 63.7265 82.7842 63.3505 82.9762C62.9825 83.1603 62.5745 83.2523 62.1265 83.2523C61.6145 83.2523 61.1545 83.1482 60.7465 82.9402C60.3385 82.7242 60.0145 82.4042 59.7745 81.9802C59.5425 81.5562 59.4265 81.0402 59.4265 80.4322V76.5802H60.5065V80.2882C60.5065 80.9362 60.6705 81.4362 60.9985 81.7882C61.3265 82.1322 61.7745 82.3042 62.3425 82.3042C62.9265 82.3042 63.3865 82.1242 63.7225 81.7642C64.0585 81.4042 64.2265 80.8802 64.2265 80.1922V76.5802H65.3185ZM68.2543 77.6482C68.4463 77.2722 68.7183 76.9802 69.0703 76.7722C69.4303 76.5642 69.8663 76.4602 70.3783 76.4602V77.5882H70.0903C68.8663 77.5882 68.2543 78.2522 68.2543 79.5802V83.1562H67.1623V76.5802H68.2543V77.6482ZM71.2308 79.8562C71.2308 79.1762 71.3668 78.5842 71.6388 78.0802C71.9108 77.5682 72.2868 77.1722 72.7668 76.8922C73.2548 76.6122 73.8108 76.4722 74.4348 76.4722C75.2428 76.4722 75.9068 76.6682 76.4268 77.0602C76.9548 77.4522 77.3028 77.9962 77.4708 78.6922H76.2948C76.1828 78.2922 75.9628 77.9762 75.6348 77.7442C75.3148 77.5122 74.9148 77.3962 74.4348 77.3962C73.8108 77.3962 73.3068 77.6122 72.9228 78.0442C72.5388 78.4682 72.3468 79.0722 72.3468 79.8562C72.3468 80.6482 72.5388 81.2602 72.9228 81.6922C73.3068 82.1242 73.8108 82.3402 74.4348 82.3402C74.9148 82.3402 75.3148 82.2282 75.6348 82.0042C75.9548 81.7802 76.1748 81.4602 76.2948 81.0442H77.4708C77.2948 81.7162 76.9428 82.2562 76.4148 82.6642C75.8868 83.0642 75.2268 83.2643 74.4348 83.2643C73.8108 83.2643 73.2548 83.1243 72.7668 82.8442C72.2868 82.5642 71.9108 82.1682 71.6388 81.6562C71.3668 81.1442 71.2308 80.5442 71.2308 79.8562ZM84.9279 79.6162C84.9279 79.8242 84.9159 80.0442 84.8919 80.2762H79.6359C79.6759 80.9242 79.8959 81.4322 80.2959 81.8002C80.7039 82.1602 81.1959 82.3402 81.7719 82.3402C82.2439 82.3402 82.6359 82.2322 82.9479 82.0162C83.2679 81.7922 83.4919 81.4962 83.6199 81.1282H84.7959C84.6199 81.7602 84.2679 82.2762 83.7399 82.6762C83.2119 83.0682 82.5559 83.2643 81.7719 83.2643C81.1479 83.2643 80.5879 83.1243 80.0919 82.8442C79.6039 82.5642 79.2199 82.1682 78.9399 81.6562C78.6599 81.1362 78.5199 80.5362 78.5199 79.8562C78.5199 79.1762 78.6559 78.5802 78.9279 78.0682C79.1999 77.5562 79.5799 77.1642 80.0679 76.8922C80.5639 76.6122 81.1319 76.4722 81.7719 76.4722C82.3959 76.4722 82.9479 76.6082 83.4279 76.8802C83.9079 77.1522 84.2759 77.5282 84.5319 78.0082C84.7959 78.4802 84.9279 79.0162 84.9279 79.6162ZM83.7999 79.3882C83.7999 78.9722 83.7079 78.6162 83.5239 78.3202C83.3399 78.0162 83.0879 77.7882 82.7679 77.6362C82.4559 77.4762 82.1079 77.3962 81.7239 77.3962C81.1719 77.3962 80.6999 77.5722 80.3079 77.9242C79.9239 78.2762 79.7039 78.7642 79.6479 79.3882H83.7999ZM88.6973 83.2643C88.1933 83.2643 87.7413 83.1803 87.3413 83.0122C86.9413 82.8362 86.6253 82.5962 86.3933 82.2922C86.1613 81.9802 86.0333 81.6242 86.0093 81.2242H87.1373C87.1693 81.5522 87.3213 81.8202 87.5933 82.0282C87.8733 82.2362 88.2373 82.3402 88.6853 82.3402C89.1013 82.3402 89.4293 82.2482 89.6693 82.0642C89.9093 81.8802 90.0293 81.6482 90.0293 81.3682C90.0293 81.0802 89.9013 80.8682 89.6453 80.7322C89.3893 80.5882 88.9933 80.4482 88.4573 80.3122C87.9693 80.1842 87.5693 80.0562 87.2573 79.9282C86.9533 79.7922 86.6893 79.5962 86.4653 79.3402C86.2493 79.0762 86.1413 78.7322 86.1413 78.3082C86.1413 77.9722 86.2413 77.6642 86.4413 77.3842C86.6413 77.1042 86.9253 76.8842 87.2933 76.7242C87.6613 76.5562 88.0813 76.4722 88.5533 76.4722C89.2813 76.4722 89.8693 76.6562 90.3173 77.0242C90.7653 77.3922 91.0053 77.8962 91.0373 78.5362H89.9453C89.9213 78.1922 89.7813 77.9162 89.5253 77.7082C89.2773 77.5002 88.9413 77.3962 88.5173 77.3962C88.1253 77.3962 87.8133 77.4802 87.5813 77.6482C87.3493 77.8162 87.2333 78.0362 87.2333 78.3082C87.2333 78.5242 87.3013 78.7042 87.4373 78.8482C87.5813 78.9842 87.7573 79.0962 87.9653 79.1842C88.1813 79.2642 88.4773 79.3562 88.8533 79.4602C89.3253 79.5882 89.7093 79.7162 90.0053 79.8442C90.3013 79.9642 90.5533 80.1482 90.7613 80.3962C90.9773 80.6442 91.0893 80.9682 91.0973 81.3682C91.0973 81.7282 90.9973 82.0522 90.7973 82.3402C90.5973 82.6282 90.3133 82.8562 89.9453 83.0242C89.5853 83.1843 89.1693 83.2643 88.6973 83.2643ZM93.7668 81.6442L92.4228 84.8723H91.6908L92.5668 81.6442H93.7668ZM99.549 77.4802V81.3562C99.549 81.6762 99.617 81.9042 99.753 82.0402C99.889 82.1682 100.125 82.2322 100.461 82.2322H101.265V83.1562H100.281C99.673 83.1562 99.217 83.0162 98.913 82.7362C98.609 82.4562 98.457 81.9962 98.457 81.3562V77.4802H97.605V76.5802H98.457V74.9242H99.549V76.5802H101.265V77.4802H99.549ZM108.252 76.5802L104.292 86.2523H103.164L104.46 83.0842L101.808 76.5802H103.02L105.084 81.9082L107.124 76.5802H108.252ZM110.442 77.7922C110.658 77.4162 110.978 77.1042 111.402 76.8562C111.834 76.6002 112.334 76.4722 112.902 76.4722C113.486 76.4722 114.014 76.6122 114.486 76.8922C114.966 77.1722 115.342 77.5682 115.614 78.0802C115.886 78.5842 116.022 79.1722 116.022 79.8442C116.022 80.5082 115.886 81.1002 115.614 81.6202C115.342 82.1402 114.966 82.5442 114.486 82.8322C114.014 83.1203 113.486 83.2643 112.902 83.2643C112.342 83.2643 111.846 83.1402 111.414 82.8922C110.99 82.6362 110.666 82.3202 110.442 81.9442V86.2763H109.35V76.5802H110.442V77.7922ZM114.906 79.8442C114.906 79.3482 114.806 78.9162 114.606 78.5482C114.406 78.1802 114.134 77.9002 113.79 77.7082C113.454 77.5162 113.082 77.4202 112.674 77.4202C112.274 77.4202 111.902 77.5202 111.558 77.7202C111.222 77.9122 110.95 78.1962 110.742 78.5722C110.542 78.9402 110.442 79.3682 110.442 79.8562C110.442 80.3522 110.542 80.7882 110.742 81.1642C110.95 81.5322 111.222 81.8162 111.558 82.0162C111.902 82.2082 112.274 82.3042 112.674 82.3042C113.082 82.3042 113.454 82.2082 113.79 82.0162C114.134 81.8162 114.406 81.5322 114.606 81.1642C114.806 80.7882 114.906 80.3482 114.906 79.8442ZM118.023 75.5122C117.815 75.5122 117.639 75.4402 117.495 75.2962C117.351 75.1522 117.279 74.9762 117.279 74.7682C117.279 74.5602 117.351 74.3842 117.495 74.2402C117.639 74.0962 117.815 74.0242 118.023 74.0242C118.223 74.0242 118.391 74.0962 118.527 74.2402C118.671 74.3842 118.743 74.5602 118.743 74.7682C118.743 74.9762 118.671 75.1522 118.527 75.2962C118.391 75.4402 118.223 75.5122 118.023 75.5122ZM118.551 76.5802V83.1562H117.459V76.5802H118.551ZM120.004 79.8562C120.004 79.1762 120.14 78.5842 120.412 78.0802C120.684 77.5682 121.06 77.1722 121.54 76.8922C122.028 76.6122 122.584 76.4722 123.208 76.4722C124.016 76.4722 124.68 76.6682 125.2 77.0602C125.728 77.4522 126.076 77.9962 126.244 78.6922H125.068C124.956 78.2922 124.736 77.9762 124.408 77.7442C124.088 77.5122 123.688 77.3962 123.208 77.3962C122.584 77.3962 122.08 77.6122 121.696 78.0442C121.312 78.4682 121.12 79.0722 121.12 79.8562C121.12 80.6482 121.312 81.2602 121.696 81.6922C122.08 82.1242 122.584 82.3402 123.208 82.3402C123.688 82.3402 124.088 82.2282 124.408 82.0042C124.728 81.7802 124.948 81.4602 125.068 81.0442H126.244C126.068 81.7162 125.716 82.2562 125.188 82.6642C124.66 83.0642 124 83.2643 123.208 83.2643C122.584 83.2643 122.028 83.1243 121.54 82.8442C121.06 82.5642 120.684 82.1682 120.412 81.6562C120.14 81.1442 120.004 80.5442 120.004 79.8562ZM127.293 79.8442C127.293 79.1722 127.429 78.5842 127.701 78.0802C127.973 77.5682 128.345 77.1722 128.817 76.8922C129.297 76.6122 129.829 76.4722 130.413 76.4722C130.989 76.4722 131.489 76.5962 131.913 76.8442C132.337 77.0922 132.653 77.4042 132.861 77.7802V76.5802H133.965V83.1562H132.861V81.9322C132.645 82.3162 132.321 82.6362 131.889 82.8922C131.465 83.1402 130.969 83.2643 130.401 83.2643C129.817 83.2643 129.289 83.1203 128.817 82.8322C128.345 82.5442 127.973 82.1402 127.701 81.6202C127.429 81.1002 127.293 80.5082 127.293 79.8442ZM132.861 79.8562C132.861 79.3602 132.761 78.9282 132.561 78.5602C132.361 78.1922 132.089 77.9122 131.745 77.7202C131.409 77.5202 131.037 77.4202 130.629 77.4202C130.221 77.4202 129.849 77.5162 129.513 77.7082C129.177 77.9002 128.909 78.1802 128.709 78.5482C128.509 78.9162 128.409 79.3482 128.409 79.8442C128.409 80.3482 128.509 80.7882 128.709 81.1642C128.909 81.5322 129.177 81.8162 129.513 82.0162C129.849 82.2082 130.221 82.3042 130.629 82.3042C131.037 82.3042 131.409 82.2082 131.745 82.0162C132.089 81.8162 132.361 81.5322 132.561 81.1642C132.761 80.7882 132.861 80.3522 132.861 79.8562ZM136.903 74.2762V83.1562H135.811V74.2762H136.903ZM139.856 74.2762V83.1562H138.764V74.2762H139.856ZM147.381 76.5802L143.421 86.2523H142.293L143.589 83.0842L140.937 76.5802H142.149L144.213 81.9082L146.253 76.5802H147.381ZM159.586 76.4602C160.098 76.4602 160.554 76.5682 160.954 76.7842C161.354 76.9922 161.67 77.3082 161.902 77.7322C162.134 78.1562 162.25 78.6722 162.25 79.2802V83.1562H161.17V79.4362C161.17 78.7802 161.006 78.2802 160.678 77.9362C160.358 77.5842 159.922 77.4082 159.37 77.4082C158.802 77.4082 158.35 77.5922 158.014 77.9602C157.678 78.3202 157.51 78.8442 157.51 79.5322V83.1562H156.43V79.4362C156.43 78.7802 156.266 78.2802 155.938 77.9362C155.618 77.5842 155.182 77.4082 154.63 77.4082C154.062 77.4082 153.61 77.5922 153.274 77.9602C152.938 78.3202 152.77 78.8442 152.77 79.5322V83.1562H151.678V76.5802H152.77V77.5282C152.986 77.1842 153.274 76.9202 153.634 76.7362C154.002 76.5522 154.406 76.4602 154.846 76.4602C155.398 76.4602 155.886 76.5842 156.31 76.8322C156.734 77.0802 157.05 77.4442 157.258 77.9242C157.442 77.4602 157.746 77.1002 158.17 76.8442C158.594 76.5882 159.066 76.4602 159.586 76.4602ZM166.909 83.2643C166.293 83.2643 165.733 83.1243 165.229 82.8442C164.733 82.5642 164.341 82.1682 164.053 81.6562C163.773 81.1362 163.633 80.5362 163.633 79.8562C163.633 79.1842 163.777 78.5922 164.065 78.0802C164.361 77.5602 164.761 77.1642 165.265 76.8922C165.769 76.6122 166.333 76.4722 166.957 76.4722C167.581 76.4722 168.145 76.6122 168.649 76.8922C169.153 77.1642 169.549 77.5562 169.837 78.0682C170.133 78.5802 170.281 79.1762 170.281 79.8562C170.281 80.5362 170.129 81.1362 169.825 81.6562C169.529 82.1682 169.125 82.5642 168.613 82.8442C168.101 83.1243 167.533 83.2643 166.909 83.2643ZM166.909 82.3042C167.301 82.3042 167.669 82.2122 168.013 82.0282C168.357 81.8442 168.633 81.5682 168.841 81.2002C169.057 80.8322 169.165 80.3842 169.165 79.8562C169.165 79.3282 169.061 78.8802 168.853 78.5122C168.645 78.1442 168.373 77.8722 168.037 77.6962C167.701 77.5122 167.337 77.4202 166.945 77.4202C166.545 77.4202 166.177 77.5122 165.841 77.6962C165.513 77.8722 165.249 78.1442 165.049 78.5122C164.849 78.8802 164.749 79.3282 164.749 79.8562C164.749 80.3922 164.845 80.8442 165.037 81.2122C165.237 81.5802 165.501 81.8562 165.829 82.0402C166.157 82.2162 166.517 82.3042 166.909 82.3042ZM174.921 76.4602C175.721 76.4602 176.369 76.7042 176.865 77.1922C177.361 77.6722 177.609 78.3682 177.609 79.2802V83.1562H176.529V79.4362C176.529 78.7802 176.365 78.2802 176.037 77.9362C175.709 77.5842 175.261 77.4082 174.693 77.4082C174.117 77.4082 173.657 77.5882 173.313 77.9482C172.977 78.3082 172.809 78.8322 172.809 79.5202V83.1562H171.717V76.5802H172.809V77.5162C173.025 77.1802 173.317 76.9202 173.685 76.7362C174.061 76.5522 174.473 76.4602 174.921 76.4602ZM185.393 79.6162C185.393 79.8242 185.381 80.0442 185.357 80.2762H180.101C180.141 80.9242 180.361 81.4322 180.761 81.8002C181.169 82.1602 181.661 82.3402 182.237 82.3402C182.709 82.3402 183.101 82.2322 183.413 82.0162C183.733 81.7922 183.957 81.4962 184.085 81.1282H185.261C185.085 81.7602 184.733 82.2762 184.205 82.6762C183.677 83.0682 183.021 83.2643 182.237 83.2643C181.613 83.2643 181.053 83.1243 180.557 82.8442C180.069 82.5642 179.685 82.1682 179.405 81.6562C179.125 81.1362 178.985 80.5362 178.985 79.8562C178.985 79.1762 179.121 78.5802 179.393 78.0682C179.665 77.5562 180.045 77.1642 180.533 76.8922C181.029 76.6122 181.597 76.4722 182.237 76.4722C182.861 76.4722 183.413 76.6082 183.893 76.8802C184.373 77.1522 184.741 77.5282 184.997 78.0082C185.261 78.4802 185.393 79.0162 185.393 79.6162ZM184.265 79.3882C184.265 78.9722 184.173 78.6162 183.989 78.3202C183.805 78.0162 183.553 77.7882 183.233 77.6362C182.921 77.4762 182.573 77.3962 182.189 77.3962C181.637 77.3962 181.165 77.5722 180.773 77.9242C180.389 78.2762 180.169 78.7642 180.113 79.3882H184.265ZM192.498 76.5802L188.538 86.2523H187.41L188.706 83.0842L186.054 76.5802H187.266L189.33 81.9082L191.37 76.5802H192.498ZM194.724 81.6442L193.38 84.8723H192.648L193.524 81.6442H194.724ZM207.934 76.5802L205.882 83.1562H204.754L203.17 77.9362L201.586 83.1562H200.458L198.394 76.5802H199.51L201.022 82.1002L202.654 76.5802H203.77L205.366 82.1122L206.854 76.5802H207.934ZM209.582 75.5122C209.374 75.5122 209.198 75.4402 209.054 75.2962C208.91 75.1522 208.838 74.9762 208.838 74.7682C208.838 74.5602 208.91 74.3842 209.054 74.2402C209.198 74.0962 209.374 74.0242 209.582 74.0242C209.782 74.0242 209.95 74.0962 210.086 74.2402C210.23 74.3842 210.302 74.5602 210.302 74.7682C210.302 74.9762 210.23 75.1522 210.086 75.2962C209.95 75.4402 209.782 75.5122 209.582 75.5122ZM210.11 76.5802V83.1562H209.018V76.5802H210.11ZM213.303 77.4802V81.3562C213.303 81.6762 213.371 81.9042 213.507 82.0402C213.643 82.1682 213.879 82.2322 214.215 82.2322H215.019V83.1562H214.035C213.427 83.1562 212.971 83.0162 212.667 82.7362C212.363 82.4562 212.211 81.9962 212.211 81.3562V77.4802H211.359V76.5802H212.211V74.9242H213.303V76.5802H215.019V77.4802H213.303ZM219.606 76.4602C220.102 76.4602 220.55 76.5682 220.95 76.7842C221.35 76.9922 221.662 77.3082 221.886 77.7322C222.118 78.1562 222.234 78.6722 222.234 79.2802V83.1562H221.154V79.4362C221.154 78.7802 220.99 78.2802 220.662 77.9362C220.334 77.5842 219.886 77.4082 219.318 77.4082C218.742 77.4082 218.282 77.5882 217.938 77.9482C217.602 78.3082 217.434 78.8322 217.434 79.5202V83.1562H216.342V74.2762H217.434V77.5162C217.65 77.1802 217.946 76.9202 218.322 76.7362C218.706 76.5522 219.134 76.4602 219.606 76.4602ZM20.131 97.4802V101.356C20.131 101.676 20.199 101.904 20.335 102.04C20.471 102.168 20.707 102.232 21.043 102.232H21.847V103.156H20.863C20.255 103.156 19.799 103.016 19.495 102.736C19.191 102.456 19.039 101.996 19.039 101.356V97.4802H18.187V96.5802H19.039V94.9242H20.131V96.5802H21.847V97.4802H20.131ZM26.4341 96.4602C26.9301 96.4602 27.3781 96.5682 27.7781 96.7842C28.1781 96.9922 28.4901 97.3082 28.7141 97.7322C28.9461 98.1562 29.0621 98.6722 29.0621 99.2802V103.156H27.9821V99.4362C27.9821 98.7802 27.8181 98.2802 27.4901 97.9362C27.1621 97.5842 26.7141 97.4082 26.1461 97.4082C25.5701 97.4082 25.1101 97.5882 24.7661 97.9482C24.4301 98.3082 24.2621 98.8322 24.2621 99.5202V103.156H23.1701V94.2762H24.2621V97.5162C24.4781 97.1802 24.7741 96.9202 25.1501 96.7362C25.5341 96.5522 25.9621 96.4602 26.4341 96.4602ZM36.8459 99.6162C36.8459 99.8242 36.8339 100.044 36.8099 100.276H31.5539C31.5939 100.924 31.8139 101.432 32.2139 101.8C32.6219 102.16 33.1139 102.34 33.6899 102.34C34.1619 102.34 34.5539 102.232 34.8659 102.016C35.1859 101.792 35.4099 101.496 35.5379 101.128H36.7139C36.5379 101.76 36.1859 102.276 35.6579 102.676C35.1299 103.068 34.4739 103.264 33.6899 103.264C33.0659 103.264 32.5059 103.124 32.0099 102.844C31.5219 102.564 31.1379 102.168 30.8579 101.656C30.5779 101.136 30.4379 100.536 30.4379 99.8562C30.4379 99.1762 30.5739 98.5802 30.8459 98.0682C31.1179 97.5562 31.4979 97.1642 31.9859 96.8922C32.4819 96.6122 33.0499 96.4722 33.6899 96.4722C34.3139 96.4722 34.8659 96.6082 35.3459 96.8802C35.8259 97.1522 36.1939 97.5282 36.4499 98.0082C36.7139 98.4802 36.8459 99.0162 36.8459 99.6162ZM35.7179 99.3882C35.7179 98.9722 35.6259 98.6162 35.4419 98.3202C35.2579 98.0162 35.0059 97.7882 34.6859 97.6362C34.3739 97.4762 34.0259 97.3962 33.6419 97.3962C33.0899 97.3962 32.6179 97.5722 32.2259 97.9242C31.8419 98.2762 31.6219 98.7642 31.5659 99.3882H35.7179ZM47.4865 99.6162C47.4865 99.8242 47.4745 100.044 47.4505 100.276H42.1945C42.2345 100.924 42.4545 101.432 42.8545 101.8C43.2625 102.16 43.7545 102.34 44.3305 102.34C44.8025 102.34 45.1945 102.232 45.5065 102.016C45.8265 101.792 46.0505 101.496 46.1785 101.128H47.3545C47.1785 101.76 46.8265 102.276 46.2985 102.676C45.7705 103.068 45.1145 103.264 44.3305 103.264C43.7065 103.264 43.1465 103.124 42.6505 102.844C42.1625 102.564 41.7785 102.168 41.4985 101.656C41.2185 101.136 41.0785 100.536 41.0785 99.8562C41.0785 99.1762 41.2145 98.5802 41.4865 98.0682C41.7585 97.5562 42.1385 97.1642 42.6265 96.8922C43.1225 96.6122 43.6905 96.4722 44.3305 96.4722C44.9545 96.4722 45.5065 96.6082 45.9865 96.8802C46.4665 97.1522 46.8345 97.5282 47.0905 98.0082C47.3545 98.4802 47.4865 99.0162 47.4865 99.6162ZM46.3585 99.3882C46.3585 98.9722 46.2665 98.6162 46.0825 98.3202C45.8985 98.0162 45.6465 97.7882 45.3265 97.6362C45.0145 97.4762 44.6665 97.3962 44.2825 97.3962C43.7305 97.3962 43.2585 97.5722 42.8665 97.9242C42.4825 98.2762 42.2625 98.7642 42.2065 99.3882H46.3585ZM52.3599 103.156L50.7999 100.708L49.2999 103.156H48.1599L50.2839 99.8922L48.1599 96.5802H49.3959L50.9559 99.0162L52.4439 96.5802H53.5839L51.4719 99.8322L53.5959 103.156H52.3599ZM55.7621 97.7922C55.9781 97.4162 56.2981 97.1042 56.7221 96.8562C57.1541 96.6002 57.6541 96.4722 58.2221 96.4722C58.8061 96.4722 59.3341 96.6122 59.8061 96.8922C60.2861 97.1722 60.6621 97.5682 60.9341 98.0802C61.2061 98.5842 61.3421 99.1722 61.3421 99.8442C61.3421 100.508 61.2061 101.1 60.9341 101.62C60.6621 102.14 60.2861 102.544 59.8061 102.832C59.3341 103.12 58.8061 103.264 58.2221 103.264C57.6621 103.264 57.1661 103.14 56.7341 102.892C56.3101 102.636 55.9861 102.32 55.7621 101.944V106.276H54.6701V96.5802H55.7621V97.7922ZM60.2261 99.8442C60.2261 99.3482 60.1261 98.9162 59.9261 98.5482C59.7261 98.1802 59.4541 97.9002 59.1101 97.7082C58.7741 97.5162 58.4021 97.4202 57.9941 97.4202C57.5941 97.4202 57.2221 97.5202 56.8781 97.7202C56.5421 97.9122 56.2701 98.1962 56.0621 98.5722C55.8621 98.9402 55.7621 99.3682 55.7621 99.8562C55.7621 100.352 55.8621 100.788 56.0621 101.164C56.2701 101.532 56.5421 101.816 56.8781 102.016C57.2221 102.208 57.5941 102.304 57.9941 102.304C58.4021 102.304 58.7741 102.208 59.1101 102.016C59.4541 101.816 59.7261 101.532 59.9261 101.164C60.1261 100.788 60.2261 100.348 60.2261 99.8442ZM68.7795 99.6162C68.7795 99.8242 68.7675 100.044 68.7435 100.276H63.4875C63.5275 100.924 63.7475 101.432 64.1475 101.8C64.5555 102.16 65.0475 102.34 65.6235 102.34C66.0955 102.34 66.4875 102.232 66.7995 102.016C67.1195 101.792 67.3435 101.496 67.4715 101.128H68.6475C68.4715 101.76 68.1195 102.276 67.5915 102.676C67.0635 103.068 66.4075 103.264 65.6235 103.264C64.9995 103.264 64.4395 103.124 63.9435 102.844C63.4555 102.564 63.0715 102.168 62.7915 101.656C62.5115 101.136 62.3715 100.536 62.3715 99.8562C62.3715 99.1762 62.5075 98.5802 62.7795 98.0682C63.0515 97.5562 63.4315 97.1642 63.9195 96.8922C64.4155 96.6122 64.9835 96.4722 65.6235 96.4722C66.2475 96.4722 66.7995 96.6082 67.2795 96.8802C67.7595 97.1522 68.1275 97.5282 68.3835 98.0082C68.6475 98.4802 68.7795 99.0162 68.7795 99.6162ZM67.6515 99.3882C67.6515 98.9722 67.5595 98.6162 67.3755 98.3202C67.1915 98.0162 66.9395 97.7882 66.6195 97.6362C66.3075 97.4762 65.9595 97.3962 65.5755 97.3962C65.0235 97.3962 64.5515 97.5722 64.1595 97.9242C63.7755 98.2762 63.5555 98.7642 63.4995 99.3882H67.6515ZM69.8129 99.8562C69.8129 99.1762 69.9489 98.5842 70.2209 98.0802C70.4929 97.5682 70.8689 97.1722 71.3489 96.8922C71.8369 96.6122 72.3929 96.4722 73.0169 96.4722C73.8249 96.4722 74.4889 96.6682 75.0089 97.0602C75.5369 97.4522 75.8849 97.9962 76.0529 98.6922H74.8769C74.7649 98.2922 74.5449 97.9762 74.2169 97.7442C73.8969 97.5122 73.4969 97.3962 73.0169 97.3962C72.3929 97.3962 71.8889 97.6122 71.5049 98.0442C71.1209 98.4682 70.9289 99.0722 70.9289 99.8562C70.9289 100.648 71.1209 101.26 71.5049 101.692C71.8889 102.124 72.3929 102.34 73.0169 102.34C73.4969 102.34 73.8969 102.228 74.2169 102.004C74.5369 101.78 74.7569 101.46 74.8769 101.044H76.0529C75.8769 101.716 75.5249 102.256 74.9969 102.664C74.4689 103.064 73.8089 103.264 73.0169 103.264C72.3929 103.264 71.8369 103.124 71.3489 102.844C70.8689 102.564 70.4929 102.168 70.2209 101.656C69.9489 101.144 69.8129 100.544 69.8129 99.8562ZM78.8419 97.4802V101.356C78.8419 101.676 78.9099 101.904 79.0459 102.04C79.1819 102.168 79.4179 102.232 79.7539 102.232H80.5579V103.156H79.5739C78.9659 103.156 78.5099 103.016 78.2059 102.736C77.9019 102.456 77.7499 101.996 77.7499 101.356V97.4802H76.8979V96.5802H77.7499V94.9242H78.8419V96.5802H80.5579V97.4802H78.8419ZM81.473 99.8442C81.473 99.1722 81.609 98.5842 81.881 98.0802C82.153 97.5682 82.525 97.1722 82.997 96.8922C83.477 96.6122 84.009 96.4722 84.593 96.4722C85.169 96.4722 85.669 96.5962 86.093 96.8442C86.517 97.0922 86.833 97.4042 87.041 97.7802V96.5802H88.145V103.156H87.041V101.932C86.825 102.316 86.501 102.636 86.069 102.892C85.645 103.14 85.149 103.264 84.581 103.264C83.997 103.264 83.469 103.12 82.997 102.832C82.525 102.544 82.153 102.14 81.881 101.62C81.609 101.1 81.473 100.508 81.473 99.8442ZM87.041 99.8562C87.041 99.3602 86.941 98.9282 86.741 98.5602C86.541 98.1922 86.269 97.9122 85.925 97.7202C85.589 97.5202 85.217 97.4202 84.809 97.4202C84.401 97.4202 84.029 97.5162 83.693 97.7082C83.357 97.9002 83.089 98.1802 82.889 98.5482C82.689 98.9162 82.589 99.3482 82.589 99.8442C82.589 100.348 82.689 100.788 82.889 101.164C83.089 101.532 83.357 101.816 83.693 102.016C84.029 102.208 84.401 102.304 84.809 102.304C85.217 102.304 85.589 102.208 85.925 102.016C86.269 101.816 86.541 101.532 86.741 101.164C86.941 100.788 87.041 100.352 87.041 99.8562ZM91.3224 97.4802V101.356C91.3224 101.676 91.3904 101.904 91.5264 102.04C91.6624 102.168 91.8984 102.232 92.2344 102.232H93.0384V103.156H92.0544C91.4464 103.156 90.9904 103.016 90.6864 102.736C90.3824 102.456 90.2304 101.996 90.2304 101.356V97.4802H89.3784V96.5802H90.2304V94.9242H91.3224V96.5802H93.0384V97.4802H91.3224ZM94.9255 95.5122C94.7175 95.5122 94.5415 95.4402 94.3975 95.2962C94.2535 95.1522 94.1815 94.9762 94.1815 94.7682C94.1815 94.5602 94.2535 94.3842 94.3975 94.2402C94.5415 94.0962 94.7175 94.0242 94.9255 94.0242C95.1255 94.0242 95.2935 94.0962 95.4295 94.2402C95.5735 94.3842 95.6455 94.5602 95.6455 94.7682C95.6455 94.9762 95.5735 95.1522 95.4295 95.2962C95.2935 95.4402 95.1255 95.5122 94.9255 95.5122ZM95.4535 96.5802V103.156H94.3615V96.5802H95.4535ZM100.183 103.264C99.5666 103.264 99.0066 103.124 98.5026 102.844C98.0066 102.564 97.6146 102.168 97.3266 101.656C97.0466 101.136 96.9066 100.536 96.9066 99.8562C96.9066 99.1842 97.0506 98.5922 97.3386 98.0802C97.6346 97.5602 98.0346 97.1642 98.5386 96.8922C99.0426 96.6122 99.6066 96.4722 100.231 96.4722C100.855 96.4722 101.419 96.6122 101.923 96.8922C102.427 97.1642 102.823 97.5562 103.111 98.0682C103.407 98.5802 103.555 99.1762 103.555 99.8562C103.555 100.536 103.403 101.136 103.099 101.656C102.803 102.168 102.399 102.564 101.887 102.844C101.375 103.124 100.807 103.264 100.183 103.264ZM100.183 102.304C100.575 102.304 100.943 102.212 101.287 102.028C101.631 101.844 101.907 101.568 102.115 101.2C102.331 100.832 102.439 100.384 102.439 99.8562C102.439 99.3282 102.335 98.8802 102.127 98.5122C101.919 98.1442 101.647 97.8722 101.311 97.6962C100.975 97.5122 100.611 97.4202 100.219 97.4202C99.8186 97.4202 99.4506 97.5122 99.1146 97.6962C98.7866 97.8722 98.5226 98.1442 98.3226 98.5122C98.1226 98.8802 98.0226 99.3282 98.0226 99.8562C98.0226 100.392 98.1186 100.844 98.3106 101.212C98.5106 101.58 98.7746 101.856 99.1026 102.04C99.4306 102.216 99.7906 102.304 100.183 102.304ZM108.194 96.4602C108.994 96.4602 109.642 96.7042 110.138 97.1922C110.634 97.6722 110.882 98.3682 110.882 99.2802V103.156H109.802V99.4362C109.802 98.7802 109.638 98.2802 109.31 97.9362C108.982 97.5842 108.534 97.4082 107.966 97.4082C107.39 97.4082 106.93 97.5882 106.586 97.9482C106.25 98.3082 106.082 98.8322 106.082 99.5202V103.156H104.99V96.5802H106.082V97.5162C106.298 97.1802 106.59 96.9202 106.958 96.7362C107.334 96.5522 107.746 96.4602 108.194 96.4602ZM118.733 103.264C118.117 103.264 117.557 103.124 117.053 102.844C116.557 102.564 116.165 102.168 115.877 101.656C115.597 101.136 115.457 100.536 115.457 99.8562C115.457 99.1842 115.601 98.5922 115.889 98.0802C116.185 97.5602 116.585 97.1642 117.089 96.8922C117.593 96.6122 118.157 96.4722 118.781 96.4722C119.405 96.4722 119.969 96.6122 120.473 96.8922C120.977 97.1642 121.373 97.5562 121.661 98.0682C121.957 98.5802 122.105 99.1762 122.105 99.8562C122.105 100.536 121.953 101.136 121.649 101.656C121.353 102.168 120.949 102.564 120.437 102.844C119.925 103.124 119.357 103.264 118.733 103.264ZM118.733 102.304C119.125 102.304 119.493 102.212 119.837 102.028C120.181 101.844 120.457 101.568 120.665 101.2C120.881 100.832 120.989 100.384 120.989 99.8562C120.989 99.3282 120.885 98.8802 120.677 98.5122C120.469 98.1442 120.197 97.8722 119.861 97.6962C119.525 97.5122 119.161 97.4202 118.769 97.4202C118.369 97.4202 118.001 97.5122 117.665 97.6962C117.337 97.8722 117.073 98.1442 116.873 98.5122C116.673 98.8802 116.573 99.3282 116.573 99.8562C116.573 100.392 116.669 100.844 116.861 101.212C117.061 101.58 117.325 101.856 117.653 102.04C117.981 102.216 118.341 102.304 118.733 102.304ZM126.217 97.4802H124.837V103.156H123.745V97.4802H122.893V96.5802H123.745V96.1122C123.745 95.3762 123.933 94.8402 124.309 94.5042C124.693 94.1602 125.305 93.9882 126.145 93.9882V94.9002C125.665 94.9002 125.325 94.9962 125.125 95.1882C124.933 95.3722 124.837 95.6802 124.837 96.1122V96.5802H126.217V97.4802ZM133.402 96.4722C133.97 96.4722 134.466 96.5962 134.89 96.8442C135.322 97.0922 135.642 97.4042 135.85 97.7802V96.5802H136.954V103.3C136.954 103.9 136.826 104.432 136.57 104.896C136.314 105.368 135.946 105.736 135.466 106C134.994 106.264 134.442 106.396 133.81 106.396C132.946 106.396 132.226 106.192 131.65 105.784C131.074 105.376 130.734 104.82 130.63 104.116H131.71C131.83 104.516 132.078 104.836 132.454 105.076C132.83 105.324 133.282 105.448 133.81 105.448C134.41 105.448 134.898 105.26 135.274 104.884C135.658 104.508 135.85 103.98 135.85 103.3V101.92C135.634 102.304 135.314 102.624 134.89 102.88C134.466 103.136 133.97 103.264 133.402 103.264C132.818 103.264 132.286 103.12 131.806 102.832C131.334 102.544 130.962 102.14 130.69 101.62C130.418 101.1 130.282 100.508 130.282 99.8442C130.282 99.1722 130.418 98.5842 130.69 98.0802C130.962 97.5682 131.334 97.1722 131.806 96.8922C132.286 96.6122 132.818 96.4722 133.402 96.4722ZM135.85 99.8562C135.85 99.3602 135.75 98.9282 135.55 98.5602C135.35 98.1922 135.078 97.9122 134.734 97.7202C134.398 97.5202 134.026 97.4202 133.618 97.4202C133.21 97.4202 132.838 97.5162 132.502 97.7082C132.166 97.9002 131.898 98.1802 131.698 98.5482C131.498 98.9162 131.398 99.3482 131.398 99.8442C131.398 100.348 131.498 100.788 131.698 101.164C131.898 101.532 132.166 101.816 132.502 102.016C132.838 102.208 133.21 102.304 133.618 102.304C134.026 102.304 134.398 102.208 134.734 102.016C135.078 101.816 135.35 101.532 135.55 101.164C135.75 100.788 135.85 100.352 135.85 99.8562ZM144.799 99.6162C144.799 99.8242 144.787 100.044 144.763 100.276H139.507C139.547 100.924 139.767 101.432 140.167 101.8C140.575 102.16 141.067 102.34 141.643 102.34C142.115 102.34 142.507 102.232 142.819 102.016C143.139 101.792 143.363 101.496 143.491 101.128H144.667C144.491 101.76 144.139 102.276 143.611 102.676C143.083 103.068 142.427 103.264 141.643 103.264C141.019 103.264 140.459 103.124 139.963 102.844C139.475 102.564 139.091 102.168 138.811 101.656C138.531 101.136 138.391 100.536 138.391 99.8562C138.391 99.1762 138.527 98.5802 138.799 98.0682C139.071 97.5562 139.451 97.1642 139.939 96.8922C140.435 96.6122 141.003 96.4722 141.643 96.4722C142.267 96.4722 142.819 96.6082 143.299 96.8802C143.779 97.1522 144.147 97.5282 144.403 98.0082C144.667 98.4802 144.799 99.0162 144.799 99.6162ZM143.671 99.3882C143.671 98.9722 143.579 98.6162 143.395 98.3202C143.211 98.0162 142.959 97.7882 142.639 97.6362C142.327 97.4762 141.979 97.3962 141.595 97.3962C141.043 97.3962 140.571 97.5722 140.179 97.9242C139.795 98.2762 139.575 98.7642 139.519 99.3882H143.671ZM149.444 96.4602C150.244 96.4602 150.892 96.7042 151.388 97.1922C151.884 97.6722 152.132 98.3682 152.132 99.2802V103.156H151.052V99.4362C151.052 98.7802 150.888 98.2802 150.56 97.9362C150.232 97.5842 149.784 97.4082 149.216 97.4082C148.64 97.4082 148.18 97.5882 147.836 97.9482C147.5 98.3082 147.332 98.8322 147.332 99.5202V103.156H146.24V96.5802H147.332V97.5162C147.548 97.1802 147.84 96.9202 148.208 96.7362C148.584 96.5522 148.996 96.4602 149.444 96.4602ZM159.916 99.6162C159.916 99.8242 159.904 100.044 159.88 100.276H154.624C154.664 100.924 154.884 101.432 155.284 101.8C155.692 102.16 156.184 102.34 156.76 102.34C157.232 102.34 157.624 102.232 157.936 102.016C158.256 101.792 158.48 101.496 158.608 101.128H159.784C159.608 101.76 159.256 102.276 158.728 102.676C158.2 103.068 157.544 103.264 156.76 103.264C156.136 103.264 155.576 103.124 155.08 102.844C154.592 102.564 154.208 102.168 153.928 101.656C153.648 101.136 153.508 100.536 153.508 99.8562C153.508 99.1762 153.644 98.5802 153.916 98.0682C154.188 97.5562 154.568 97.1642 155.056 96.8922C155.552 96.6122 156.12 96.4722 156.76 96.4722C157.384 96.4722 157.936 96.6082 158.416 96.8802C158.896 97.1522 159.264 97.5282 159.52 98.0082C159.784 98.4802 159.916 99.0162 159.916 99.6162ZM158.788 99.3882C158.788 98.9722 158.696 98.6162 158.512 98.3202C158.328 98.0162 158.076 97.7882 157.756 97.6362C157.444 97.4762 157.096 97.3962 156.712 97.3962C156.16 97.3962 155.688 97.5722 155.296 97.9242C154.912 98.2762 154.692 98.7642 154.636 99.3882H158.788ZM162.45 97.6482C162.642 97.2722 162.914 96.9802 163.266 96.7722C163.626 96.5642 164.062 96.4602 164.574 96.4602V97.5882H164.286C163.062 97.5882 162.45 98.2522 162.45 99.5802V103.156H161.358V96.5802H162.45V97.6482ZM165.426 99.8442C165.426 99.1722 165.562 98.5842 165.834 98.0802C166.106 97.5682 166.478 97.1722 166.95 96.8922C167.43 96.6122 167.962 96.4722 168.546 96.4722C169.122 96.4722 169.622 96.5962 170.046 96.8442C170.47 97.0922 170.786 97.4042 170.994 97.7802V96.5802H172.098V103.156H170.994V101.932C170.778 102.316 170.454 102.636 170.022 102.892C169.598 103.14 169.102 103.264 168.534 103.264C167.95 103.264 167.422 103.12 166.95 102.832C166.478 102.544 166.106 102.14 165.834 101.62C165.562 101.1 165.426 100.508 165.426 99.8442ZM170.994 99.8562C170.994 99.3602 170.894 98.9282 170.694 98.5602C170.494 98.1922 170.222 97.9122 169.878 97.7202C169.542 97.5202 169.17 97.4202 168.762 97.4202C168.354 97.4202 167.982 97.5162 167.646 97.7082C167.31 97.9002 167.042 98.1802 166.842 98.5482C166.642 98.9162 166.542 99.3482 166.542 99.8442C166.542 100.348 166.642 100.788 166.842 101.164C167.042 101.532 167.31 101.816 167.646 102.016C167.982 102.208 168.354 102.304 168.762 102.304C169.17 102.304 169.542 102.208 169.878 102.016C170.222 101.816 170.494 101.532 170.694 101.164C170.894 100.788 170.994 100.352 170.994 99.8562ZM175.276 97.4802V101.356C175.276 101.676 175.344 101.904 175.48 102.04C175.616 102.168 175.852 102.232 176.188 102.232H176.992V103.156H176.008C175.4 103.156 174.944 103.016 174.64 102.736C174.336 102.456 174.184 101.996 174.184 101.356V97.4802H173.332V96.5802H174.184V94.9242H175.276V96.5802H176.992V97.4802H175.276ZM178.879 95.5122C178.671 95.5122 178.495 95.4402 178.351 95.2962C178.207 95.1522 178.135 94.9762 178.135 94.7682C178.135 94.5602 178.207 94.3842 178.351 94.2402C178.495 94.0962 178.671 94.0242 178.879 94.0242C179.079 94.0242 179.247 94.0962 179.383 94.2402C179.527 94.3842 179.599 94.5602 179.599 94.7682C179.599 94.9762 179.527 95.1522 179.383 95.2962C179.247 95.4402 179.079 95.5122 178.879 95.5122ZM179.407 96.5802V103.156H178.315V96.5802H179.407ZM184.472 96.4602C185.272 96.4602 185.92 96.7042 186.416 97.1922C186.912 97.6722 187.16 98.3682 187.16 99.2802V103.156H186.08V99.4362C186.08 98.7802 185.916 98.2802 185.588 97.9362C185.26 97.5842 184.812 97.4082 184.244 97.4082C183.668 97.4082 183.208 97.5882 182.864 97.9482C182.528 98.3082 182.36 98.8322 182.36 99.5202V103.156H181.268V96.5802H182.36V97.5162C182.576 97.1802 182.868 96.9202 183.236 96.7362C183.612 96.5522 184.024 96.4602 184.472 96.4602ZM191.656 96.4722C192.224 96.4722 192.72 96.5962 193.144 96.8442C193.576 97.0922 193.896 97.4042 194.104 97.7802V96.5802H195.208V103.3C195.208 103.9 195.08 104.432 194.824 104.896C194.568 105.368 194.2 105.736 193.72 106C193.248 106.264 192.696 106.396 192.064 106.396C191.2 106.396 190.48 106.192 189.904 105.784C189.328 105.376 188.988 104.82 188.884 104.116H189.964C190.084 104.516 190.332 104.836 190.708 105.076C191.084 105.324 191.536 105.448 192.064 105.448C192.664 105.448 193.152 105.26 193.528 104.884C193.912 104.508 194.104 103.98 194.104 103.3V101.92C193.888 102.304 193.568 102.624 193.144 102.88C192.72 103.136 192.224 103.264 191.656 103.264C191.072 103.264 190.54 103.12 190.06 102.832C189.588 102.544 189.216 102.14 188.944 101.62C188.672 101.1 188.536 100.508 188.536 99.8442C188.536 99.1722 188.672 98.5842 188.944 98.0802C189.216 97.5682 189.588 97.1722 190.06 96.8922C190.54 96.6122 191.072 96.4722 191.656 96.4722ZM194.104 99.8562C194.104 99.3602 194.004 98.9282 193.804 98.5602C193.604 98.1922 193.332 97.9122 192.988 97.7202C192.652 97.5202 192.28 97.4202 191.872 97.4202C191.464 97.4202 191.092 97.5162 190.756 97.7082C190.42 97.9002 190.152 98.1802 189.952 98.5482C189.752 98.9162 189.652 99.3482 189.652 99.8442C189.652 100.348 189.752 100.788 189.952 101.164C190.152 101.532 190.42 101.816 190.756 102.016C191.092 102.208 191.464 102.304 191.872 102.304C192.28 102.304 192.652 102.208 192.988 102.016C193.332 101.816 193.604 101.532 193.804 101.164C194.004 100.788 194.104 100.352 194.104 99.8562ZM21.475 117.48H20.095V123.156H19.003V117.48H18.151V116.58H19.003V116.112C19.003 115.376 19.191 114.84 19.567 114.504C19.951 114.16 20.563 113.988 21.403 113.988V114.9C20.923 114.9 20.583 114.996 20.383 115.188C20.191 115.372 20.095 115.68 20.095 116.112V116.58H21.475V117.48ZM28.5802 116.58V123.156H27.4882V122.184C27.2802 122.52 26.9882 122.784 26.6122 122.976C26.2442 123.16 25.8362 123.252 25.3882 123.252C24.8762 123.252 24.4162 123.148 24.0082 122.94C23.6002 122.724 23.2762 122.404 23.0362 121.98C22.8042 121.556 22.6882 121.04 22.6882 120.432V116.58H23.7682V120.288C23.7682 120.936 23.9322 121.436 24.2602 121.788C24.5882 122.132 25.0362 122.304 25.6042 122.304C26.1882 122.304 26.6482 122.124 26.9842 121.764C27.3202 121.404 27.4882 120.88 27.4882 120.192V116.58H28.5802ZM31.756 117.48V121.356C31.756 121.676 31.824 121.904 31.96 122.04C32.096 122.168 32.332 122.232 32.668 122.232H33.472V123.156H32.488C31.88 123.156 31.424 123.016 31.12 122.736C30.816 122.456 30.664 121.996 30.664 121.356V117.48H29.812V116.58H30.664V114.924H31.756V116.58H33.472V117.48H31.756ZM40.6271 116.58V123.156H39.5351V122.184C39.3271 122.52 39.0351 122.784 38.6591 122.976C38.2911 123.16 37.8831 123.252 37.4351 123.252C36.9231 123.252 36.4631 123.148 36.0551 122.94C35.6471 122.724 35.3231 122.404 35.0831 121.98C34.8511 121.556 34.7351 121.04 34.7351 120.432V116.58H35.8151V120.288C35.8151 120.936 35.9791 121.436 36.3071 121.788C36.6351 122.132 37.0831 122.304 37.6511 122.304C38.2351 122.304 38.6951 122.124 39.0311 121.764C39.3671 121.404 39.5351 120.88 39.5351 120.192V116.58H40.6271ZM43.5629 117.648C43.7549 117.272 44.0269 116.98 44.3789 116.772C44.7389 116.564 45.1749 116.46 45.6869 116.46V117.588H45.3989C44.1749 117.588 43.5629 118.252 43.5629 119.58V123.156H42.4709V116.58H43.5629V117.648ZM52.9474 119.616C52.9474 119.824 52.9354 120.044 52.9114 120.276H47.6554C47.6954 120.924 47.9154 121.432 48.3154 121.8C48.7234 122.16 49.2154 122.34 49.7914 122.34C50.2634 122.34 50.6554 122.232 50.9674 122.016C51.2874 121.792 51.5114 121.496 51.6394 121.128H52.8154C52.6394 121.76 52.2874 122.276 51.7594 122.676C51.2314 123.068 50.5754 123.264 49.7914 123.264C49.1674 123.264 48.6074 123.124 48.1114 122.844C47.6234 122.564 47.2394 122.168 46.9594 121.656C46.6794 121.136 46.5394 120.536 46.5394 119.856C46.5394 119.176 46.6754 118.58 46.9474 118.068C47.2194 117.556 47.5994 117.164 48.0874 116.892C48.5834 116.612 49.1514 116.472 49.7914 116.472C50.4154 116.472 50.9674 116.608 51.4474 116.88C51.9274 117.152 52.2954 117.528 52.5514 118.008C52.8154 118.48 52.9474 119.016 52.9474 119.616ZM51.8194 119.388C51.8194 118.972 51.7274 118.616 51.5434 118.32C51.3594 118.016 51.1074 117.788 50.7874 117.636C50.4754 117.476 50.1274 117.396 49.7434 117.396C49.1914 117.396 48.7194 117.572 48.3274 117.924C47.9434 118.276 47.7234 118.764 47.6674 119.388H51.8194ZM58.1521 115.512C57.9441 115.512 57.7681 115.44 57.6241 115.296C57.4801 115.152 57.4081 114.976 57.4081 114.768C57.4081 114.56 57.4801 114.384 57.6241 114.24C57.7681 114.096 57.9441 114.024 58.1521 114.024C58.3521 114.024 58.5201 114.096 58.6561 114.24C58.8001 114.384 58.8721 114.56 58.8721 114.768C58.8721 114.976 58.8001 115.152 58.6561 115.296C58.5201 115.44 58.3521 115.512 58.1521 115.512ZM58.6801 116.58V123.156H57.5881V116.58H58.6801ZM63.7452 116.46C64.5452 116.46 65.1932 116.704 65.6892 117.192C66.1852 117.672 66.4332 118.368 66.4332 119.28V123.156H65.3532V119.436C65.3532 118.78 65.1892 118.28 64.8612 117.936C64.5332 117.584 64.0852 117.408 63.5172 117.408C62.9412 117.408 62.4812 117.588 62.1372 117.948C61.8012 118.308 61.6332 118.832 61.6332 119.52V123.156H60.5412V116.58H61.6332V117.516C61.8492 117.18 62.1412 116.92 62.5092 116.736C62.8852 116.552 63.2972 116.46 63.7452 116.46ZM67.809 119.856C67.809 119.176 67.945 118.584 68.217 118.08C68.489 117.568 68.865 117.172 69.345 116.892C69.833 116.612 70.389 116.472 71.013 116.472C71.821 116.472 72.485 116.668 73.005 117.06C73.533 117.452 73.881 117.996 74.049 118.692H72.873C72.761 118.292 72.541 117.976 72.213 117.744C71.893 117.512 71.493 117.396 71.013 117.396C70.389 117.396 69.885 117.612 69.501 118.044C69.117 118.468 68.925 119.072 68.925 119.856C68.925 120.648 69.117 121.26 69.501 121.692C69.885 122.124 70.389 122.34 71.013 122.34C71.493 122.34 71.893 122.228 72.213 122.004C72.533 121.78 72.753 121.46 72.873 121.044H74.049C73.873 121.716 73.521 122.256 72.993 122.664C72.465 123.064 71.805 123.264 71.013 123.264C70.389 123.264 69.833 123.124 69.345 122.844C68.865 122.564 68.489 122.168 68.217 121.656C67.945 121.144 67.809 120.544 67.809 119.856ZM78.374 123.264C77.758 123.264 77.198 123.124 76.694 122.844C76.198 122.564 75.806 122.168 75.518 121.656C75.238 121.136 75.098 120.536 75.098 119.856C75.098 119.184 75.242 118.592 75.53 118.08C75.826 117.56 76.226 117.164 76.73 116.892C77.234 116.612 77.798 116.472 78.422 116.472C79.046 116.472 79.61 116.612 80.114 116.892C80.618 117.164 81.014 117.556 81.302 118.068C81.598 118.58 81.746 119.176 81.746 119.856C81.746 120.536 81.594 121.136 81.29 121.656C80.994 122.168 80.59 122.564 80.078 122.844C79.566 123.124 78.998 123.264 78.374 123.264ZM78.374 122.304C78.766 122.304 79.134 122.212 79.478 122.028C79.822 121.844 80.098 121.568 80.306 121.2C80.522 120.832 80.63 120.384 80.63 119.856C80.63 119.328 80.526 118.88 80.318 118.512C80.11 118.144 79.838 117.872 79.502 117.696C79.166 117.512 78.802 117.42 78.41 117.42C78.01 117.42 77.642 117.512 77.306 117.696C76.978 117.872 76.714 118.144 76.514 118.512C76.314 118.88 76.214 119.328 76.214 119.856C76.214 120.392 76.31 120.844 76.502 121.212C76.702 121.58 76.966 121.856 77.294 122.04C77.622 122.216 77.982 122.304 78.374 122.304ZM91.0898 116.46C91.6018 116.46 92.0578 116.568 92.4578 116.784C92.8578 116.992 93.1738 117.308 93.4058 117.732C93.6378 118.156 93.7538 118.672 93.7538 119.28V123.156H92.6738V119.436C92.6738 118.78 92.5098 118.28 92.1818 117.936C91.8618 117.584 91.4258 117.408 90.8738 117.408C90.3058 117.408 89.8538 117.592 89.5178 117.96C89.1818 118.32 89.0138 118.844 89.0138 119.532V123.156H87.9338V119.436C87.9338 118.78 87.7698 118.28 87.4418 117.936C87.1218 117.584 86.6858 117.408 86.1338 117.408C85.5658 117.408 85.1138 117.592 84.7778 117.96C84.4418 118.32 84.2738 118.844 84.2738 119.532V123.156H83.1818V116.58H84.2738V117.528C84.4898 117.184 84.7778 116.92 85.1378 116.736C85.5058 116.552 85.9098 116.46 86.3498 116.46C86.9018 116.46 87.3898 116.584 87.8138 116.832C88.2378 117.08 88.5538 117.444 88.7618 117.924C88.9458 117.46 89.2498 117.1 89.6738 116.844C90.0978 116.588 90.5698 116.46 91.0898 116.46ZM101.545 119.616C101.545 119.824 101.533 120.044 101.509 120.276H96.2531C96.2931 120.924 96.5131 121.432 96.9131 121.8C97.3211 122.16 97.8131 122.34 98.3891 122.34C98.8611 122.34 99.2531 122.232 99.5651 122.016C99.8851 121.792 100.109 121.496 100.237 121.128H101.413C101.237 121.76 100.885 122.276 100.357 122.676C99.8291 123.068 99.1731 123.264 98.3891 123.264C97.7651 123.264 97.2051 123.124 96.7091 122.844C96.2211 122.564 95.8371 122.168 95.5571 121.656C95.2771 121.136 95.1371 120.536 95.1371 119.856C95.1371 119.176 95.2731 118.58 95.5451 118.068C95.8171 117.556 96.1971 117.164 96.6851 116.892C97.1811 116.612 97.7491 116.472 98.3891 116.472C99.0131 116.472 99.5651 116.608 100.045 116.88C100.525 117.152 100.893 117.528 101.149 118.008C101.413 118.48 101.545 119.016 101.545 119.616ZM100.417 119.388C100.417 118.972 100.325 118.616 100.141 118.32C99.9571 118.016 99.7051 117.788 99.3851 117.636C99.0731 117.476 98.7251 117.396 98.3411 117.396C97.7891 117.396 97.3171 117.572 96.9251 117.924C96.5411 118.276 96.3211 118.764 96.2651 119.388H100.417ZM109.054 123.264C108.438 123.264 107.878 123.124 107.374 122.844C106.878 122.564 106.486 122.168 106.198 121.656C105.918 121.136 105.778 120.536 105.778 119.856C105.778 119.184 105.922 118.592 106.21 118.08C106.506 117.56 106.906 117.164 107.41 116.892C107.914 116.612 108.478 116.472 109.102 116.472C109.726 116.472 110.29 116.612 110.794 116.892C111.298 117.164 111.694 117.556 111.982 118.068C112.278 118.58 112.426 119.176 112.426 119.856C112.426 120.536 112.274 121.136 111.97 121.656C111.674 122.168 111.27 122.564 110.758 122.844C110.246 123.124 109.678 123.264 109.054 123.264ZM109.054 122.304C109.446 122.304 109.814 122.212 110.158 122.028C110.502 121.844 110.778 121.568 110.986 121.2C111.202 120.832 111.31 120.384 111.31 119.856C111.31 119.328 111.206 118.88 110.998 118.512C110.79 118.144 110.518 117.872 110.182 117.696C109.846 117.512 109.482 117.42 109.09 117.42C108.69 117.42 108.322 117.512 107.986 117.696C107.658 117.872 107.394 118.144 107.194 118.512C106.994 118.88 106.894 119.328 106.894 119.856C106.894 120.392 106.99 120.844 107.182 121.212C107.382 121.58 107.646 121.856 107.974 122.04C108.302 122.216 108.662 122.304 109.054 122.304ZM114.954 117.648C115.146 117.272 115.418 116.98 115.77 116.772C116.13 116.564 116.566 116.46 117.078 116.46V117.588H116.79C115.566 117.588 114.954 118.252 114.954 119.58V123.156H113.862V116.58H114.954V117.648ZM122.629 117.792C122.845 117.416 123.165 117.104 123.589 116.856C124.021 116.6 124.521 116.472 125.089 116.472C125.673 116.472 126.201 116.612 126.673 116.892C127.153 117.172 127.529 117.568 127.801 118.08C128.073 118.584 128.209 119.172 128.209 119.844C128.209 120.508 128.073 121.1 127.801 121.62C127.529 122.14 127.153 122.544 126.673 122.832C126.201 123.12 125.673 123.264 125.089 123.264C124.529 123.264 124.033 123.14 123.601 122.892C123.177 122.636 122.853 122.32 122.629 121.944V126.276H121.537V116.58H122.629V117.792ZM127.093 119.844C127.093 119.348 126.993 118.916 126.793 118.548C126.593 118.18 126.321 117.9 125.977 117.708C125.641 117.516 125.269 117.42 124.861 117.42C124.461 117.42 124.089 117.52 123.745 117.72C123.409 117.912 123.137 118.196 122.929 118.572C122.729 118.94 122.629 119.368 122.629 119.856C122.629 120.352 122.729 120.788 122.929 121.164C123.137 121.532 123.409 121.816 123.745 122.016C124.089 122.208 124.461 122.304 124.861 122.304C125.269 122.304 125.641 122.208 125.977 122.016C126.321 121.816 126.593 121.532 126.793 121.164C126.993 120.788 127.093 120.348 127.093 119.844ZM130.739 117.648C130.931 117.272 131.203 116.98 131.555 116.772C131.915 116.564 132.351 116.46 132.863 116.46V117.588H132.575C131.351 117.588 130.739 118.252 130.739 119.58V123.156H129.647V116.58H130.739V117.648ZM136.991 123.264C136.375 123.264 135.815 123.124 135.311 122.844C134.815 122.564 134.423 122.168 134.135 121.656C133.855 121.136 133.715 120.536 133.715 119.856C133.715 119.184 133.859 118.592 134.147 118.08C134.443 117.56 134.843 117.164 135.347 116.892C135.851 116.612 136.415 116.472 137.039 116.472C137.663 116.472 138.227 116.612 138.731 116.892C139.235 117.164 139.631 117.556 139.919 118.068C140.215 118.58 140.363 119.176 140.363 119.856C140.363 120.536 140.211 121.136 139.907 121.656C139.611 122.168 139.207 122.564 138.695 122.844C138.183 123.124 137.615 123.264 136.991 123.264ZM136.991 122.304C137.383 122.304 137.751 122.212 138.095 122.028C138.439 121.844 138.715 121.568 138.923 121.2C139.139 120.832 139.247 120.384 139.247 119.856C139.247 119.328 139.143 118.88 138.935 118.512C138.727 118.144 138.455 117.872 138.119 117.696C137.783 117.512 137.419 117.42 137.027 117.42C136.627 117.42 136.259 117.512 135.923 117.696C135.595 117.872 135.331 118.144 135.131 118.512C134.931 118.88 134.831 119.328 134.831 119.856C134.831 120.392 134.927 120.844 135.119 121.212C135.319 121.58 135.583 121.856 135.911 122.04C136.239 122.216 136.599 122.304 136.991 122.304ZM144.475 117.48H143.095V123.156H142.003V117.48H141.151V116.58H142.003V116.112C142.003 115.376 142.191 114.84 142.567 114.504C142.951 114.16 143.563 113.988 144.403 113.988V114.9C143.923 114.9 143.583 114.996 143.383 115.188C143.191 115.372 143.095 115.68 143.095 116.112V116.58H144.475V117.48ZM146.312 115.512C146.104 115.512 145.928 115.44 145.784 115.296C145.64 115.152 145.568 114.976 145.568 114.768C145.568 114.56 145.64 114.384 145.784 114.24C145.928 114.096 146.104 114.024 146.312 114.024C146.512 114.024 146.68 114.096 146.816 114.24C146.96 114.384 147.032 114.56 147.032 114.768C147.032 114.976 146.96 115.152 146.816 115.296C146.68 115.44 146.512 115.512 146.312 115.512ZM146.84 116.58V123.156H145.748V116.58H146.84ZM150.033 117.48V121.356C150.033 121.676 150.101 121.904 150.237 122.04C150.373 122.168 150.609 122.232 150.945 122.232H151.749V123.156H150.765C150.157 123.156 149.701 123.016 149.397 122.736C149.093 122.456 148.941 121.996 148.941 121.356V117.48H148.089V116.58H148.941V114.924H150.033V116.58H151.749V117.48H150.033Z" fill="#F0F0F0"/>
<path d="M98.875 166.531H86.875M86.875 166.531L92.5417 160.865M86.875 166.531L92.5417 172.198" stroke="#2BBA8F" stroke-width="1.5" stroke-linecap="round" stroke-linejoin="round"/>
<path d="M133.307 165.331V163.783H136.199V172.531H134.471V165.331H133.307ZM142.551 161.167L139.311 174.703H137.667L140.907 161.167H142.551ZM149.575 165.235H145.687V167.287C145.855 167.079 146.095 166.911 146.407 166.783C146.719 166.647 147.051 166.579 147.403 166.579C148.043 166.579 148.567 166.719 148.975 166.999C149.383 167.279 149.679 167.639 149.863 168.079C150.047 168.511 150.139 168.975 150.139 169.471C150.139 170.391 149.875 171.131 149.347 171.691C148.827 172.251 148.083 172.531 147.115 172.531C146.203 172.531 145.475 172.303 144.931 171.847C144.387 171.391 144.079 170.795 144.007 170.059H145.639C145.711 170.379 145.871 170.635 146.119 170.827C146.375 171.019 146.699 171.115 147.091 171.115C147.563 171.115 147.919 170.967 148.159 170.671C148.399 170.375 148.519 169.983 148.519 169.495C148.519 168.999 148.395 168.623 148.147 168.367C147.907 168.103 147.551 167.971 147.079 167.971C146.743 167.971 146.463 168.055 146.239 168.223C146.015 168.391 145.855 168.615 145.759 168.895H144.151V163.759H149.575V165.235Z" fill="#F0F0F0"/>
<path d="M184.875 166.531H196.875M196.875 166.531L191.208 172.198M196.875 166.531L191.208 160.865" stroke="#2BBA8F" stroke-width="1.5" stroke-linecap="round" stroke-linejoin="round"/>
</svg>
