<svg width="24" height="24" viewBox="0 0 24 24" fill="none" xmlns="http://www.w3.org/2000/svg">
<path d="M7.1998 2.39999C6.56329 2.39999 5.95284 2.65285 5.50275 3.10294C5.05266 3.55302 4.7998 4.16347 4.7998 4.79999V19.2C4.7998 19.8365 5.05266 20.447 5.50275 20.897C5.95284 21.3471 6.56329 21.6 7.1998 21.6H12.3082C12.0026 21.2298 11.7382 20.8275 11.5198 20.4H7.1998C6.88155 20.4 6.57632 20.2736 6.35128 20.0485C6.12623 19.8235 5.9998 19.5183 5.9998 19.2H11.0482C10.7273 18.0695 10.714 16.8739 11.0097 15.7366C11.3054 14.5993 11.8994 13.5615 12.7304 12.7306C13.5613 11.8996 14.5991 11.3056 15.7364 11.0099C16.8737 10.7142 18.0693 10.7275 19.1998 11.0484V4.79999C19.1998 4.16347 18.9469 3.55302 18.4969 3.10294C18.0468 2.65285 17.4363 2.39999 16.7998 2.39999H7.1998ZM8.0998 5.39999H15.8998C16.1385 5.39999 16.3674 5.49481 16.5362 5.6636C16.705 5.83238 16.7998 6.0613 16.7998 6.29999C16.7998 6.53869 16.705 6.76761 16.5362 6.93639C16.3674 7.10517 16.1385 7.19999 15.8998 7.19999H8.0998C7.86111 7.19999 7.63219 7.10517 7.46341 6.93639C7.29463 6.76761 7.1998 6.53869 7.1998 6.29999C7.1998 6.0613 7.29463 5.83238 7.46341 5.6636C7.63219 5.49481 7.86111 5.39999 8.0998 5.39999ZM22.7998 17.4C22.7998 18.8322 22.2309 20.2057 21.2182 21.2184C20.2055 22.2311 18.832 22.8 17.3998 22.8C15.9676 22.8 14.5941 22.2311 13.5814 21.2184C12.5687 20.2057 11.9998 18.8322 11.9998 17.4C11.9998 15.9678 12.5687 14.5943 13.5814 13.5816C14.5941 12.5689 15.9676 12 17.3998 12C18.832 12 20.2055 12.5689 21.2182 13.5816C22.2309 14.5943 22.7998 15.9678 22.7998 17.4ZM16.8238 15.0408C16.746 14.9874 16.6556 14.9552 16.5615 14.9474C16.4674 14.9396 16.3729 14.9565 16.2874 14.9964C16.2176 15.0271 16.1544 15.0711 16.1014 15.126C15.9896 15.2405 15.9272 15.3943 15.9274 15.5544V19.2444C15.9267 19.3239 15.9417 19.4028 15.9715 19.4766C16.0014 19.5503 16.0455 19.6174 16.1014 19.674C16.1562 19.7285 16.2199 19.7731 16.2898 19.806C16.4116 19.8618 16.5497 19.8703 16.6774 19.83C16.7327 19.8118 16.7852 19.7859 16.8334 19.7532L19.5886 17.8728C19.6724 17.8176 19.74 17.7409 19.7842 17.6508C19.8298 17.56 19.8532 17.4597 19.8526 17.3582C19.852 17.2566 19.8273 17.1566 19.7806 17.0664C19.7337 16.9776 19.6647 16.9024 19.5802 16.848L16.8238 15.0408Z" fill="#F0F0F0"/>
</svg>
