<svg width="33" height="32" viewBox="0 0 33 32" fill="none" xmlns="http://www.w3.org/2000/svg">
<mask id="mask0_156_283" style="mask-type:luminance" maskUnits="userSpaceOnUse" x="3" y="2" width="27" height="28">
<path d="M25.6878 18.6667H7.02116C5.5484 18.6667 4.35449 19.8606 4.35449 21.3334V25.3334C4.35449 26.8061 5.5484 28 7.02116 28H25.6878C27.1606 28 28.3545 26.8061 28.3545 25.3334V21.3334C28.3545 19.8606 27.1606 18.6667 25.6878 18.6667Z" stroke="white" stroke-width="2.66667"/>
<path d="M13.6878 4.66669H7.02116C6.31391 4.66669 5.63564 4.94764 5.13554 5.44774C4.63544 5.94783 4.35449 6.62611 4.35449 7.33335V11.3334C4.35449 12.0406 4.63544 12.7189 5.13554 13.219C5.63564 13.7191 6.31391 14 7.02116 14H13.6878" stroke="white" stroke-width="2.66667" stroke-linecap="round"/>
<path d="M23.0208 14.6667C25.9664 14.6667 28.3542 12.2789 28.3542 9.33333C28.3542 6.38781 25.9664 4 23.0208 4C20.0753 4 17.6875 6.38781 17.6875 9.33333C17.6875 12.2789 20.0753 14.6667 23.0208 14.6667Z" fill="white" stroke="white" stroke-width="2.66667"/>
<path d="M23.0215 11.3333C24.1261 11.3333 25.0215 10.4379 25.0215 9.33331C25.0215 8.22874 24.1261 7.33331 23.0215 7.33331C21.9169 7.33331 21.0215 8.22874 21.0215 9.33331C21.0215 10.4379 21.9169 11.3333 23.0215 11.3333Z" fill="black"/>
</mask>
<g mask="url(#mask0_156_283)">
<path d="M0.354492 0H32.3545V32H0.354492V0Z" fill="#F0F0F0"/>
</g>
</svg>
