<svg width="16" height="16" viewBox="0 0 16 16" fill="none" xmlns="http://www.w3.org/2000/svg">
<path d="M12.6667 9.33331H3.33333C2.59695 9.33331 2 9.93027 2 10.6666V12.6666C2 13.403 2.59695 14 3.33333 14H12.6667C13.403 14 14 13.403 14 12.6666V10.6666C14 9.93027 13.403 9.33331 12.6667 9.33331Z" stroke="#F0F0F0" stroke-width="1.33333"/>
<path d="M6.66667 2.33331H3.33333C2.97971 2.33331 2.64057 2.47379 2.39052 2.72384C2.14048 2.97389 2 3.31302 2 3.66665V5.66665C2 6.02027 2.14048 6.35941 2.39052 6.60946C2.64057 6.8595 2.97971 6.99998 3.33333 6.99998H6.66667" stroke="#F0F0F0" stroke-width="1.33333" stroke-linecap="round"/>
<path d="M11.3337 7.33333C12.8064 7.33333 14.0003 6.13943 14.0003 4.66667C14.0003 3.19391 12.8064 2 11.3337 2C9.8609 2 8.66699 3.19391 8.66699 4.66667C8.66699 6.13943 9.8609 7.33333 11.3337 7.33333Z" stroke="#F0F0F0" stroke-width="1.33333"/>
<path d="M11.333 5.66669C11.8853 5.66669 12.333 5.21897 12.333 4.66669C12.333 4.1144 11.8853 3.66669 11.333 3.66669C10.7807 3.66669 10.333 4.1144 10.333 4.66669C10.333 5.21897 10.7807 5.66669 11.333 5.66669Z" fill="#F0F0F0"/>
</svg>
