<svg width="33" height="33" viewBox="0 0 33 33" fill="none" xmlns="http://www.w3.org/2000/svg">
<circle cx="16" cy="16" r="14.5" fill="url(#paint0_linear_156_339)"/>
<path d="M8.84634 29.0173H8.49967C7.24234 29.0173 6.61434 29.0173 6.22367 28.6267C5.83301 28.2373 5.83301 27.6093 5.83301 26.352V24.8693C5.83301 24.1787 5.83301 23.8333 6.01034 23.524C6.18767 23.216 6.45567 23.06 6.99167 22.748C10.5197 20.696 15.5277 19.5413 18.8717 21.5347C19.0957 21.6693 19.2983 21.832 19.4717 22.0253C19.6507 22.2216 19.7887 22.4517 19.8774 22.7021C19.966 22.9526 20.0037 23.2182 19.988 23.4834C19.9724 23.7487 19.9037 24.008 19.7862 24.2463C19.6687 24.4846 19.5046 24.6968 19.3037 24.8707C19.1434 25.023 18.9478 25.1329 18.7343 25.1907C18.8943 25.172 19.0477 25.1507 19.1943 25.128C20.409 24.9347 21.429 24.284 22.3623 23.5787L24.773 21.7587C25.2031 21.4458 25.7212 21.2773 26.253 21.2773C26.7848 21.2773 27.3029 21.4458 27.733 21.7587C28.497 22.336 28.7317 23.2867 28.2477 24.0627C27.6837 24.9667 26.889 26.1227 26.1263 26.8293C25.3623 27.536 24.225 28.168 23.297 28.616C22.2677 29.1133 21.1317 29.3987 19.9757 29.5867C17.6317 29.9653 15.189 29.9067 12.869 29.4293C11.5454 29.1572 10.1976 29.0183 8.84634 29.0173ZM9.28101 3.948C8.79167 4.43733 8.60901 5.112 8.54101 6.16667C9.3226 6.15596 10.0691 5.84063 10.6217 5.28779C11.1743 4.73495 11.4893 3.98826 11.4997 3.20667C10.4463 3.276 9.77034 3.45867 9.28101 3.948ZM23.7183 3.948C23.229 3.45867 22.5543 3.276 21.4997 3.208C21.5104 3.98959 21.8257 4.73613 22.3786 5.28873C22.9314 5.84132 23.6781 6.15632 24.4597 6.16667C24.3903 5.11333 24.2077 4.43733 23.7183 3.948ZM23.7183 13.052C23.229 13.5413 22.5543 13.724 21.4997 13.792C21.5104 13.0104 21.8257 12.2639 22.3786 11.7113C22.9314 11.1587 23.6781 10.8437 24.4597 10.8333C24.3903 11.8867 24.2077 12.5627 23.7183 13.052ZM9.28101 13.052C9.77034 13.5413 10.445 13.724 11.4997 13.792C11.489 13.0104 11.1736 12.2639 10.6208 11.7113C10.068 11.1587 9.32127 10.8437 8.53967 10.8333C8.60901 11.8867 8.79167 12.5627 9.28101 13.052Z" fill="#F0F0F0"/>
<path fill-rule="evenodd" clip-rule="evenodd" d="M8.5 8.16666C9.82608 8.16666 11.0979 7.63987 12.0355 6.70219C12.9732 5.76451 13.5 4.49274 13.5 3.16666H19.5C19.5 4.49274 20.0268 5.76451 20.9645 6.70219C21.9021 7.63987 23.1739 8.16666 24.5 8.16666V8.83332C23.1739 8.83332 21.9021 9.36011 20.9645 10.2978C20.0268 11.2355 19.5 12.5072 19.5 13.8333H13.5C13.5 12.5072 12.9732 11.2355 12.0355 10.2978C11.0979 9.36011 9.82608 8.83332 8.5 8.83332V8.16666ZM16.5 9.83332C16.8536 9.83332 17.1928 9.69285 17.4428 9.4428C17.6929 9.19275 17.8333 8.85361 17.8333 8.49999C17.8333 8.14637 17.6929 7.80723 17.4428 7.55718C17.1928 7.30713 16.8536 7.16666 16.5 7.16666C16.1464 7.16666 15.8072 7.30713 15.5572 7.55718C15.3071 7.80723 15.1667 8.14637 15.1667 8.49999C15.1667 8.85361 15.3071 9.19275 15.5572 9.4428C15.8072 9.69285 16.1464 9.83332 16.5 9.83332Z" fill="#F0F0F0"/>
<defs>
<linearGradient id="paint0_linear_156_339" x1="20.8333" y1="2.03335" x2="11.2854" y2="29.6744" gradientUnits="userSpaceOnUse">
<stop stop-color="#2BBA8F" stop-opacity="0.49"/>
<stop offset="1" stop-color="#27332F" stop-opacity="0"/>
</linearGradient>
</defs>
</svg>
