<svg width="34" height="34" viewBox="0 0 34 34" fill="none" xmlns="http://www.w3.org/2000/svg">
<path d="M12.3513 21.7117L21.3014 23.2659L22.902 14.3241C22.9311 14.2331 22.9402 14.1369 22.9289 14.0421C22.9176 13.9473 22.886 13.856 22.8363 13.7744C22.7866 13.6929 22.72 13.6229 22.6409 13.5694C22.5619 13.5158 22.4722 13.4798 22.378 13.4639C22.2839 13.448 22.1874 13.4525 22.0951 13.4771C22.0028 13.5018 21.9169 13.5459 21.8432 13.6066C21.7695 13.6673 21.7096 13.7432 21.6678 13.829C21.6259 13.9148 21.603 14.0087 21.6005 14.1042L20.3906 20.8029L13.0756 10.356C12.9742 10.2112 12.8194 10.1125 12.6453 10.0818C12.4711 10.0511 12.292 10.0909 12.1471 10.1923C12.0023 10.2937 11.9037 10.4485 11.873 10.6226C11.8423 10.7967 11.882 10.9759 11.9834 11.1208L19.2984 21.5677L12.5898 20.4135C12.4155 20.3834 12.2364 20.4238 12.0918 20.5258C11.9472 20.6277 11.8491 20.783 11.819 20.9573C11.7889 21.1316 11.8293 21.3108 11.9313 21.4553C12.0333 21.5999 12.1885 21.698 12.3628 21.7281L12.3513 21.7117Z" fill="#F0F0F0"/>
</svg>
