<svg width="34" height="34" viewBox="0 0 34 34" fill="none" xmlns="http://www.w3.org/2000/svg">
<path d="M22.6513 20.3977L22.6278 11.3137L13.5438 11.2901C13.4492 11.2773 13.3529 11.285 13.2614 11.3126C13.17 11.3403 13.0856 11.3872 13.0139 11.4503C12.9422 11.5134 12.8849 11.5912 12.8459 11.6783C12.8069 11.7655 12.787 11.86 12.7877 11.9555C12.7884 12.051 12.8096 12.1453 12.8498 12.2319C12.8901 12.3185 12.9485 12.3954 13.0211 12.4575C13.0937 12.5195 13.1788 12.5653 13.2706 12.5916C13.3624 12.6179 13.4588 12.6242 13.5532 12.6101L20.3603 12.6383L11.3423 21.6563C11.2173 21.7813 11.1471 21.9509 11.1471 22.1277C11.1471 22.3045 11.2173 22.4741 11.3423 22.5991C11.4674 22.7242 11.6369 22.7944 11.8137 22.7944C11.9906 22.7944 12.1601 22.7242 12.2851 22.5991L21.3031 13.5812L21.3314 20.3882C21.332 20.5651 21.4029 20.7346 21.5284 20.8592C21.654 20.9839 21.8239 21.0535 22.0008 21.0529C22.1777 21.0523 22.3471 20.9814 22.4718 20.8559C22.5964 20.7303 22.6661 20.5604 22.6655 20.3835L22.6513 20.3977Z" fill="#F0F0F0"/>
</svg>
