<svg width="54" height="56" viewBox="0 0 54 56" fill="none" xmlns="http://www.w3.org/2000/svg">
<g clip-path="url(#clip0_533_3514)">
<path d="M0.537598 0.560303H53.2126V55.4386H0.537598V0.560303Z" fill="#FFC325"/>
<path d="M1.33838 28.0001C1.33838 22.2685 12.7715 17.6216 26.875 17.6216C40.9785 17.6216 52.4116 22.2696 52.4116 28.0006C52.4116 33.7317 40.979 38.3774 26.875 38.3774C12.771 38.3774 1.33838 33.7311 1.33838 28.0001Z" fill="#006891"/>
<path d="M1.33838 28.0001C1.33838 22.2685 12.7715 17.6216 26.875 17.6216C40.9785 17.6216 52.4116 22.2696 52.4116 28.0006C52.4116 33.7317 40.979 38.3774 26.875 38.3774C12.771 38.3774 1.33838 33.7311 1.33838 28.0001Z" stroke="#006891" stroke-width="0.0524566" stroke-miterlimit="3.8636"/>
<path fill-rule="evenodd" clip-rule="evenodd" d="M10.6973 33.0445L13.3477 22.7366H17.531V28.7991H17.5585L20.3965 22.7366H24.6459L21.9955 33.0445H19.2333L20.9323 26.4326H20.9049L17.531 33.0445H15.3192V26.4326H15.2741L13.575 33.0445H10.6973Z" fill="white"/>
<path fill-rule="evenodd" clip-rule="evenodd" d="M25.3936 33.2484L25.7698 31.7834H28.8185L28.4417 33.2484H25.3936Z" fill="#EE4034"/>
<path fill-rule="evenodd" clip-rule="evenodd" d="M25.8753 31.3718L27.4173 25.3787H24.646L25.3259 22.7366H33.9168L33.2374 25.3787H30.466L28.9245 31.3701L25.8753 31.3718Z" fill="#FFC325"/>
<path fill-rule="evenodd" clip-rule="evenodd" d="M31.9473 33.0445L34.5961 22.7366H37.5899L38.9407 28.252H38.967L40.3849 22.7366H43.1525L40.5032 33.0445H37.655L36.1881 27.4148H36.1618L34.7149 33.0445H31.9473Z" fill="white"/>
</g>
<defs>
<clipPath id="clip0_533_3514">
<rect width="53.75" height="56" rx="4.66667" fill="white"/>
</clipPath>
</defs>
</svg>
