<svg width="28" height="28" viewBox="0 0 28 28" fill="none" xmlns="http://www.w3.org/2000/svg">
<rect x="0.5" y="0.5" width="27" height="27" rx="13.5" stroke="#F0F0F0" stroke-opacity="0.7"/>
<path d="M12.6667 19.6667H15.3333C15.3333 20.4 14.7333 21 14 21C13.2667 21 12.6667 20.4 12.6667 19.6667ZM20 18.3333V19H8V18.3333L9.33333 17V13C9.33333 10.9333 10.6667 9.13333 12.6667 8.53333V8.33333C12.6667 7.6 13.2667 7 14 7C14.7333 7 15.3333 7.6 15.3333 8.33333V8.53333C17.3333 9.13333 18.6667 10.9333 18.6667 13V17L20 18.3333ZM17.3333 13C17.3333 11.1333 15.8667 9.66667 14 9.66667C12.1333 9.66667 10.6667 11.1333 10.6667 13V17.6667H17.3333V13Z" fill="#F0F0F0"/>
</svg>
