<svg width="121" height="68" viewBox="0 0 121 68" fill="none" xmlns="http://www.w3.org/2000/svg">
<path d="M60.5 2.21875C51.9361 2.21875 44.9688 9.18607 44.9688 17.75V24.1846C44.9688 25.775 46.3619 27.0688 48.075 27.0688H49.6281C50.04 27.0688 50.4351 26.9051 50.7263 26.6139C51.0176 26.3226 51.1813 25.9275 51.1813 25.5156V17.5279C51.1813 17.116 51.0176 16.7209 50.7263 16.4297C50.4351 16.1384 50.04 15.9748 49.6281 15.9748H48.2179C49.0814 9.96419 54.2533 5.325 60.5 5.325C66.7467 5.325 71.9186 9.96419 72.7821 15.9748H71.3719C70.96 15.9748 70.5649 16.1384 70.2736 16.4297C69.9824 16.7209 69.8188 17.116 69.8188 17.5279V27.0688C69.8188 28.7818 68.4256 30.175 66.7125 30.175H63.6063V28.6219H57.3938V33.2812H66.7125C70.1387 33.2812 72.925 30.4949 72.925 27.0688C74.6381 27.0688 76.0312 25.775 76.0312 24.1846V17.75C76.0312 9.18607 69.0639 2.21875 60.5 2.21875Z" fill="#2BBA8F"/>
<path d="M6.772 61.612C5.73733 61.612 4.78267 61.372 3.908 60.892C3.044 60.4013 2.356 59.724 1.844 58.86C1.34267 57.9853 1.092 57.004 1.092 55.916C1.092 54.828 1.34267 53.852 1.844 52.988C2.356 52.124 3.044 51.452 3.908 50.972C4.78267 50.4813 5.73733 50.236 6.772 50.236C7.81733 50.236 8.772 50.4813 9.636 50.972C10.5107 51.452 11.1987 52.124 11.7 52.988C12.2013 53.852 12.452 54.828 12.452 55.916C12.452 57.004 12.2013 57.9853 11.7 58.86C11.1987 59.724 10.5107 60.4013 9.636 60.892C8.772 61.372 7.81733 61.612 6.772 61.612ZM6.772 60.028C7.508 60.028 8.164 59.8627 8.74 59.532C9.316 59.1907 9.764 58.7107 10.084 58.092C10.4147 57.4627 10.58 56.7373 10.58 55.916C10.58 55.0947 10.4147 54.3747 10.084 53.756C9.764 53.1373 9.316 52.6627 8.74 52.332C8.164 52.0013 7.508 51.836 6.772 51.836C6.036 51.836 5.38 52.0013 4.804 52.332C4.228 52.6627 3.77467 53.1373 3.444 53.756C3.124 54.3747 2.964 55.0947 2.964 55.916C2.964 56.7373 3.124 57.4627 3.444 58.092C3.77467 58.7107 4.228 59.1907 4.804 59.532C5.38 59.8627 6.036 60.028 6.772 60.028ZM18.6949 52.54C19.3882 52.54 20.0069 52.684 20.5509 52.972C21.1055 53.26 21.5375 53.6867 21.8469 54.252C22.1562 54.8173 22.3109 55.5 22.3109 56.3V61.5H20.5029V56.572C20.5029 55.7827 20.3055 55.18 19.9109 54.764C19.5162 54.3373 18.9775 54.124 18.2949 54.124C17.6122 54.124 17.0682 54.3373 16.6629 54.764C16.2682 55.18 16.0709 55.7827 16.0709 56.572V61.5H14.2469V52.684H16.0709V53.692C16.3695 53.3293 16.7482 53.0467 17.2069 52.844C17.6762 52.6413 18.1722 52.54 18.6949 52.54ZM26.4615 49.66V61.5H24.6375V49.66H26.4615ZM29.7843 51.516C29.4536 51.516 29.1763 51.404 28.9523 51.18C28.7283 50.956 28.6163 50.6787 28.6163 50.348C28.6163 50.0173 28.7283 49.74 28.9523 49.516C29.1763 49.292 29.4536 49.18 29.7843 49.18C30.1043 49.18 30.3763 49.292 30.6003 49.516C30.8243 49.74 30.9363 50.0173 30.9363 50.348C30.9363 50.6787 30.8243 50.956 30.6003 51.18C30.3763 51.404 30.1043 51.516 29.7843 51.516ZM30.6803 52.684V61.5H28.8563V52.684H30.6803ZM37.523 52.54C38.2163 52.54 38.835 52.684 39.379 52.972C39.9337 53.26 40.3657 53.6867 40.675 54.252C40.9843 54.8173 41.139 55.5 41.139 56.3V61.5H39.331V56.572C39.331 55.7827 39.1337 55.18 38.739 54.764C38.3443 54.3373 37.8057 54.124 37.123 54.124C36.4403 54.124 35.8963 54.3373 35.491 54.764C35.0963 55.18 34.899 55.7827 34.899 56.572V61.5H33.075V52.684H34.899V53.692C35.1977 53.3293 35.5763 53.0467 36.035 52.844C36.5043 52.6413 37.0003 52.54 37.523 52.54ZM51.5456 56.876C51.5456 57.2067 51.5243 57.5053 51.4816 57.772H44.7456C44.799 58.476 45.0603 59.0413 45.5296 59.468C45.999 59.8947 46.575 60.108 47.2576 60.108C48.239 60.108 48.9323 59.6973 49.3376 58.876H51.3056C51.039 59.6867 50.5536 60.3533 49.8496 60.876C49.1563 61.388 48.2923 61.644 47.2576 61.644C46.415 61.644 45.6576 61.4573 44.9856 61.084C44.3243 60.7 43.8016 60.1667 43.4176 59.484C43.0443 58.7907 42.8576 57.9907 42.8576 57.084C42.8576 56.1773 43.039 55.3827 43.4016 54.7C43.775 54.0067 44.2923 53.4733 44.9536 53.1C45.6256 52.7267 46.3936 52.54 47.2576 52.54C48.0896 52.54 48.831 52.7213 49.4816 53.084C50.1323 53.4467 50.639 53.9587 51.0016 54.62C51.3643 55.2707 51.5456 56.0227 51.5456 56.876ZM49.6416 56.3C49.631 55.628 49.391 55.0893 48.9216 54.684C48.4523 54.2787 47.871 54.076 47.1776 54.076C46.5483 54.076 46.0096 54.2787 45.5616 54.684C45.1136 55.0787 44.847 55.6173 44.7616 56.3H49.6416ZM61.1609 61.612C60.4142 61.612 59.7422 61.484 59.1449 61.228C58.5475 60.9613 58.0782 60.588 57.7369 60.108C57.3955 59.628 57.2249 59.068 57.2249 58.428H59.1769C59.2195 58.908 59.4062 59.3027 59.7369 59.612C60.0782 59.9213 60.5529 60.076 61.1609 60.076C61.7902 60.076 62.2809 59.9267 62.6329 59.628C62.9849 59.3187 63.1609 58.924 63.1609 58.444C63.1609 58.0707 63.0489 57.7667 62.8249 57.532C62.6115 57.2973 62.3395 57.116 62.0089 56.988C61.6889 56.86 61.2409 56.7213 60.6649 56.572C59.9395 56.38 59.3475 56.188 58.8889 55.996C58.4409 55.7933 58.0569 55.484 57.7369 55.068C57.4169 54.652 57.2569 54.0973 57.2569 53.404C57.2569 52.764 57.4169 52.204 57.7369 51.724C58.0569 51.244 58.5049 50.876 59.0809 50.62C59.6569 50.364 60.3235 50.236 61.0809 50.236C62.1582 50.236 63.0382 50.508 63.7209 51.052C64.4142 51.5853 64.7982 52.3213 64.8729 53.26H62.8569C62.8249 52.8547 62.6329 52.508 62.2809 52.22C61.9289 51.932 61.4649 51.788 60.8889 51.788C60.3662 51.788 59.9395 51.9213 59.6089 52.188C59.2782 52.4547 59.1129 52.8387 59.1129 53.34C59.1129 53.6813 59.2142 53.964 59.4169 54.188C59.6302 54.4013 59.8969 54.572 60.2169 54.7C60.5369 54.828 60.9742 54.9667 61.5289 55.116C62.2649 55.3187 62.8622 55.5213 63.3209 55.724C63.7902 55.9267 64.1849 56.2413 64.5049 56.668C64.8355 57.084 65.0009 57.644 65.0009 58.348C65.0009 58.9133 64.8462 59.4467 64.5369 59.948C64.2382 60.4493 63.7955 60.8547 63.2089 61.164C62.6329 61.4627 61.9502 61.612 61.1609 61.612ZM75.1371 52.684V61.5H73.3131V60.46C73.0251 60.8227 72.6465 61.1107 72.1771 61.324C71.7185 61.5267 71.2278 61.628 70.7051 61.628C70.0118 61.628 69.3878 61.484 68.8331 61.196C68.2891 60.908 67.8571 60.4813 67.5371 59.916C67.2278 59.3507 67.0731 58.668 67.0731 57.868V52.684H68.8811V57.596C68.8811 58.3853 69.0785 58.9933 69.4731 59.42C69.8678 59.836 70.4065 60.044 71.0891 60.044C71.7718 60.044 72.3105 59.836 72.7051 59.42C73.1105 58.9933 73.3131 58.3853 73.3131 57.596V52.684H75.1371ZM79.3678 53.98C79.6771 53.5747 80.0984 53.2333 80.6318 52.956C81.1651 52.6787 81.7678 52.54 82.4398 52.54C83.2078 52.54 83.9064 52.732 84.5358 53.116C85.1758 53.4893 85.6771 54.0173 86.0398 54.7C86.4024 55.3827 86.5838 56.1667 86.5838 57.052C86.5838 57.9373 86.4024 58.732 86.0398 59.436C85.6771 60.1293 85.1758 60.6733 84.5358 61.068C83.9064 61.452 83.2078 61.644 82.4398 61.644C81.7678 61.644 81.1704 61.5107 80.6478 61.244C80.1251 60.9667 79.6984 60.6253 79.3678 60.22V65.692H77.5438V52.684H79.3678V53.98ZM84.7278 57.052C84.7278 56.444 84.5998 55.9213 84.3438 55.484C84.0984 55.036 83.7678 54.7 83.3518 54.476C82.9464 54.2413 82.5091 54.124 82.0398 54.124C81.5811 54.124 81.1438 54.2413 80.7278 54.476C80.3224 54.7107 79.9918 55.052 79.7358 55.5C79.4904 55.948 79.3678 56.476 79.3678 57.084C79.3678 57.692 79.4904 58.2253 79.7358 58.684C79.9918 59.132 80.3224 59.4733 80.7278 59.708C81.1438 59.9427 81.5811 60.06 82.0398 60.06C82.5091 60.06 82.9464 59.9427 83.3518 59.708C83.7678 59.4627 84.0984 59.1107 84.3438 58.652C84.5998 58.1933 84.7278 57.66 84.7278 57.052ZM90.2115 53.98C90.5208 53.5747 90.9422 53.2333 91.4755 52.956C92.0088 52.6787 92.6115 52.54 93.2835 52.54C94.0515 52.54 94.7502 52.732 95.3795 53.116C96.0195 53.4893 96.5208 54.0173 96.8835 54.7C97.2462 55.3827 97.4275 56.1667 97.4275 57.052C97.4275 57.9373 97.2462 58.732 96.8835 59.436C96.5208 60.1293 96.0195 60.6733 95.3795 61.068C94.7502 61.452 94.0515 61.644 93.2835 61.644C92.6115 61.644 92.0142 61.5107 91.4915 61.244C90.9688 60.9667 90.5422 60.6253 90.2115 60.22V65.692H88.3875V52.684H90.2115V53.98ZM95.5715 57.052C95.5715 56.444 95.4435 55.9213 95.1875 55.484C94.9422 55.036 94.6115 54.7 94.1955 54.476C93.7902 54.2413 93.3528 54.124 92.8835 54.124C92.4248 54.124 91.9875 54.2413 91.5715 54.476C91.1662 54.7107 90.8355 55.052 90.5795 55.5C90.3342 55.948 90.2115 56.476 90.2115 57.084C90.2115 57.692 90.3342 58.2253 90.5795 58.684C90.8355 59.132 91.1662 59.4733 91.5715 59.708C91.9875 59.9427 92.4248 60.06 92.8835 60.06C93.3528 60.06 93.7902 59.9427 94.1955 59.708C94.6115 59.4627 94.9422 59.1107 95.1875 58.652C95.4435 58.1933 95.5715 57.66 95.5715 57.052ZM103.055 61.644C102.223 61.644 101.471 61.4573 100.799 61.084C100.127 60.7 99.5993 60.1667 99.2153 59.484C98.8313 58.7907 98.6393 57.9907 98.6393 57.084C98.6393 56.188 98.8366 55.3933 99.2313 54.7C99.6259 54.0067 100.165 53.4733 100.847 53.1C101.53 52.7267 102.293 52.54 103.135 52.54C103.978 52.54 104.741 52.7267 105.423 53.1C106.106 53.4733 106.645 54.0067 107.039 54.7C107.434 55.3933 107.631 56.188 107.631 57.084C107.631 57.98 107.429 58.7747 107.023 59.468C106.618 60.1613 106.063 60.7 105.359 61.084C104.666 61.4573 103.898 61.644 103.055 61.644ZM103.055 60.06C103.525 60.06 103.962 59.948 104.367 59.724C104.783 59.5 105.119 59.164 105.375 58.716C105.631 58.268 105.759 57.724 105.759 57.084C105.759 56.444 105.637 55.9053 105.391 55.468C105.146 55.02 104.821 54.684 104.415 54.46C104.01 54.236 103.573 54.124 103.103 54.124C102.634 54.124 102.197 54.236 101.791 54.46C101.397 54.684 101.082 55.02 100.847 55.468C100.613 55.9053 100.495 56.444 100.495 57.084C100.495 58.0333 100.735 58.7693 101.215 59.292C101.706 59.804 102.319 60.06 103.055 60.06ZM111.258 53.964C111.525 53.516 111.877 53.1693 112.314 52.924C112.762 52.668 113.29 52.54 113.898 52.54V54.428H113.434C112.72 54.428 112.176 54.6093 111.802 54.972C111.44 55.3347 111.258 55.964 111.258 56.86V61.5H109.434V52.684H111.258V53.964ZM117.703 54.172V59.052C117.703 59.3827 117.778 59.6227 117.927 59.772C118.087 59.9107 118.354 59.98 118.727 59.98H119.847V61.5H118.407C117.586 61.5 116.956 61.308 116.519 60.924C116.082 60.54 115.863 59.916 115.863 59.052V54.172H114.823V52.684H115.863V50.492H117.703V52.684H119.847V54.172H117.703Z" fill="#F0F0F0"/>
</svg>
