<svg width="32" height="29" viewBox="0 0 32 29" fill="none" xmlns="http://www.w3.org/2000/svg">
<rect y="0.5" width="32" height="28" rx="4" fill="#A7E3FD"/>
<path d="M14.6199 15.16C14.6866 15.16 16.2333 15.2267 17.1533 15H17.1599C18.2199 14.74 19.6933 13.9933 20.0733 11.5533C20.0733 11.5533 20.9199 8.5 16.7199 8.5H13.1133C12.7866 8.5 12.5066 8.74 12.4533 9.06L10.9199 18.7667C10.8866 18.9667 11.0466 19.1533 11.2466 19.1533H13.5333L14.0933 15.6067C14.1333 15.3533 14.3533 15.16 14.6199 15.16Z" fill="#293593"/>
<path d="M20.6602 12.0267C20.1202 14.5133 18.4202 15.8267 15.7135 15.8267H14.7335L14.0469 20.1733C14.0202 20.3467 14.1535 20.5 14.3269 20.5H15.5935C15.8202 20.5 16.0202 20.3333 16.0535 20.1067C16.1069 19.84 16.4002 17.8933 16.4602 17.56C16.4935 17.3333 16.6935 17.1667 16.9202 17.1667H17.2135C19.0935 17.1667 20.5669 16.4 21.0002 14.1933C21.1735 13.3 21.0802 12.5667 20.6602 12.0267Z" fill="#04AAF5"/>
</svg>
