<svg width="25" height="24" viewBox="0 0 25 24" fill="none" xmlns="http://www.w3.org/2000/svg">
<path d="M19.154 8.692C18.3127 8.692 17.582 8.42167 16.962 7.881C16.342 7.33967 15.9733 6.66133 15.856 5.846H9.119C9.01233 6.572 8.705 7.192 8.197 7.706C7.689 8.22133 7.07233 8.532 6.347 8.638V15.356C7.16167 15.474 7.83967 15.8427 8.381 16.462C8.92167 17.082 9.192 17.8127 9.192 18.654C9.192 19.5873 8.86767 20.3783 8.219 21.027C7.57033 21.6757 6.77933 22 5.846 22C4.91267 22 4.12167 21.6757 3.473 21.027C2.82433 20.3783 2.5 19.5873 2.5 18.654C2.5 17.8127 2.77067 17.082 3.312 16.462C3.85267 15.842 4.53067 15.4733 5.346 15.356V8.638C4.53067 8.52067 3.85267 8.15367 3.312 7.537C2.77067 6.92033 2.5 6.19033 2.5 5.347C2.5 4.41367 2.82567 3.62233 3.477 2.973C4.129 2.32433 4.91233 2 5.827 2C6.67033 2 7.40033 2.27067 8.017 2.812C8.63367 3.35267 9.001 4.03067 9.119 4.846H15.856C15.974 4.03067 16.3427 3.35267 16.962 2.812C17.582 2.27067 18.3127 2 19.154 2C20.074 2 20.8617 2.32767 21.517 2.983C22.1723 3.63833 22.5 4.426 22.5 5.346C22.5 6.27933 22.1723 7.07033 21.517 7.719C20.8617 8.36767 20.074 8.692 19.154 8.692ZM5.834 21.02C6.49467 21.02 7.053 20.788 7.509 20.324C7.96433 19.86 8.192 19.3077 8.192 18.667C8.192 18.0063 7.96433 17.448 7.509 16.992C7.053 16.5367 6.49467 16.309 5.834 16.309C5.194 16.309 4.64167 16.5367 4.177 16.992C3.713 17.448 3.481 18.0063 3.481 18.667C3.481 19.307 3.713 19.8593 4.177 20.324C4.641 20.788 5.19333 21.02 5.834 21.02ZM5.834 7.713C6.49467 7.713 7.053 7.481 7.509 7.017C7.96433 6.55367 8.192 5.99633 8.192 5.345C8.192 4.69367 7.96433 4.14033 7.509 3.685C7.053 3.22833 6.49467 3 5.834 3C5.194 3 4.64167 3.228 4.177 3.684C3.713 4.13933 3.481 4.69267 3.481 5.344C3.481 5.99533 3.713 6.55267 4.177 7.016C4.641 7.48 5.19333 7.713 5.834 7.713ZM19.154 22C18.2207 22 17.4297 21.6757 16.781 21.027C16.1323 20.3783 15.808 19.5917 15.808 18.667C15.808 17.7437 16.1323 16.953 16.781 16.295C17.4297 15.637 18.2207 15.308 19.154 15.308C20.0873 15.308 20.8783 15.637 21.527 16.295C22.1757 16.953 22.5 17.744 22.5 18.668C22.5 19.592 22.1757 20.3783 21.527 21.027C20.8783 21.6757 20.0873 22 19.154 22ZM19.156 21.02C19.8073 21.02 20.3607 20.7877 20.816 20.323C21.272 19.859 21.5 19.3067 21.5 18.666C21.5 18.0053 21.272 17.447 20.816 16.991C20.3607 16.5357 19.8073 16.308 19.156 16.308C18.5047 16.308 17.9473 16.5357 17.484 16.991C17.02 17.447 16.788 18.0053 16.788 18.666C16.788 19.306 17.02 19.8583 17.484 20.323C17.9473 20.787 18.5047 21.019 19.156 21.019V21.02ZM19.156 7.712C19.8073 7.712 20.3607 7.48 20.816 7.016C21.272 6.55267 21.5 5.99533 21.5 5.344C21.5 4.69267 21.272 4.13933 20.816 3.684C20.3607 3.228 19.8073 3 19.156 3C18.5047 3 17.9473 3.228 17.484 3.684C17.02 4.13933 16.788 4.69267 16.788 5.344C16.788 5.99533 17.02 6.55267 17.484 7.016C17.9473 7.48 18.5047 7.712 19.156 7.712ZM5.826 21.019C5.19067 21.019 4.64067 20.787 4.176 20.323C3.71267 19.859 3.481 19.309 3.481 18.673C3.481 18.0077 3.713 17.447 4.177 16.991C4.641 16.5357 5.191 16.308 5.827 16.308C6.49233 16.308 7.053 16.5357 7.509 16.991C7.96433 17.447 8.192 18.0077 8.192 18.673C8.192 19.309 7.96433 19.86 7.509 20.324C7.053 20.788 6.49133 21.019 5.826 21.019ZM5.826 7.712C5.19067 7.712 4.64067 7.48067 4.176 7.018C3.71267 6.556 3.481 5.99867 3.481 5.346C3.481 4.69333 3.713 4.13933 4.177 3.684C4.641 3.228 5.191 3 5.827 3C6.49233 3 7.053 3.229 7.509 3.685C7.96433 4.14033 8.192 4.69333 8.192 5.346C8.192 5.99867 7.96433 6.555 7.509 7.017C7.053 7.47967 6.49133 7.712 5.826 7.712ZM19.154 21.019C18.5013 21.019 17.944 20.787 17.482 20.323C17.0193 19.859 16.788 19.309 16.788 18.673C16.788 18.0077 17.0193 17.447 17.482 16.991C17.944 16.5357 18.5013 16.308 19.154 16.308C19.8067 16.308 20.3607 16.5357 20.816 16.991C21.272 17.447 21.5 18.0077 21.5 18.673C21.5 19.309 21.272 19.859 20.816 20.323C20.3607 20.787 19.8067 21.019 19.154 21.019ZM19.154 7.712C18.5013 7.712 17.944 7.48067 17.482 7.018C17.0193 6.556 16.788 5.99867 16.788 5.346C16.788 4.69333 17.0193 4.13933 17.482 3.684C17.944 3.228 18.5013 3 19.154 3C19.8067 3 20.3607 3.228 20.816 3.684C21.272 4.13933 21.5 4.69333 21.5 5.346C21.5 5.99867 21.272 6.556 20.816 7.018C20.3607 7.48067 19.8067 7.712 19.154 7.712Z" fill="#F0F0F0"/>
</svg>
