<svg width="20" height="10" viewBox="0 0 20 10" fill="none" xmlns="http://www.w3.org/2000/svg">
<path d="M9.99967 0C4.32301 0 0.833008 5 0.833008 5C0.833008 5 4.32301 10 9.99967 10C15.6763 10 19.1663 5 19.1663 5C19.1663 5 15.6763 0 9.99967 0ZM9.99967 8.33333C6.71384 8.33333 4.22801 6.26333 3.01717 5C3.88384 4.09583 5.40217 2.78583 7.39551 2.10917C6.92609 2.69243 6.66896 3.41797 6.66634 4.16667C6.66634 5.05072 7.01753 5.89857 7.64265 6.52369C8.26777 7.14881 9.11562 7.5 9.99967 7.5C10.8837 7.5 11.7316 7.14881 12.3567 6.52369C12.9818 5.89857 13.333 5.05072 13.333 4.16667C13.3304 3.41797 13.0733 2.69243 12.6038 2.10917C14.598 2.78583 16.1172 4.09667 16.9822 5C15.7697 6.265 13.2847 8.33333 9.99967 8.33333Z" fill="#2BBA8F"/>
</svg>
