<svg width="355" height="355" viewBox="0 0 355 355" fill="none" xmlns="http://www.w3.org/2000/svg">
<g clip-path="url(#clip0_547_6198)">
<circle cx="177.5" cy="177.5" r="154.5" fill="#2BBA8F"/>
<path d="M177.5 19.7222C146.294 19.7222 115.789 28.9757 89.8429 46.3125C63.8965 63.6494 43.6737 88.2909 31.7319 117.121C19.79 145.951 16.6655 177.675 22.7534 208.281C28.8413 238.887 43.8682 267 65.9338 289.066C87.9994 311.131 116.113 326.158 146.719 332.246C177.325 338.334 209.048 335.209 237.878 323.268C266.709 311.326 291.35 291.103 308.687 265.157C326.024 239.21 335.277 208.705 335.277 177.5C335.277 135.655 318.654 95.5233 289.065 65.9342C259.476 36.3451 219.345 19.7222 177.5 19.7222ZM280.548 124.546L215.761 189.284L150.973 254.022L74.4509 177.5C71.8356 174.885 70.3663 171.337 70.3663 167.639C70.3663 163.94 71.8356 160.393 74.4509 157.778C77.0662 155.162 80.6134 153.693 84.312 153.693C88.0107 153.693 91.5578 155.162 94.1731 157.778L151.17 214.775L261.023 105.021C262.318 103.726 263.855 102.699 265.547 101.998C267.239 101.297 269.053 100.936 270.884 100.936C272.716 100.936 274.529 101.297 276.221 101.998C277.913 102.699 279.45 103.726 280.745 105.021C282.04 106.316 283.068 107.853 283.768 109.545C284.469 111.237 284.83 113.05 284.83 114.882C284.83 116.713 284.469 118.527 283.768 120.219C283.068 121.911 282.04 123.448 280.745 124.743L280.548 124.546Z" fill="#282F2D"/>
</g>
<defs>
<clipPath id="clip0_547_6198">
<rect width="355" height="355" fill="white"/>
</clipPath>
</defs>
</svg>
