<svg width="327" height="340" viewBox="0 0 327 340" fill="none" xmlns="http://www.w3.org/2000/svg">
<rect width="327" height="340" rx="10" fill="#2C2B2B"/>
<circle cx="147" cy="29" r="5" fill="#D9D9D9"/>
<circle cx="161" cy="29" r="5" fill="#D9D9D9"/>
<rect x="170" y="24" width="16" height="10" rx="3" fill="#2BBA8F"/>
<path d="M267.73 150.436H119.473C115.926 150.436 113.051 147.698 113.051 144.319V70.1598C113.051 66.7815 115.926 64.0431 119.473 64.0431H267.73C271.276 64.0431 274.152 66.7815 274.152 70.1598V144.319C274.152 147.698 271.276 150.436 267.73 150.436Z" fill="#F3F2F1"/>
<path d="M119.473 64.6078C116.259 64.6078 113.644 67.0983 113.644 70.1598V144.319C113.644 147.381 116.259 149.871 119.473 149.871H267.73C270.944 149.871 273.559 147.381 273.559 144.319V70.1598C273.559 67.0983 270.944 64.6078 267.73 64.6078H119.473ZM267.73 151.001H119.473C115.605 151.001 112.458 148.003 112.458 144.319V70.1598C112.458 66.476 115.605 63.4783 119.473 63.4783H267.73C271.598 63.4783 274.745 66.476 274.745 70.1598V144.319C274.745 148.003 271.598 151.001 267.73 151.001Z" fill="#DADBD8"/>
<path d="M112.656 117.051H138.141V129.632H161.372V144.416H240.248V121.004H256.525V90.474H273.758V141.887C273.758 146.547 269.791 150.325 264.897 150.325H122.303C116.975 150.325 112.656 146.212 112.656 141.137V117.051Z" fill="#DADBD8"/>
<path d="M121.783 162.591C121.772 163.459 121.571 178.183 121.231 203.133V203.176H121.186C100.988 203.18 74.3879 203.185 45.0618 203.191H45.0002V203.133C45 200.745 45 198.188 45 195.611C45.0014 180.434 45.0028 165.912 45.0039 152.596V152.541H45.0618C61.0303 152.545 75.3834 152.55 87.3974 152.554H87.4385L87.4419 152.592C87.574 154.021 88.1315 155.358 88.9399 156.481C89.746 157.609 90.7763 158.534 91.8795 159.283C94.1124 160.774 96.656 161.438 99.011 161.779C101.382 162.121 103.622 162.157 105.674 162.211C107.731 162.258 109.61 162.301 111.301 162.34C117.974 162.499 121.351 162.58 121.783 162.591C121.351 162.582 117.969 162.516 111.287 162.385C109.6 162.35 107.725 162.311 105.672 162.269C103.62 162.218 101.379 162.185 99.0006 161.845C96.6394 161.507 94.0828 160.844 91.8337 159.345C90.7223 158.593 89.6842 157.664 88.8699 156.526C88.0535 155.396 87.4878 154.044 87.3532 152.599L87.3974 152.638C75.3834 152.642 61.0303 152.646 45.0618 152.651L45.1195 152.596C45.1207 165.912 45.1221 180.434 45.1235 195.611C45.1235 198.188 45.1235 200.745 45.1232 203.133L45.0618 203.073C74.3879 203.079 100.988 203.085 121.186 203.088L121.14 203.132C121.536 178.183 121.769 163.458 121.783 162.591Z" fill="#E7E8E5"/>
<path d="M169.999 269.93C169.999 269.93 169.991 269.66 169.987 269.147C169.984 268.628 169.979 267.869 169.973 266.877C169.966 264.883 169.956 261.958 169.943 258.204C169.928 250.699 169.906 239.885 169.879 226.615L169.999 226.728C149.127 226.737 121.97 226.749 92.3734 226.761H92.3677L92.5219 226.615C92.518 241.949 92.514 256.596 92.5108 269.93L92.3677 269.794C115.11 269.82 134.498 269.844 148.21 269.86C155.07 269.875 160.509 269.888 164.241 269.897C166.103 269.904 167.537 269.91 168.514 269.914C168.996 269.917 169.364 269.919 169.619 269.922C169.868 269.924 169.999 269.93 169.999 269.93C169.999 269.93 169.879 269.936 169.636 269.938C169.385 269.94 169.023 269.942 168.548 269.946C167.577 269.95 166.153 269.955 164.303 269.963C160.579 269.971 155.152 269.984 148.305 270C134.57 270.016 115.149 270.039 92.3677 270.066L92.224 270.067V269.93C92.2205 256.596 92.2169 241.949 92.2129 226.615V226.467H92.3677H92.3734C121.97 226.479 149.127 226.491 169.999 226.501H170.118V226.615C170.092 239.914 170.07 250.753 170.056 258.274C170.042 262.018 170.032 264.933 170.025 266.922C170.019 267.905 170.015 268.657 170.012 269.171C170.007 269.677 169.999 269.93 169.999 269.93Z" fill="#DADBD8"/>
<path d="M166.543 229.233C166.557 229.28 166.181 229.292 165.927 229.707C165.809 229.902 165.732 230.192 165.843 230.453C165.943 230.714 166.271 230.886 166.626 230.87C166.981 230.854 167.289 230.652 167.363 230.382C167.447 230.113 167.34 229.831 167.203 229.648C166.909 229.258 166.533 229.281 166.543 229.233C166.541 229.219 166.626 229.182 166.787 229.2C166.947 229.216 167.176 229.309 167.374 229.517C167.561 229.722 167.735 230.06 167.638 230.454C167.546 230.855 167.098 231.151 166.641 231.163C166.185 231.192 165.708 230.941 165.577 230.549C165.441 230.166 165.579 229.813 165.744 229.592C165.92 229.367 166.139 229.254 166.297 229.223C166.455 229.19 166.543 229.219 166.543 229.233Z" fill="#DADBD8"/>
<path d="M95.6904 229.233C95.7045 229.28 95.328 229.292 95.0744 229.707C94.957 229.902 94.8799 230.192 94.9906 230.453C95.0909 230.714 95.4187 230.886 95.773 230.87C96.1281 230.854 96.4367 230.652 96.5103 230.382C96.5939 230.113 96.4881 229.831 96.3509 229.648C96.0565 229.258 95.6809 229.281 95.6904 229.233C95.6883 229.219 95.7728 229.182 95.9342 229.2C96.0936 229.216 96.3238 229.309 96.5212 229.517C96.7084 229.722 96.8821 230.06 96.7848 230.454C96.6942 230.855 96.2451 231.151 95.7883 231.163C95.3323 231.192 94.8553 230.941 94.7245 230.549C94.5878 230.166 94.7265 229.813 94.8917 229.592C95.067 229.367 95.2868 229.254 95.4439 229.223C95.6025 229.19 95.6906 229.219 95.6904 229.233Z" fill="#DADBD8"/>
<path d="M166.631 265.928C166.646 265.976 166.269 265.987 166.015 266.402C165.898 266.598 165.821 266.887 165.932 267.147C166.033 267.41 166.359 267.582 166.715 267.565C167.069 267.549 167.378 267.348 167.451 267.077C167.535 266.809 167.429 266.527 167.293 266.343C166.998 265.954 166.622 265.977 166.631 265.928C166.63 265.914 166.714 265.877 166.876 265.895C167.035 265.912 167.265 266.005 167.462 266.213C167.65 266.418 167.823 266.756 167.726 267.149C167.635 267.551 167.187 267.846 166.729 267.859C166.273 267.888 165.797 267.636 165.666 267.244C165.529 266.861 165.667 266.508 165.833 266.288C166.008 266.062 166.228 265.949 166.385 265.918C166.544 265.885 166.632 265.914 166.631 265.928Z" fill="#DADBD8"/>
<path d="M176.877 229.233C176.891 229.28 176.515 229.292 176.262 229.707C176.144 229.902 176.067 230.192 176.177 230.453C176.278 230.714 176.606 230.886 176.96 230.87C177.315 230.854 177.624 230.652 177.697 230.382C177.781 230.113 177.675 229.831 177.538 229.648C177.244 229.258 176.868 229.281 176.877 229.233C176.875 229.219 176.96 229.182 177.121 229.2C177.28 229.216 177.51 229.309 177.708 229.517C177.895 229.722 178.069 230.06 177.972 230.454C177.881 230.855 177.432 231.151 176.975 231.163C176.518 231.192 176.042 230.941 175.911 230.549C175.774 230.166 175.913 229.813 176.078 229.592C176.254 229.367 176.473 229.254 176.631 229.223C176.789 229.19 176.878 229.219 176.877 229.233Z" fill="#DADBD8"/>
<path d="M176.965 265.928C176.979 265.976 176.602 265.987 176.349 266.402C176.231 266.598 176.154 266.887 176.265 267.147C176.365 267.41 176.693 267.582 177.048 267.565C177.403 267.549 177.711 267.348 177.785 267.077C177.868 266.809 177.762 266.527 177.625 266.343C177.331 265.954 176.955 265.977 176.965 265.928C176.962 265.914 177.048 265.877 177.208 265.895C177.368 265.912 177.599 266.005 177.796 266.213C177.983 266.418 178.157 266.756 178.059 267.149C177.969 267.551 177.52 267.846 177.063 267.859C176.607 267.888 176.13 267.636 175.999 267.244C175.862 266.861 176.001 266.508 176.167 266.288C176.342 266.062 176.562 265.949 176.718 265.918C176.877 265.885 176.965 265.914 176.965 265.928Z" fill="#DADBD8"/>
<path d="M202.838 229.233C202.852 229.28 202.475 229.292 202.222 229.707C202.104 229.902 202.027 230.192 202.137 230.453C202.238 230.714 202.566 230.886 202.921 230.87C203.275 230.854 203.584 230.652 203.658 230.382C203.742 230.113 203.635 229.831 203.498 229.648C203.204 229.258 202.828 229.281 202.838 229.233C202.835 229.219 202.921 229.182 203.082 229.2C203.242 229.216 203.471 229.309 203.669 229.517C203.856 229.722 204.03 230.06 203.932 230.454C203.841 230.855 203.393 231.151 202.936 231.163C202.48 231.192 202.003 230.941 201.872 230.549C201.735 230.166 201.874 229.813 202.039 229.592C202.215 229.367 202.434 229.254 202.592 229.223C202.75 229.19 202.838 229.219 202.838 229.233Z" fill="#DADBD8"/>
<path d="M202.926 265.928C202.941 265.976 202.564 265.987 202.31 266.402C202.193 266.598 202.116 266.887 202.227 267.147C202.328 267.41 202.654 267.582 203.009 267.565C203.364 267.549 203.673 267.348 203.746 267.077C203.83 266.809 203.724 266.527 203.588 266.343C203.293 265.954 202.917 265.977 202.926 265.928C202.925 265.914 203.009 265.877 203.171 265.895C203.33 265.912 203.56 266.005 203.757 266.213C203.945 266.418 204.118 266.756 204.021 267.149C203.93 267.551 203.481 267.846 203.024 267.859C202.568 267.888 202.092 267.636 201.961 267.244C201.824 266.861 201.962 266.508 202.128 266.288C202.303 266.062 202.523 265.949 202.68 265.918C202.839 265.885 202.926 265.914 202.926 265.928Z" fill="#DADBD8"/>
<path d="M95.6021 265.928C95.6167 265.976 95.2403 265.987 94.9866 266.402C94.8687 266.598 94.7919 266.887 94.9026 267.147C95.0028 267.41 95.3306 267.582 95.6852 267.565C96.0398 267.549 96.3488 267.348 96.4221 267.077C96.5062 266.809 96.3998 266.527 96.2631 266.343C95.9685 265.954 95.5925 265.977 95.6021 265.928C95.6002 265.914 95.685 265.877 95.8462 265.895C96.0058 265.912 96.236 266.005 96.4332 266.213C96.6205 266.418 96.7938 266.756 96.6966 267.149C96.606 267.551 96.1573 267.846 95.7001 267.859C95.244 267.888 94.7675 267.636 94.6366 267.244C94.5 266.861 94.6383 266.508 94.8039 266.288C94.979 266.062 95.1988 265.949 95.3561 265.918C95.5148 265.885 95.6027 265.914 95.6021 265.928Z" fill="#DADBD8"/>
<path d="M194.945 269.93C194.945 269.93 194.938 269.854 194.935 269.713C194.933 269.562 194.93 269.355 194.926 269.089C194.922 268.531 194.916 267.725 194.908 266.683C194.898 264.581 194.885 261.532 194.868 257.698C194.851 250.029 194.827 239.219 194.798 226.614L194.945 226.753C188.129 226.756 180.681 226.758 172.927 226.761H172.924L173.078 226.614C173.062 243.365 173.048 258.617 173.038 269.93L172.924 269.821C179.697 269.846 185.186 269.866 188.996 269.88C190.895 269.892 192.375 269.9 193.393 269.907C193.89 269.912 194.273 269.915 194.544 269.918C194.805 269.922 194.945 269.93 194.945 269.93C194.945 269.93 194.821 269.937 194.567 269.941C194.301 269.943 193.925 269.947 193.437 269.953C192.426 269.959 190.954 269.968 189.065 269.98C185.239 269.994 179.726 270.014 172.924 270.038L172.81 270.039V269.93C172.8 258.617 172.785 243.365 172.77 226.614V226.467H172.924H172.927C180.681 226.47 188.129 226.473 194.945 226.475H195.09V226.614C195.062 239.257 195.038 250.099 195.02 257.791C195.003 261.612 194.99 264.65 194.98 266.745C194.972 267.774 194.966 268.57 194.962 269.121C194.958 269.382 194.955 269.583 194.953 269.729C194.95 269.865 194.947 269.933 194.945 269.93Z" fill="#DADBD8"/>
<path d="M194.436 247.53C194.436 247.611 189.763 247.677 184 247.677C178.235 247.677 173.562 247.611 173.562 247.53C173.562 247.448 178.235 247.383 184 247.383C189.763 247.383 194.436 247.448 194.436 247.53Z" fill="#DADBD8"/>
<path d="M262.464 269.93C262.464 269.93 262.454 269.656 262.45 269.136C262.447 268.609 262.442 267.841 262.436 266.838C262.428 264.822 262.418 261.873 262.404 258.102C262.388 250.564 262.366 239.75 262.339 226.615L262.464 226.734C244.627 226.741 222.482 226.751 198.542 226.761H198.537L198.691 226.615C198.686 242.122 198.681 256.837 198.677 269.93L198.537 269.796C217.408 269.823 233.371 269.846 244.625 269.863C250.256 269.878 254.707 269.89 257.759 269.898C259.281 269.905 260.451 269.911 261.251 269.914C261.643 269.917 261.943 269.92 262.152 269.922C262.356 269.924 262.464 269.93 262.464 269.93C262.464 269.93 262.367 269.935 262.169 269.938C261.963 269.939 261.668 269.942 261.283 269.945C260.49 269.949 259.328 269.954 257.819 269.962C254.774 269.97 250.334 269.982 244.717 269.998C233.44 270.013 217.446 270.036 198.537 270.063H198.397V269.93C198.392 256.837 198.387 242.122 198.382 226.615V226.467H198.537H198.542C222.482 226.477 244.627 226.488 262.464 226.495H262.589V226.615C262.562 239.781 262.539 250.62 262.523 258.176C262.509 261.935 262.498 264.876 262.492 266.886C262.485 267.879 262.48 268.64 262.477 269.161C262.472 269.673 262.464 269.93 262.464 269.93Z" fill="#DADBD8"/>
<path d="M46.8076 74.6663V141.197H98.7932V74.6534C98.7932 74.6534 46.8076 75.2034 46.8076 74.6663Z" fill="#DADBD8"/>
<path d="M46.8076 74.8038V85.156L98.8125 85.4587V74.6665L46.8076 74.8038Z" fill="#E7E8E5"/>
<path d="M65.6123 79.4296V81.4536H82.2637V79.699C82.2637 79.699 66.0392 79.4296 65.6123 79.4296Z" fill="#F0F0F0"/>
<path d="M49.707 89.9178V106.542H65.9866V89.9178H49.707Z" fill="#FAFAF9"/>
<path d="M63.71 123.954C63.71 123.954 63.9587 123.946 64.431 123.942C64.9281 123.939 65.6186 123.934 66.4946 123.93C68.3111 123.925 70.8917 123.918 74.0605 123.91L74.0138 123.954C74.0097 119.01 74.0046 112.469 73.9988 105.312C73.999 103.892 73.999 102.497 73.9993 101.142V101.084H74.0605C79.7537 101.09 84.9075 101.093 89.0266 101.097L88.9798 101.141C89.031 98.0585 89.0729 95.5454 89.1026 93.7767C89.1197 92.9222 89.1334 92.2496 89.1431 91.7651C89.1538 91.3048 89.1666 91.0625 89.1666 91.0625C89.1666 91.0625 89.1723 91.3054 89.1705 91.7656C89.1667 92.2496 89.1616 92.9228 89.1554 93.7772C89.1357 95.546 89.1077 98.0597 89.0736 101.143L89.0729 101.187H89.0266C84.9075 101.191 79.7537 101.195 74.0605 101.201L74.1216 101.142C74.1218 102.497 74.1221 103.892 74.1221 105.312C74.1163 112.469 74.1111 119.01 74.107 123.954V123.999H74.0605C70.8917 123.99 68.3111 123.984 66.4946 123.979C65.6186 123.974 64.9276 123.97 64.431 123.967C63.9587 123.963 63.71 123.954 63.71 123.954Z" fill="#FAFAF9"/>
<path d="M94.3534 128.879C94.3534 128.879 93.9247 128.89 93.1207 128.895C92.294 128.899 91.1201 128.903 89.6362 128.909C86.6132 128.914 82.3317 128.922 77.2022 128.93H77.1489V128.879C77.1464 124.102 77.1434 118.468 77.1406 112.454C77.141 109.809 77.1418 107.237 77.1425 104.782V104.725H77.2022C80.906 104.727 84.3638 104.73 87.4679 104.732L87.4156 104.782C87.4248 100.186 87.4322 96.3638 87.4376 93.6672C87.4439 92.3457 87.4485 91.3009 87.4519 90.5645C87.4568 89.8495 87.4679 89.4683 87.4679 89.4683C87.4679 89.4683 87.4785 89.8495 87.4839 90.5645C87.4874 91.3009 87.492 92.3457 87.4981 93.6672C87.5036 96.3638 87.511 100.186 87.5201 104.782L87.5203 104.832H87.4679C84.3638 104.834 80.906 104.836 77.2022 104.839L77.2624 104.782C77.2627 107.237 77.2634 109.809 77.2643 112.454C77.2611 118.468 77.258 124.102 77.2555 128.879L77.2022 128.829C82.3317 128.837 86.6132 128.845 89.6362 128.849C91.1201 128.856 92.2942 128.86 93.1207 128.864C93.9247 128.869 94.3534 128.879 94.3534 128.879Z" fill="#E7E8E5"/>
<path d="M49.8096 110.176V111.737H62.979V109.863L49.8096 110.176Z" fill="#FAFAF9"/>
<path d="M49.707 112.896V114.457H62.8765V112.584L49.707 112.896Z" fill="#FAFAF9"/>
<path d="M282.495 203.133C282.493 202.292 282.477 187.864 282.449 163.392L282.495 163.435C258.945 163.439 226.908 163.445 191.659 163.451H191.652L191.713 163.392C191.712 177.366 191.711 190.809 191.71 203.133L191.652 203.077C244.481 203.109 281.132 203.132 282.495 203.133C281.133 203.133 244.481 203.156 191.652 203.188H191.593V203.133C191.592 190.809 191.591 177.366 191.59 163.392V163.333H191.652H191.659C226.908 163.339 258.945 163.345 282.495 163.349H282.539V163.392C282.512 187.864 282.495 202.293 282.495 203.133Z" fill="#E7E8E5"/>
<path d="M283 274.849C283 274.929 229.93 274.996 164.481 274.996C99.0092 274.996 45.9512 274.929 45.9512 274.849C45.9512 274.768 99.0092 274.702 164.481 274.702C229.93 274.702 283 274.768 283 274.849Z" fill="#17282F"/>
<path d="M86.9709 274.841H81.9141V214.562H86.9709V274.841Z" fill="#17282F"/>
<path d="M245.341 274.848H240.284V214.562H245.341V274.848Z" fill="#17282F"/>
<path d="M249.695 215.18H80.0642C78.1187 215.18 76.542 213.677 76.542 211.825V210.906C76.542 209.053 78.1187 207.551 80.0642 207.551H249.695C251.64 207.551 253.216 209.053 253.216 210.906V211.825C253.216 213.677 251.64 215.18 249.695 215.18Z" fill="#DADBD8"/>
<path d="M203.999 79.6758L183.927 72.8114L164.051 79.5832C161.514 80.7246 159.288 81.4085 159.288 83.6595V94.8685C159.288 102.652 161.429 110.366 165.836 117.176C169.543 122.906 175.284 128.807 184.123 132.558C192.247 130.044 198.311 123.344 202.019 117.613C206.425 110.803 208.566 103.089 208.566 95.305V85.2261C208.566 82.0156 206.78 80.4478 203.999 79.6758Z" fill="#2BBA8F"/>
<path d="M161.095 80.9667C161.991 80.4065 163.084 79.9852 164.051 79.5831C162.957 80.0756 161.92 80.4828 161.095 80.9667Z" fill="#9FA1A1"/>
<path d="M184.123 132.558C175.284 128.807 169.543 122.906 165.836 117.176C161.429 110.366 159.288 102.652 159.288 94.8685V83.6595C159.288 83.6561 159.288 83.6527 159.288 83.6494C159.292 82.447 160.061 81.614 161.095 80.9668C161.92 80.4829 162.957 80.0757 164.051 79.5832L183.927 72.8114L183.93 78.0974L167.842 83.8267C165.602 84.8223 164.474 86.4906 164.474 88.2718V96.1347C164.474 102.293 166.168 108.396 169.654 113.783C172.587 118.317 177.13 123.085 184.123 126.052V132.558Z" fill="#2D2727"/>
<path d="M186.323 131.757C186.847 131.538 187.361 131.302 187.866 131.05C187.362 131.304 186.849 131.539 186.323 131.757ZM195.6 125.479C197.303 123.839 198.813 122.08 200.122 120.336C199.047 121.807 197.835 123.285 196.411 124.696C196.15 124.954 195.88 125.215 195.6 125.479ZM203.384 115.348C206.869 109.116 208.568 102.238 208.568 95.305V85.226C208.568 85.0374 208.562 84.8544 208.549 84.6771C208.569 84.9329 208.579 85.204 208.58 85.4915L208.568 94.7459C208.745 102.002 206.999 109.023 203.384 115.348ZM208.506 84.2417C208.277 82.4972 207.417 81.3276 206.105 80.5421C207.261 81.1368 208.237 82.0759 208.506 84.2417Z" fill="#2D2727"/>
<path d="M184.123 132.558V126.052C191.116 123.085 195.463 118.41 198.396 113.876C201.882 108.488 203.576 102.386 203.576 96.2267V88.3638C203.576 86.5832 202.448 84.9149 200.208 83.9187L183.931 78.0974L183.928 72.8114L203.999 79.6758C204.693 79.9644 205.429 80.1943 206.105 80.5422C207.416 81.3277 208.277 82.4973 208.505 84.2418C208.523 84.3818 208.538 84.527 208.549 84.6772C208.561 84.8545 208.567 85.0375 208.567 85.2261V95.305C208.567 102.238 206.868 109.116 203.384 115.348C203.014 115.995 202.624 116.636 202.215 117.268C201.566 118.27 200.877 119.301 200.121 120.336C198.813 122.08 197.303 123.839 195.599 125.479C193.551 127.405 190.998 129.426 188.066 130.947C187.999 130.981 187.933 131.016 187.866 131.05C187.36 131.302 186.847 131.538 186.323 131.757C185.617 132.05 184.887 132.314 184.123 132.558Z" fill="#2D2727"/>
<path d="M188.987 110.094H179.26C177.649 110.094 176.344 108.851 176.344 107.317V98.3939C176.344 96.9996 177.424 95.8486 178.831 95.6504L178.853 94.1092C178.853 91.3804 181.191 89.1536 184.064 89.1536C186.938 89.1536 189.275 91.3804 189.275 94.1172L189.253 95.6295C190.738 95.7583 191.903 96.9459 191.903 98.3939V107.317C191.903 108.851 190.597 110.094 188.987 110.094ZM184.124 100.615C183.267 100.615 182.572 101.276 182.572 102.092C182.572 102.622 182.867 103.086 183.307 103.346L182.91 105.096H185.454C185.454 105.096 185.168 103.997 184.988 103.318C185.402 103.054 185.674 102.603 185.674 102.092C185.674 101.276 184.98 100.615 184.124 100.615ZM184.064 90.2233C181.81 90.2233 179.976 91.97 179.976 94.1172L179.954 95.6171H188.13L188.152 94.1092C188.152 91.97 186.318 90.2233 184.064 90.2233Z" fill="#F3F2F1"/>
<path d="M167.727 95.5207C167.683 95.5269 167.544 94.9373 167.426 93.9682C167.306 93.0008 167.217 91.6522 167.263 90.163C167.285 89.4187 167.338 88.7105 167.408 88.0684C167.473 87.428 167.596 86.8265 167.857 86.377C168.112 85.9252 168.468 85.6558 168.736 85.5361C169.008 85.4152 169.178 85.4209 169.18 85.4395C169.214 85.4813 168.503 85.6146 168.079 86.4832C167.869 86.9033 167.777 87.4619 167.73 88.0972C167.678 88.7342 167.636 89.4356 167.614 90.1726C167.569 91.6466 167.617 92.9822 167.674 93.9485C167.727 94.9153 167.779 95.5139 167.727 95.5207Z" fill="#F0F0F0"/>
<path d="M168.022 100.4C167.925 100.402 167.837 99.9413 167.825 99.3715C167.814 98.8011 167.883 98.338 167.98 98.3363C168.076 98.3346 168.165 98.7949 168.176 99.3653C168.188 99.9345 168.119 100.398 168.022 100.4Z" fill="#F0F0F0"/>
<path d="M210.811 74.0046C210.811 74.0046 211.376 74.1114 212.401 74.4977C212.913 74.6891 213.533 74.9754 214.197 75.4204C214.85 75.8689 215.565 76.4923 216.069 77.388C216.589 78.2712 216.899 79.39 216.935 80.6234C216.965 81.8534 216.95 83.1856 216.96 84.6252C216.961 87.5025 216.988 90.7921 216.966 94.455C216.933 98.1213 216.441 102.16 215.343 106.4C214.218 110.63 212.433 115.052 209.823 119.366C207.198 123.664 203.863 127.92 199.685 131.725C195.518 135.506 190.412 138.85 184.426 140.623L184.374 140.638L184.324 140.618C182.265 139.771 180.21 138.825 178.198 137.734C176.197 136.628 174.235 135.396 172.346 134.025C168.56 131.293 165.115 127.966 162.143 124.219C158.9 120.129 156.34 115.653 154.548 111.02C152.752 106.389 151.709 101.613 151.36 96.928C151.172 94.5832 151.222 92.2661 151.215 89.9953C151.216 87.7211 151.218 85.4824 151.219 83.2833C151.219 82.1838 151.22 81.0933 151.221 80.0135C151.228 79.4747 151.196 78.9393 151.279 78.3831C151.36 77.8325 151.612 77.3072 151.967 76.8764C152.687 76.0038 153.703 75.4843 154.678 75.024C155.668 74.5733 156.668 74.1859 157.64 73.7731L157.646 73.7703L157.651 73.7686C167.682 70.5496 176.61 67.6846 184.091 65.2833L184.123 65.2732L184.155 65.2839C192.527 68.011 199.192 70.1813 203.771 71.6734C206.051 72.4222 207.81 73 209.007 73.393C209.597 73.5895 210.046 73.7398 210.357 73.8431C210.66 73.9459 210.811 74.0046 210.811 74.0046C210.811 74.0046 210.654 73.9634 210.348 73.8691C210.036 73.772 209.584 73.6302 208.991 73.4444C207.79 73.0621 206.025 72.5007 203.738 71.7728C199.152 70.2999 192.476 68.1573 184.091 65.4658H184.155C176.68 67.8829 167.759 70.767 157.736 74.008L157.748 74.0041C156.773 74.4197 155.773 74.8088 154.796 75.2555C153.834 75.7102 152.85 76.2246 152.185 77.0356C151.856 77.4371 151.627 77.9143 151.553 78.4254C151.477 78.9286 151.506 79.4742 151.501 80.0135C151.501 81.0933 151.502 82.1838 151.503 83.2833C151.504 85.4824 151.505 87.7211 151.506 89.9953C151.515 92.2706 151.468 94.5782 151.656 96.9077C152.008 101.567 153.047 106.315 154.835 110.919C156.618 115.524 159.164 119.975 162.39 124.041C165.345 127.767 168.77 131.076 172.533 133.794C174.41 135.156 176.361 136.383 178.349 137.484C180.349 138.569 182.393 139.511 184.44 140.355L184.338 140.35C190.268 138.599 195.341 135.286 199.49 131.53C203.649 127.753 206.979 123.515 209.599 119.244C212.205 114.954 213.991 110.556 215.122 106.347C216.226 102.128 216.729 98.1055 216.775 94.4528C216.788 90.7933 216.8 87.5025 216.811 84.6252C216.809 83.1873 216.832 81.8489 216.809 80.6274C216.781 79.4086 216.483 78.3074 215.979 77.4349C215.491 76.5505 214.793 75.9315 214.151 75.4809C213.5 75.0342 212.887 74.7422 212.381 74.544C211.876 74.3401 211.48 74.2119 211.213 74.1328C210.946 74.0521 210.811 74.0046 210.811 74.0046Z" fill="#F03D5F"/>
<path d="M148.349 163.208L149.822 189.766L186.92 190.572L184.173 169.951L187.008 148.845C185.147 138.971 170.613 138.291 170.613 138.291L159.207 138.115C159.207 138.115 153.842 137.439 147.987 140.487C147.987 140.487 136.407 146.489 136.512 161.741" fill="#33535F"/>
<path d="M170.728 137.994C170.652 137.968 170.539 138.917 169.726 140.144C168.936 141.347 167.064 142.668 164.723 142.646C162.39 142.67 160.476 141.394 159.711 140.174C159.306 139.565 159.112 138.998 158.994 138.607C158.876 138.214 158.831 137.989 158.802 137.994C158.784 137.996 158.783 138.227 158.861 138.637C158.94 139.044 159.102 139.641 159.498 140.297C159.887 140.954 160.558 141.636 161.464 142.142C162.36 142.662 163.511 142.984 164.724 142.98C165.938 142.983 167.086 142.648 167.977 142.118C168.873 141.6 169.534 140.917 169.937 140.27C170.346 139.623 170.528 139.035 170.633 138.633C170.73 138.227 170.749 137.998 170.728 137.994Z" fill="#17282F"/>
<path d="M179.444 146.881C175.868 149.597 173.705 153.657 173.521 158.009C173.234 164.753 172.792 174.119 172.531 174.587C171.721 176.032 150.26 174.801 148 174.646C147.623 174.54 146.834 174.31 145.276 173.847C145.276 173.847 140.26 169.712 139.348 170.954C138.436 172.195 141.984 172.993 142.67 175.433C143.356 177.872 136.229 175.963 135.769 175.665L133.928 175.169C133.928 175.169 135.022 178.5 135.952 179.555C138.934 182.93 145.73 184.629 145.73 184.629C145.73 184.629 173.521 193.227 184.75 186.126C188.418 183.808 189.043 161.054 187.654 152.254C187.105 148.777 183.944 146.225 180.252 146.268L179.444 146.881Z" fill="#F8A58D"/>
<path d="M138.214 178.922C138.236 178.868 137.458 178.535 136.523 178.082C135.586 177.631 134.845 177.231 134.813 177.279C134.782 177.324 135.481 177.805 136.428 178.261C137.374 178.719 138.194 178.971 138.214 178.922Z" fill="#F68260"/>
<path d="M184.023 143.702C187.445 146.818 190.759 153.072 189.531 165.593L171.295 164.876L171.765 147.745C171.812 146.01 172.675 144.386 174.117 143.323C177.076 141.138 181.316 141.238 184.023 143.702Z" fill="#33535F"/>
<path d="M147.708 271.404L147.218 264.836L160.13 263.882L160.954 273.484L160.157 273.591C156.61 274.043 142.086 275.65 139.649 275.139C136.93 274.567 147.708 271.404 147.708 271.404Z" fill="#F03D5F"/>
<path d="M156.281 273.593C156.412 272.603 156.923 271.662 157.699 270.99C158.508 270.288 159.541 269.872 160.635 269.872C160.638 269.872 160.641 269.872 160.644 269.872L160.645 269.882L160.927 273.309L160.911 273.21L156.281 273.593Z" fill="#F46789"/>
<path d="M139.764 275.16C139.464 275.134 139.278 275.096 139.227 275.04C139.212 275.025 139.201 275.009 139.193 274.993C139.223 274.993 139.249 274.993 139.279 274.993C139.348 275.052 139.469 275.101 139.649 275.139C139.685 275.146 139.723 275.153 139.764 275.16Z" fill="#F0F0F0"/>
<path d="M139.279 274.992C139.249 274.992 139.223 274.992 139.193 274.992C139.159 274.924 139.176 274.848 139.233 274.765C139.191 274.851 139.204 274.928 139.279 274.992Z" fill="#57666B"/>
<path d="M149.751 274.702C154.047 274.311 158.42 273.813 160.158 273.591L160.955 273.484C158.196 273.922 153.927 274.373 149.899 274.702C149.852 274.702 149.797 274.702 149.751 274.702Z" fill="#F0F0F0"/>
<path d="M148.572 274.807C148.962 274.773 149.357 274.738 149.751 274.702C149.797 274.702 149.853 274.702 149.899 274.702C149.453 274.739 149.01 274.773 148.572 274.807Z" fill="#57666B"/>
<path d="M141.608 273.457C142.041 273.282 142.377 273.161 142.445 273.137C142.157 273.243 141.877 273.35 141.608 273.457Z" fill="#F0F0F0"/>
<path d="M140.898 275.195C140.431 275.195 140.047 275.183 139.764 275.16C139.723 275.153 139.685 275.146 139.649 275.139C139.468 275.1 139.347 275.051 139.279 274.993C139.203 274.927 139.191 274.851 139.232 274.765C139.511 274.357 140.75 273.803 141.609 273.457C141.877 273.35 142.157 273.242 142.445 273.136C142.452 273.133 142.456 273.132 142.456 273.132C142.463 273.131 142.47 273.131 142.475 273.131C143.219 273.131 143.728 274.631 143.728 274.631L156.281 273.593C156.275 273.639 156.269 273.686 156.265 273.733L160.927 273.309L160.954 273.484L160.157 273.591C158.419 273.813 154.046 274.312 149.751 274.702C149.357 274.738 148.962 274.773 148.572 274.807C145.457 275.043 142.614 275.195 140.898 275.195Z" fill="#F46789"/>
<path d="M156.266 273.733C156.27 273.686 156.275 273.639 156.282 273.593L160.912 273.21L160.927 273.309L156.266 273.733Z" fill="#F68CA8"/>
<path d="M161.114 273.188C161.114 273.193 161.038 273.206 160.894 273.227C160.703 273.253 160.495 273.28 160.259 273.311C159.623 273.385 158.842 273.475 157.92 273.582C155.944 273.798 153.209 274.061 150.183 274.289C147.156 274.516 144.411 274.665 142.424 274.747C141.496 274.78 140.71 274.807 140.07 274.829C139.832 274.833 139.622 274.837 139.429 274.84C139.283 274.842 139.206 274.84 139.206 274.834C139.205 274.83 139.282 274.821 139.428 274.811C139.62 274.799 139.83 274.786 140.067 274.771C140.706 274.736 141.491 274.693 142.418 274.642C144.404 274.532 147.145 274.367 150.171 274.14C153.195 273.912 155.93 273.665 157.909 273.477C158.832 273.389 159.615 273.314 160.252 273.254C160.489 273.233 160.699 273.214 160.89 273.197C161.036 273.186 161.113 273.183 161.114 273.188Z" fill="#17282F"/>
<path d="M143.748 274.821C143.7 274.83 143.62 274.299 143.221 273.787C142.833 273.268 142.328 273.031 142.351 272.991C142.358 272.953 142.93 273.143 143.349 273.699C143.774 274.249 143.788 274.827 143.748 274.821Z" fill="#17282F"/>
<path d="M147.406 272.696C147.371 272.721 147.171 272.524 146.96 272.255C146.749 271.986 146.605 271.749 146.64 271.724C146.674 271.7 146.874 271.897 147.085 272.166C147.297 272.434 147.441 272.672 147.406 272.696Z" fill="#17282F"/>
<path d="M148.408 272.093C148.382 272.125 148.167 272.011 147.929 271.837C147.691 271.663 147.52 271.496 147.546 271.463C147.572 271.43 147.786 271.544 148.025 271.719C148.263 271.892 148.434 272.059 148.408 272.093Z" fill="#17282F"/>
<path d="M148.973 270.883C148.977 270.924 148.678 270.983 148.306 271.014C147.934 271.046 147.629 271.039 147.625 270.997C147.621 270.956 147.92 270.898 148.292 270.866C148.665 270.834 148.969 270.842 148.973 270.883Z" fill="#17282F"/>
<path d="M149.134 270.048C149.151 270.083 148.833 270.249 148.399 270.312C147.964 270.377 147.609 270.31 147.614 270.271C147.618 270.228 147.962 270.226 148.375 270.165C148.788 270.105 149.116 270.009 149.134 270.048Z" fill="#17282F"/>
<path d="M146.88 271.657C146.882 271.674 146.567 271.734 146.05 271.714C145.792 271.703 145.485 271.668 145.151 271.594C144.985 271.551 144.813 271.522 144.63 271.433C144.543 271.387 144.446 271.321 144.404 271.203C144.36 271.087 144.416 270.949 144.504 270.878C145.265 270.428 146.094 270.792 146.42 271.161C146.599 271.349 146.688 271.537 146.734 271.668C146.779 271.801 146.782 271.879 146.773 271.88C146.745 271.893 146.691 271.574 146.34 271.234C146.167 271.069 145.912 270.913 145.595 270.849C145.296 270.787 144.877 270.796 144.612 270.986C144.487 271.089 144.551 271.233 144.704 271.305C144.848 271.379 145.029 271.417 145.186 271.46C145.508 271.539 145.806 271.585 146.058 271.608C146.562 271.655 146.878 271.632 146.88 271.657Z" fill="#17282F"/>
<path d="M146.667 271.712C146.656 271.721 146.517 271.528 146.527 271.17C146.533 270.995 146.583 270.783 146.706 270.576C146.838 270.39 147.007 270.134 147.364 270.122C147.557 270.131 147.668 270.333 147.649 270.468C147.645 270.607 147.59 270.731 147.537 270.831C147.43 271.038 147.304 271.208 147.184 271.339C146.944 271.6 146.746 271.708 146.736 271.694C146.72 271.676 146.89 271.54 147.098 271.272C147.201 271.139 147.312 270.971 147.406 270.773C147.507 270.597 147.56 270.291 147.349 270.271C147.139 270.267 146.944 270.48 146.83 270.647C146.714 270.827 146.656 271.017 146.638 271.178C146.6 271.504 146.695 271.704 146.667 271.712Z" fill="#17282F"/>
<path d="M160.574 269.843C160.573 269.87 160.201 269.837 159.622 269.945C159.05 270.05 158.265 270.336 157.609 270.918C156.953 271.501 156.6 272.227 156.452 272.765C156.298 273.306 156.308 273.662 156.279 273.661C156.269 273.661 156.257 273.573 156.258 273.413C156.258 273.253 156.279 273.02 156.344 272.739C156.468 272.181 156.819 271.416 157.501 270.809C158.185 270.201 159.01 269.922 159.603 269.842C159.902 269.799 160.147 269.796 160.315 269.806C160.483 269.817 160.574 269.833 160.574 269.843Z" fill="#17282F"/>
<path d="M158.815 264.826C158.859 264.822 159.001 265.949 159.134 267.343C159.268 268.737 159.341 269.87 159.297 269.874C159.254 269.878 159.111 268.75 158.978 267.356C158.845 265.962 158.772 264.829 158.815 264.826Z" fill="#17282F"/>
<path d="M154.542 272.655C154.55 272.693 153.72 272.887 152.671 272.973C151.623 273.063 150.77 273.009 150.771 272.97C150.772 272.926 151.619 272.912 152.658 272.824C153.696 272.739 154.533 272.613 154.542 272.655Z" fill="#17282F"/>
<path d="M157.072 272.463C157.106 272.491 157.017 272.639 156.946 272.829C156.872 273.019 156.841 273.186 156.796 273.187C156.755 273.19 156.714 272.998 156.798 272.778C156.881 272.558 157.042 272.435 157.072 272.463Z" fill="#17282F"/>
<path d="M157.933 271.262C157.966 271.288 157.893 271.422 157.77 271.562C157.648 271.701 157.521 271.792 157.488 271.765C157.454 271.738 157.527 271.604 157.65 271.465C157.773 271.326 157.9 271.235 157.933 271.262Z" fill="#17282F"/>
<path d="M159.255 270.644C159.249 270.686 159.078 270.697 158.893 270.775C158.707 270.849 158.58 270.959 158.544 270.934C158.507 270.914 158.601 270.731 158.831 270.638C159.06 270.544 159.265 270.605 159.255 270.644Z" fill="#17282F"/>
<path d="M160.207 270.328C160.225 270.365 160.156 270.433 160.052 270.481C159.948 270.528 159.849 270.537 159.83 270.5C159.812 270.463 159.881 270.394 159.984 270.347C160.088 270.3 160.188 270.292 160.207 270.328Z" fill="#17282F"/>
<path d="M108.023 271.716L108.198 265.135L121.146 265.367L120.998 274.999L120.194 275.034C116.617 275.159 101.999 275.429 99.624 274.696C96.9753 273.879 108.023 271.716 108.023 271.716Z" fill="#F03D5F"/>
<path d="M121.053 271.414V271.375C121.053 271.375 121.053 271.375 121.053 271.375L121.053 271.414Z" fill="#F0F0F0"/>
<path d="M120.987 274.823L120.982 274.723L116.335 274.68C116.566 273.707 117.169 272.816 118.009 272.219C118.779 271.67 119.697 271.357 120.648 271.357C120.782 271.357 120.917 271.363 121.053 271.376V271.414L120.987 274.823Z" fill="#F46789"/>
<path d="M112.326 275.213C111.061 275.213 109.786 275.202 108.555 275.183C109.031 275.186 109.511 275.187 109.991 275.187C114.219 275.187 118.478 275.094 120.194 275.034L120.997 274.999C118.769 275.146 115.58 275.213 112.326 275.213ZM99.7199 274.725C99.4336 274.673 99.258 274.618 99.2133 274.559C99.148 274.474 99.1668 274.381 99.2471 274.285C99.1512 274.442 99.2543 274.582 99.6236 274.696C99.6555 274.706 99.6893 274.716 99.7255 274.725C99.7225 274.725 99.7231 274.725 99.7199 274.725ZM101.725 273.207C102.182 273.07 102.537 272.978 102.608 272.959C102.305 273.041 102.008 273.124 101.725 273.207Z" fill="#F0F0F0"/>
<path d="M99.7385 274.728C99.7321 274.727 99.7259 274.726 99.7197 274.725C99.723 274.725 99.7223 274.725 99.7254 274.725C99.7297 274.726 99.7342 274.727 99.7385 274.728Z" fill="#57666B"/>
<path d="M109.991 275.187C109.511 275.187 109.031 275.186 108.556 275.183C104.576 275.12 101.044 274.96 99.7387 274.728C99.7345 274.727 99.7301 274.726 99.726 274.726C99.6898 274.716 99.656 274.706 99.6241 274.696C99.2548 274.583 99.1518 274.442 99.2476 274.286C99.5645 273.908 100.837 273.474 101.725 273.208C102.009 273.124 102.305 273.041 102.609 272.959C102.617 272.957 102.622 272.956 102.622 272.956C103.375 272.999 103.736 274.564 103.736 274.564L116.336 274.68C116.324 274.726 116.314 274.772 116.305 274.818L120.988 274.823L120.998 274.999L120.194 275.034C118.478 275.094 114.219 275.187 109.991 275.187Z" fill="#F46789"/>
<path d="M120.987 274.823L116.305 274.818C116.314 274.772 116.324 274.726 116.335 274.681L120.982 274.724L120.987 274.823Z" fill="#F68CA8"/>
<path d="M121.186 274.719C121.186 274.724 121.109 274.73 120.963 274.738C120.771 274.746 120.561 274.754 120.323 274.764C119.683 274.779 118.897 274.798 117.968 274.82C115.979 274.853 113.23 274.864 110.196 274.815C107.16 274.763 104.413 274.661 102.426 274.561C101.499 274.508 100.713 274.463 100.075 274.427C99.8374 274.41 99.6275 274.394 99.4358 274.38C99.2898 274.367 99.2134 274.359 99.2139 274.353C99.2141 274.348 99.291 274.347 99.4376 274.35C99.6299 274.355 99.8402 274.362 100.078 274.368C100.717 274.392 101.503 274.421 102.431 274.455C104.418 274.528 107.164 274.614 110.199 274.666C113.232 274.715 115.978 274.72 117.967 274.714C118.896 274.711 119.682 274.708 120.322 274.706C120.56 274.707 120.77 274.707 120.963 274.708C121.109 274.711 121.186 274.714 121.186 274.719Z" fill="#17282F"/>
<path d="M103.736 274.755C103.688 274.76 103.661 274.224 103.317 273.678C102.982 273.125 102.503 272.844 102.53 272.806C102.541 272.769 103.091 273.011 103.452 273.602C103.819 274.189 103.774 274.765 103.736 274.755Z" fill="#17282F"/>
<path d="M107.59 272.975C107.553 272.997 107.375 272.782 107.191 272.495C107.007 272.209 106.889 271.959 106.926 271.938C106.962 271.916 107.141 272.131 107.325 272.417C107.509 272.704 107.627 272.954 107.59 272.975Z" fill="#17282F"/>
<path d="M108.65 272.466C108.62 272.496 108.419 272.362 108.199 272.168C107.979 271.973 107.826 271.791 107.855 271.76C107.885 271.73 108.086 271.864 108.306 272.058C108.525 272.253 108.679 272.435 108.65 272.466Z" fill="#17282F"/>
<path d="M109.335 271.314C109.335 271.354 109.031 271.386 108.657 271.384C108.284 271.381 107.981 271.346 107.981 271.305C107.982 271.263 108.285 271.232 108.659 271.235C109.032 271.237 109.335 271.273 109.335 271.314Z" fill="#17282F"/>
<path d="M109.578 270.497C109.592 270.534 109.26 270.669 108.82 270.692C108.381 270.717 108.035 270.619 108.044 270.58C108.052 270.538 108.394 270.568 108.811 270.544C109.229 270.522 109.566 270.456 109.578 270.497Z" fill="#17282F"/>
<path d="M107.173 271.892C107.173 271.909 106.853 271.941 106.341 271.873C106.085 271.839 105.783 271.776 105.459 271.671C105.297 271.613 105.128 271.57 104.955 271.464C104.874 271.41 104.784 271.335 104.754 271.214C104.722 271.094 104.791 270.963 104.886 270.9C105.689 270.521 106.477 270.961 106.765 271.357C106.924 271.56 106.994 271.756 107.026 271.891C107.057 272.027 107.053 272.104 107.044 272.105C107.014 272.115 106.993 271.792 106.678 271.422C106.522 271.241 106.284 271.064 105.975 270.97C105.683 270.882 105.265 270.853 104.982 271.018C104.848 271.108 104.897 271.257 105.042 271.343C105.177 271.43 105.354 271.484 105.507 271.541C105.82 271.65 106.111 271.723 106.359 271.769C106.856 271.861 107.173 271.868 107.173 271.892Z" fill="#17282F"/>
<path d="M106.956 271.928C106.944 271.937 106.825 271.732 106.871 271.376C106.894 271.201 106.966 270.995 107.109 270.801C107.259 270.628 107.453 270.388 107.809 270.409C108.002 270.436 108.092 270.646 108.059 270.779C108.041 270.918 107.973 271.036 107.911 271.131C107.783 271.327 107.64 271.484 107.509 271.603C107.243 271.842 107.035 271.931 107.026 271.916C107.012 271.897 107.195 271.776 107.429 271.53C107.546 271.406 107.672 271.249 107.786 271.061C107.904 270.895 107.988 270.596 107.78 270.556C107.572 270.533 107.356 270.727 107.225 270.882C107.091 271.052 107.015 271.235 106.98 271.394C106.91 271.715 106.984 271.922 106.956 271.928Z" fill="#17282F"/>
<path d="M120.986 271.34C120.983 271.368 120.616 271.3 120.03 271.356C119.449 271.407 118.638 271.619 117.927 272.139C117.216 272.66 116.791 273.351 116.589 273.872C116.381 274.397 116.355 274.752 116.326 274.748C116.317 274.747 116.314 274.658 116.33 274.499C116.347 274.339 116.391 274.11 116.484 273.837C116.665 273.292 117.09 272.563 117.831 272.02C118.573 271.479 119.423 271.276 120.021 271.251C120.323 271.235 120.567 271.255 120.733 271.281C120.899 271.305 120.988 271.331 120.986 271.34Z" fill="#17282F"/>
<path d="M119.743 266.185C119.786 266.185 119.815 267.32 119.807 268.72C119.799 270.12 119.757 271.254 119.713 271.254C119.67 271.254 119.641 270.119 119.65 268.719C119.658 267.32 119.7 266.185 119.743 266.185Z" fill="#17282F"/>
<path d="M114.698 273.587C114.703 273.627 113.856 273.743 112.805 273.733C111.752 273.726 110.908 273.595 110.914 273.556C110.919 273.513 111.763 273.577 112.806 273.584C113.848 273.594 114.694 273.544 114.698 273.587Z" fill="#17282F"/>
<path d="M117.237 273.628C117.267 273.658 117.164 273.797 117.075 273.98C116.982 274.163 116.934 274.327 116.89 274.323C116.848 274.322 116.827 274.127 116.933 273.916C117.037 273.705 117.209 273.598 117.237 273.628Z" fill="#17282F"/>
<path d="M118.215 272.511C118.245 272.54 118.159 272.667 118.023 272.794C117.886 272.922 117.751 273 117.721 272.971C117.691 272.941 117.777 272.814 117.913 272.687C118.049 272.56 118.185 272.481 118.215 272.511Z" fill="#17282F"/>
<path d="M119.593 272.017C119.584 272.058 119.412 272.054 119.22 272.115C119.027 272.171 118.89 272.269 118.857 272.24C118.822 272.217 118.934 272.044 119.172 271.972C119.41 271.9 119.607 271.98 119.593 272.017Z" fill="#17282F"/>
<path d="M120.572 271.79C120.587 271.828 120.512 271.891 120.404 271.928C120.295 271.965 120.196 271.964 120.181 271.926C120.165 271.888 120.241 271.826 120.349 271.788C120.458 271.75 120.557 271.751 120.572 271.79Z" fill="#17282F"/>
<path d="M119.418 188.99L163.825 188.459L154.542 208.345L126.14 208.452L123.4 269.373H106.048L107.703 201.424C107.856 195.096 112.829 189.818 119.418 188.99Z" fill="#201F1F"/>
<path d="M123.973 264.68C123.973 264.588 119.947 264.513 114.982 264.513C110.015 264.513 105.99 264.588 105.99 264.68C105.99 264.772 110.015 264.846 114.982 264.846C119.947 264.846 123.973 264.772 123.973 264.68Z" fill="#33535F"/>
<path d="M161.616 209.967L162.871 268.47L142.794 269.403C142.794 269.403 139.602 212.092 141.196 195.825C142.286 184.691 186.888 189.479 186.888 189.479C187.535 211.643 161.616 209.967 161.616 209.967Z" fill="#201F1F"/>
<path d="M162.872 263.853C162.87 263.831 162.594 263.821 162.097 263.825C161.525 263.839 160.822 263.855 159.992 263.873C158.217 263.929 155.766 264.028 153.06 264.158C150.353 264.288 147.904 264.425 146.132 264.54C145.305 264.601 144.605 264.652 144.035 264.694C143.54 264.738 143.267 264.773 143.269 264.796C143.27 264.819 143.545 264.828 144.042 264.824C144.614 264.811 145.317 264.795 146.146 264.776C147.922 264.721 150.374 264.622 153.081 264.492C155.788 264.362 158.237 264.224 160.009 264.109C160.836 264.049 161.536 263.997 162.106 263.956C162.6 263.912 162.873 263.876 162.872 263.853Z" fill="#33535F"/>
<path d="M161.871 205.056C161.775 205.051 161.621 206.314 161.527 207.877C161.434 209.441 161.437 210.712 161.533 210.718C161.63 210.723 161.784 209.46 161.877 207.896C161.971 206.333 161.968 205.062 161.871 205.056Z" fill="#33535F"/>
<path d="M162.649 188.574C162.648 188.563 162.517 188.558 162.269 188.559C161.981 188.565 161.622 188.572 161.182 188.581C160.239 188.609 158.874 188.652 157.189 188.741C155.504 188.834 153.496 188.973 151.281 189.287C149.074 189.628 146.631 190.252 144.434 191.629C143.888 191.974 143.398 192.389 142.966 192.844C142.537 193.303 142.217 193.849 142.007 194.411C141.614 195.527 141.429 196.644 141.302 197.704C141.063 199.829 141.068 201.748 141.055 203.354C141.054 204.925 141.053 206.213 141.052 207.158C141.049 207.576 141.046 207.918 141.043 208.192C141.042 208.428 141.048 208.552 141.06 208.553C141.072 208.554 141.09 208.43 141.114 208.194C141.138 207.959 141.166 207.61 141.189 207.161C141.24 206.264 141.271 204.962 141.304 203.357C141.347 201.753 141.369 199.838 141.624 197.739C141.758 196.693 141.948 195.594 142.332 194.518C142.705 193.454 143.59 192.576 144.632 191.906C146.752 190.574 149.163 189.941 151.331 189.592C153.526 189.264 155.526 189.1 157.205 188.977C158.851 188.868 160.199 188.777 161.189 188.711C161.628 188.677 161.986 188.649 162.272 188.627C162.519 188.604 162.649 188.585 162.649 188.574Z" fill="#33535F"/>
<path d="M164.554 142.96C161.196 142.96 158.487 140.347 158.524 137.15C158.547 135.154 158.582 133.428 158.582 133.428C158.582 133.428 153.736 132.999 153.38 128.431C153.025 123.864 153.177 113.318 153.177 113.318C158.586 110.717 165.048 111.109 170.068 114.34L170.813 114.819L170.584 137.272C170.551 140.423 167.861 142.96 164.554 142.96Z" fill="#F8A58D"/>
<path d="M158.462 125.616C158.46 125.665 158.044 125.699 157.372 125.716C157.289 125.717 157.191 125.722 157.075 125.696C156.96 125.674 156.818 125.584 156.762 125.451C156.655 125.186 156.76 124.957 156.812 124.763C156.946 124.335 157.082 123.9 157.224 123.445C157.828 121.58 158.397 120.092 158.495 120.12C158.593 120.149 158.182 121.684 157.579 123.549C157.427 124.002 157.282 124.434 157.139 124.86C157.064 125.06 157.008 125.241 157.046 125.34C157.065 125.429 157.205 125.458 157.378 125.465C158.049 125.513 158.463 125.568 158.462 125.616Z" fill="#17282F"/>
<path d="M158.57 133.362C158.57 133.362 161.619 133.419 164.718 131.301C164.718 131.301 163.452 134.678 158.636 134.547L158.57 133.362Z" fill="#F68260"/>
<path d="M169.575 119.87C169.664 119.838 172.612 119.473 172.334 122.788C172.055 126.104 168.632 124.74 168.633 124.644C168.635 124.549 169.575 119.87 169.575 119.87Z" fill="#F8A58D"/>
<path d="M169.797 123.562C169.814 123.553 169.855 123.607 169.953 123.659C170.049 123.711 170.219 123.754 170.406 123.703C170.784 123.602 171.141 123.07 171.207 122.474C171.242 122.173 171.2 121.88 171.107 121.634C171.021 121.383 170.871 121.202 170.688 121.156C170.508 121.102 170.367 121.197 170.317 121.287C170.262 121.377 170.279 121.444 170.261 121.448C170.25 121.456 170.19 121.387 170.23 121.252C170.25 121.188 170.297 121.112 170.385 121.055C170.473 120.997 170.599 120.973 170.727 120.996C170.994 121.034 171.215 121.288 171.317 121.558C171.433 121.831 171.488 122.16 171.45 122.498C171.371 123.165 170.959 123.763 170.445 123.863C170.195 123.905 169.996 123.819 169.897 123.733C169.796 123.643 169.785 123.567 169.797 123.562Z" fill="#F68260"/>
<path d="M153.554 113.593C152.369 113.315 151.532 112.139 151.576 110.977C151.62 109.814 152.462 108.746 153.572 108.263C154.683 107.78 156.01 107.846 157.126 108.318C157.464 106.629 159.199 105.299 161.004 105.346C162.808 105.394 164.464 106.814 164.702 108.518C164.818 107.636 165.866 107.143 166.798 107.089C167.728 107.036 168.725 107.297 169.33 107.973C169.934 108.649 169.994 109.782 169.307 110.381C170.345 110.27 171.441 110.475 172.286 111.061C173.131 111.646 173.688 112.634 173.61 113.625C173.532 114.618 172.758 115.557 171.736 115.759C171.384 115.829 171.297 115.603 171.107 115.895C171.002 116.056 170.963 116.662 170.97 116.852C171.004 117.948 171.005 118.888 170.774 119.98C170.165 119.688 169.395 120.108 169.1 120.692C168.805 121.277 168.854 121.959 168.91 122.605C168.614 123.029 167.869 122.904 167.547 122.498C167.225 122.093 167.204 121.546 167.198 121.038C167.174 119.275 167.15 117.512 167.127 115.75C166.583 116.037 165.884 116.037 165.34 115.75C164.796 115.462 164.426 114.897 164.395 114.305C163.613 115.021 162.486 115.379 161.41 115.253C160.334 115.129 159.33 114.523 158.752 113.649C158.179 114.082 157.598 114.519 156.93 114.803C156.262 115.087 155.487 115.205 154.796 114.978C154.104 114.75 153.534 114.123 153.546 113.426C153.627 113.36 153.708 113.294 153.789 113.228" fill="#17282F"/>
<path d="M170.727 189.262H123.323L115.507 160.431H155.06L161.321 187.385L170.727 187.596V189.262Z" fill="#5DC3FC"/>
<path d="M156.493 120.256C156.542 120.318 156.105 120.644 155.45 120.657C154.795 120.675 154.341 120.37 154.388 120.305C154.427 120.229 154.877 120.381 155.442 120.363C156.008 120.355 156.45 120.182 156.493 120.256Z" fill="#17282F"/>
<path d="M154.788 120.56C154.786 120.89 155.058 121.16 155.396 121.162C155.734 121.164 156.01 120.898 156.013 120.567" fill="#17282F"/>
<path d="M163.167 120.299C163.216 120.361 162.779 120.687 162.124 120.699C161.469 120.717 161.016 120.412 161.062 120.348C161.101 120.271 161.55 120.424 162.116 120.405C162.682 120.397 163.124 120.224 163.167 120.299Z" fill="#17282F"/>
<path d="M161.46 120.602C161.458 120.933 161.73 121.202 162.069 121.204C162.406 121.206 162.683 120.941 162.685 120.61" fill="#17282F"/>
<path d="M163.596 118.811C163.554 119.055 162.865 119.147 162.049 119.158C161.233 119.164 160.543 119.086 160.495 118.844C160.447 118.608 161.133 118.284 162.039 118.275C162.945 118.264 163.639 118.574 163.596 118.811Z" fill="#17282F"/>
<path d="M156.716 119.181C156.674 119.424 155.985 119.516 155.17 119.527C154.354 119.534 153.663 119.456 153.616 119.214C153.567 118.978 154.253 118.654 155.16 118.645C156.066 118.634 156.76 118.944 156.716 119.181Z" fill="#17282F"/>
<path d="M174.039 121.587C174.039 123.306 172.576 124.698 170.771 124.698C168.967 124.698 168.339 123.306 168.339 121.587C168.339 119.869 168.967 118.476 170.771 118.476C172.576 118.476 174.039 119.869 174.039 121.587Z" fill="#33535F"/>
<path d="M170.492 119.214C170.492 119.214 173.02 107.667 164.718 108.123L164.323 107.399C164.323 107.399 169.348 106.275 171.189 109.998C172.623 112.901 171.69 119.086 171.69 119.086L170.492 119.214Z" fill="#33535F"/>
<path d="M171.189 124.698C171.196 124.724 170.7 124.739 170.096 124.317C169.513 123.907 168.839 123.096 168.686 122.014C168.567 120.945 168.861 119.986 169.267 119.398C169.689 118.792 170.217 118.717 170.208 118.752C170.234 118.797 169.785 118.932 169.452 119.509C169.127 120.065 168.88 120.996 168.993 121.977C169.126 122.953 169.726 123.738 170.232 124.154C170.752 124.584 171.205 124.644 171.189 124.698Z" fill="#17282F"/>
<path d="M158.672 126.806C158.721 126.871 158.628 127.013 158.438 127.062C158.249 127.111 158.092 127.034 158.1 126.954C158.107 126.873 158.224 126.815 158.357 126.779C158.49 126.746 158.622 126.739 158.672 126.806Z" fill="#17282F"/>
<path d="M147.243 127.399C147.243 128.137 146.615 128.735 145.841 128.735C145.066 128.735 144.438 128.137 144.438 127.399C144.438 126.662 145.066 126.064 145.841 126.064C146.615 126.064 147.243 126.662 147.243 127.399Z" fill="#17282F"/>
<path d="M147.039 126.954C146.971 127.004 146.059 125.897 145.215 124.374C144.378 122.854 143.715 121.627 143.779 121.587C143.858 121.539 144.652 122.719 145.486 124.234C146.323 125.744 147.108 126.906 147.039 126.954Z" fill="#17282F"/>
<path d="M146.365 120.114C146.441 120.138 146.143 120.835 145.354 121.315C144.57 121.803 143.78 121.776 143.788 121.699C143.778 121.612 144.48 121.511 145.186 121.068C145.901 120.637 146.286 120.069 146.365 120.114Z" fill="#17282F"/>
<path d="M146.975 121.372C147.055 121.389 146.789 122.095 145.984 122.512C145.184 122.937 144.415 122.774 144.443 122.699C144.448 122.613 145.133 122.632 145.835 122.254C146.545 121.892 146.896 121.33 146.975 121.372Z" fill="#17282F"/>
<path d="M138.549 126.623C138.249 126.993 137.689 127.062 137.3 126.776C136.911 126.49 136.839 125.958 137.14 125.588C137.44 125.217 137.998 125.148 138.388 125.434C138.777 125.72 138.849 126.252 138.549 126.623Z" fill="#17282F"/>
<path d="M138.628 126.324C138.542 126.324 138.51 125.425 138.706 124.345C138.905 123.272 139.095 122.418 139.174 122.424C139.265 122.432 139.208 123.324 139.011 124.393C138.817 125.458 138.713 126.325 138.628 126.324Z" fill="#17282F"/>
<path d="M141.871 123.394C141.891 123.46 141.18 123.667 140.313 123.436C139.885 123.323 139.529 123.108 139.332 122.895C139.129 122.683 139.099 122.495 139.133 122.484C139.177 122.464 139.269 122.598 139.481 122.743C139.688 122.891 140.009 123.051 140.397 123.153C141.174 123.364 141.862 123.302 141.871 123.394Z" fill="#17282F"/>
<path d="M141.246 127.593C140.946 127.963 140.387 128.032 139.998 127.746C139.609 127.46 139.537 126.928 139.836 126.557C140.137 126.187 140.695 126.118 141.084 126.404C141.474 126.69 141.546 127.222 141.246 127.593Z" fill="#17282F"/>
<path d="M141.326 127.294C141.24 127.294 141.207 126.394 141.403 125.316C141.602 124.242 141.792 123.388 141.872 123.394C141.962 123.402 141.905 124.295 141.708 125.363C141.514 126.428 141.41 127.295 141.326 127.294Z" fill="#17282F"/>
<path d="M141.796 123.968C141.826 124.039 141.161 124.279 140.34 124.09C139.517 123.907 139.036 123.409 139.097 123.358C139.154 123.291 139.672 123.643 140.412 123.803C141.148 123.977 141.777 123.884 141.796 123.968Z" fill="#17282F"/>
<path d="M189.531 165.593C189.531 165.603 189.42 165.607 189.212 165.607C188.969 165.602 188.668 165.596 188.3 165.589C187.465 165.56 186.332 165.52 184.952 165.471C182.124 165.358 178.22 165.182 173.909 164.97C173.151 164.932 172.407 164.895 171.698 164.859L171.553 164.852L171.553 164.714C171.573 161.119 171.592 157.94 171.604 155.607C171.623 154.494 171.639 153.584 171.651 152.909C171.662 152.619 171.671 152.379 171.678 152.182C171.687 152.016 171.697 151.929 171.706 151.929C171.716 151.929 171.725 152.016 171.735 152.182C171.742 152.379 171.751 152.619 171.761 152.909C171.773 153.584 171.789 154.494 171.808 155.607C171.821 157.94 171.839 161.119 171.859 164.714L171.715 164.568C172.423 164.603 173.167 164.639 173.924 164.676C178.236 164.889 182.139 165.097 184.963 165.263C186.341 165.35 187.472 165.422 188.307 165.475C188.673 165.504 188.973 165.528 189.215 165.547C189.423 165.567 189.532 165.582 189.531 165.593Z" fill="#17282F"/>
<path d="M181.067 140.955C181.058 141.016 180.251 140.768 178.94 140.893C177.648 141.001 175.842 141.597 174.429 142.952C173.02 144.312 172.367 146.003 172.114 147.22C171.852 148.451 171.906 149.243 171.846 149.242C171.828 149.243 171.797 149.048 171.785 148.691C171.772 148.334 171.793 147.815 171.899 147.182C172.102 145.93 172.742 144.163 174.211 142.744C175.686 141.329 177.584 140.743 178.922 140.685C179.598 140.649 180.145 140.708 180.512 140.788C180.879 140.866 181.072 140.939 181.067 140.955Z" fill="#17282F"/>
<path d="M148.335 149.716C148.378 149.716 148.418 150.337 148.443 151.358C148.469 152.377 148.476 153.804 148.445 155.367C148.41 156.85 148.379 158.19 148.354 159.289C148.346 159.914 148.341 160.365 148.335 160.812C148.33 160.306 148.325 159.793 148.317 159.085C148.291 157.984 148.261 156.643 148.226 155.159C148.194 153.659 148.202 152.312 148.228 151.323C148.253 150.336 148.293 149.716 148.335 149.716Z" fill="#17282F"/>
<path d="M139.196 174.847C139.196 176.258 137.995 177.401 136.513 177.401C135.032 177.401 133.831 176.258 133.831 174.847C133.831 173.436 135.032 172.292 136.513 172.292C137.995 172.292 139.196 173.436 139.196 174.847Z" fill="#F3F2F1"/>
</svg>
