<svg width="30" height="31" viewBox="0 0 30 31" fill="none" xmlns="http://www.w3.org/2000/svg">
<path d="M9 3.82501C8.20435 3.82501 7.44129 4.14108 6.87868 4.70369C6.31607 5.2663 6 6.02936 6 6.82501V24.825C6 25.6207 6.31607 26.3837 6.87868 26.9463C7.44129 27.5089 8.20435 27.825 9 27.825H15.3855C15.0035 27.3623 14.673 26.8593 14.4 26.325H9C8.60218 26.325 8.22064 26.167 7.93934 25.8857C7.65804 25.6044 7.5 25.2228 7.5 24.825H13.8105C13.4093 23.4119 13.3927 21.9174 13.7624 20.4957C14.132 19.0741 14.8746 17.7769 15.9132 16.7382C16.9519 15.6996 18.2491 14.957 19.6707 14.5874C21.0924 14.2177 22.5869 14.2343 24 14.6355V6.82501C24 6.02936 23.6839 5.2663 23.1213 4.70369C22.5587 4.14108 21.7956 3.82501 21 3.82501H9ZM10.125 7.57501H19.875C20.1734 7.57501 20.4595 7.69354 20.6705 7.90452C20.8815 8.1155 21 8.40164 21 8.70001C21 8.99838 20.8815 9.28453 20.6705 9.49551C20.4595 9.70649 20.1734 9.82501 19.875 9.82501H10.125C9.82663 9.82501 9.54048 9.70649 9.3295 9.49551C9.11853 9.28453 9 8.99838 9 8.70001C9 8.40164 9.11853 8.1155 9.3295 7.90452C9.54048 7.69354 9.82663 7.57501 10.125 7.57501ZM28.5 22.575C28.5 24.3652 27.7888 26.0821 26.523 27.348C25.2571 28.6139 23.5402 29.325 21.75 29.325C19.9598 29.325 18.2429 28.6139 16.977 27.348C15.7112 26.0821 15 24.3652 15 22.575C15 20.7848 15.7112 19.0679 16.977 17.802C18.2429 16.5362 19.9598 15.825 21.75 15.825C23.5402 15.825 25.2571 16.5362 26.523 17.802C27.7888 19.0679 28.5 20.7848 28.5 22.575ZM21.03 19.626C20.9327 19.5592 20.8197 19.519 20.7021 19.5092C20.5845 19.4995 20.4664 19.5206 20.3595 19.5705C20.2722 19.6089 20.1933 19.6639 20.127 19.7325C19.9873 19.8757 19.9092 20.0679 19.9095 20.268V24.8805C19.9086 24.9799 19.9273 25.0786 19.9647 25.1707C20.002 25.2629 20.0572 25.3468 20.127 25.4175C20.1955 25.4856 20.2751 25.5414 20.3625 25.5825C20.5147 25.6522 20.6874 25.6629 20.847 25.6125C20.9161 25.5897 20.9818 25.5574 21.042 25.5165L24.486 23.166C24.5908 23.097 24.6752 23.0012 24.7305 22.8885C24.7875 22.775 24.8168 22.6497 24.816 22.5227C24.8152 22.3958 24.7844 22.2708 24.726 22.158C24.6673 22.047 24.5811 21.953 24.4755 21.885L21.03 19.626Z" fill="#F0F0F0"/>
</svg>
