<svg width="32" height="32" viewBox="0 0 32 32" fill="none" xmlns="http://www.w3.org/2000/svg">
<g clip-path="url(#clip0_156_273)">
<path d="M22.5085 34.7203C10.5175 37.4738 3.13788 13.3478 3.13788 13.3478C3.13788 13.3478 4.36117 6.4375 7.7585 5.22993C11.1558 4.02236 26.4536 3.55216 28.4958 4.77611C30.5381 6.00006 27.989 14.1601 27.9998 14.5C28.0105 14.8399 31.8189 19.2201 32.0379 22.5C32.4249 28.2984 29.9998 33 22.5085 34.7203Z" fill="url(#paint0_linear_156_273)"/>
<path d="M23.3337 22.4267L26.587 24.3067L25.587 26.04L21.3337 23.5867V18.6667H23.3337V22.4267ZM32.0003 22.6667C32.0003 27.8267 27.827 32 22.667 32C17.507 32 13.3337 27.8267 13.3337 22.6667C13.3337 22.2134 13.3737 21.7734 13.4403 21.3334H2.66699V5.33337H26.667V14.24C29.8137 15.7467 32.0003 18.9467 32.0003 22.6667ZM14.2403 18.6667C14.4803 18.1867 14.7337 17.7334 15.0403 17.2934C14.9203 17.3334 14.8003 17.3334 14.667 17.3334C12.4537 17.3334 10.667 15.5467 10.667 13.3334C10.667 11.12 12.4537 9.33337 14.667 9.33337C16.8803 9.33337 18.667 11.12 18.667 13.3334C18.667 13.6667 18.6137 14 18.5337 14.3067C19.787 13.6934 21.187 13.3334 22.667 13.3334C23.1203 13.3334 23.5603 13.3734 24.0003 13.44V10.6667C23.2931 10.6667 22.6148 10.3858 22.1147 9.88566C21.6146 9.38556 21.3337 8.70728 21.3337 8.00004H8.00033C8.00033 9.48004 6.81366 10.6667 5.33366 10.6667V16C6.0409 16 6.71918 16.281 7.21928 16.7811C7.71937 17.2812 8.00033 17.9595 8.00033 18.6667H14.2403ZM29.3337 22.6667C29.3337 18.9867 26.347 16 22.667 16C18.987 16 16.0003 18.9867 16.0003 22.6667C16.0003 26.3467 18.987 29.3334 22.667 29.3334C26.347 29.3334 29.3337 26.3467 29.3337 22.6667Z" fill="#F0F0F0"/>
</g>
<defs>
<linearGradient id="paint0_linear_156_273" x1="26.1248" y1="4.32996" x2="-2.40073" y2="24.9456" gradientUnits="userSpaceOnUse">
<stop stop-color="#2BBA8F" stop-opacity="0.46"/>
<stop offset="1" stop-color="#27332F" stop-opacity="0"/>
</linearGradient>
<clipPath id="clip0_156_273">
<rect width="32" height="32" fill="white"/>
</clipPath>
</defs>
</svg>
