<svg width="33" height="32" viewBox="0 0 33 32" fill="none" xmlns="http://www.w3.org/2000/svg">
<g clip-path="url(#clip0_156_206)">
<path d="M27.1663 18.6667C27.6799 18.6669 28.1738 18.8648 28.5455 19.2192C28.9172 19.5737 29.1383 20.0575 29.163 20.5705C29.1877 21.0836 29.0141 21.5864 28.6781 21.9749C28.3421 22.3634 27.8696 22.6078 27.3583 22.6573L27.1663 22.6667H10.661L12.581 24.5867C12.9447 24.949 13.1551 25.4374 13.1686 25.9506C13.1822 26.4639 12.9979 26.9626 12.6538 27.3437C12.3097 27.7248 11.8323 27.9589 11.3204 27.9977C10.8084 28.0365 10.3012 27.8769 9.90366 27.552L9.75166 27.4147L4.64633 22.308C3.34766 21.0093 4.193 18.8187 5.96766 18.6747L6.15433 18.6667H27.1663ZM20.4197 4.58666C20.7695 4.23652 21.2367 4.02854 21.731 4.00293C22.2253 3.97731 22.7115 4.13589 23.0957 4.448L23.2477 4.58533L28.353 9.692C29.6517 10.9907 28.8063 13.1813 27.0317 13.3253L26.845 13.3333H5.833C5.31937 13.3331 4.82554 13.1352 4.45381 12.7808C4.08209 12.4263 3.86098 11.9425 3.8363 11.4294C3.81161 10.9164 3.98525 10.4136 4.32123 10.0251C4.65721 9.63657 5.12977 9.39222 5.641 9.34266L5.833 9.33333H22.3383L20.4183 7.41333C20.0438 7.03833 19.8334 6.53 19.8334 6C19.8334 5.46999 20.0451 4.96166 20.4197 4.58666Z" fill="#F0F0F0"/>
</g>
<defs>
<clipPath id="clip0_156_206">
<rect width="32" height="32" fill="white" transform="translate(0.5)"/>
</clipPath>
</defs>
</svg>
