<svg width="32" height="29" viewBox="0 0 32 29" fill="none" xmlns="http://www.w3.org/2000/svg">
<rect y="0.5" width="32" height="28" rx="4" fill="#F1ECF5"/>
<g clip-path="url(#clip0_668_982)">
<path d="M20.1203 11.258L15.9992 8.87901L11.8794 11.258V8.87901L15.9998 6.5L20.1208 8.87901V11.258H20.1203Z" fill="#A435F0"/>
<path d="M11.8794 13.2557H14.0378V18.5C14.0378 19.8549 15.0496 20.5153 15.9998 20.5153C16.9582 20.5153 17.9624 19.8373 17.9624 18.4818V13.2557H20.1208V18.6249C20.1208 19.8731 19.7284 20.8362 18.9437 21.4966C18.1583 22.1565 17.1776 22.4779 15.9816 22.4779C14.7869 22.4779 13.8056 22.157 13.039 21.4966C12.2718 20.8367 11.8794 19.9094 11.8794 18.6783V13.2557Z" fill="black"/>
</g>
<defs>
<clipPath id="clip0_668_982">
<rect width="8.25" height="16" fill="white" transform="translate(11.875 6.5)"/>
</clipPath>
</defs>
</svg>
